<svg width="100%" height="100%" viewBox="0 0 2084 1321" version="1.1" xmlns="http://www.w3.org/2000/svg" xmlns:xlink="http://www.w3.org/1999/xlink" xml:space="preserve" xmlns:serif="http://www.serif.com/" style="fill-rule:evenodd;clip-rule:evenodd;stroke-linejoin:round;stroke-miterlimit:2;">
    <g transform="matrix(1,0,0,1,-2638.95,-6095.62)">
        <g>
            <g transform="matrix(-4.16667,0,0,4.16667,7361.23,5666.4)">
                <rect x="633.348" y="103.012" width="500" height="317" style="fill:white;"/>
            </g>
            <g transform="matrix(4.16667,0,0,4.16667,3041.03,6745.12)">
                <path d="M0,-1.666C1.647,-2.755 2.971,-4.172 3.959,-5.904C5.309,-8.269 5.996,-10.828 5.996,-13.529C5.996,-15.247 5.695,-16.97 5.097,-18.657C4.499,-20.349 3.64,-21.877 2.551,-23.201C1.444,-24.538 0.089,-25.645 -1.488,-26.486C-3.091,-27.341 -4.902,-27.779 -6.864,-27.779L-35.63,-27.779L-35.63,26.113L-9.565,26.113C-7.192,26.113 -4.92,25.803 -2.816,25.196C-0.686,24.58 1.213,23.664 2.83,22.481C4.486,21.277 5.801,19.762 6.753,17.973C7.701,16.171 8.183,14.072 8.183,11.725C8.183,8.098 7.24,5.03 5.38,2.594C3.977,0.752 2.17,-0.674 0,-1.666M-4.459,12.057C-4.752,12.761 -5.15,13.377 -5.642,13.89C-6.12,14.395 -6.704,14.789 -7.378,15.077C-8.042,15.361 -8.777,15.502 -9.565,15.502L-23.492,15.502L-23.492,3.923L-9.051,3.923C-8.334,3.923 -7.696,4.069 -7.107,4.365C-6.51,4.658 -5.983,5.078 -5.535,5.605C-5.084,6.141 -4.712,6.783 -4.437,7.523C-4.167,8.253 -4.03,9.028 -4.03,9.821C-4.03,10.605 -4.176,11.358 -4.459,12.057M-7.475,-7.556C-8.476,-6.577 -9.662,-6.099 -11.097,-6.099L-23.492,-6.099L-23.492,-17.098L-10.659,-17.098C-9.339,-17.098 -8.259,-16.629 -7.36,-15.673C-6.448,-14.689 -6,-13.374 -6,-11.634C-6,-9.863 -6.483,-8.53 -7.475,-7.556" style="fill:rgb(79,17,16);fill-rule:nonzero;"/>
            </g>
            <g transform="matrix(4.16667,0,0,4.16667,3410.7,6771.02)">
                <path d="M0,-0.522C-1.311,-1.447 -2.989,-2.271 -4.995,-2.984C-6.935,-3.675 -9.313,-4.37 -12.058,-5.061C-14.897,-5.765 -16.872,-6.403 -17.935,-6.947C-18.727,-7.355 -19.086,-7.948 -19.086,-8.874C-19.086,-10.007 -18.678,-10.765 -17.819,-11.256C-16.788,-11.845 -15.477,-12.142 -13.914,-12.142C-12.133,-12.142 -10.327,-11.854 -8.538,-11.278C-6.731,-10.703 -4.774,-9.742 -2.719,-8.44L-1.864,-7.895L3.299,-15.684L2.4,-16.242C0,-17.743 -2.617,-18.943 -5.394,-19.825C-8.188,-20.702 -11.026,-21.149 -13.843,-21.149C-16.128,-21.149 -18.28,-20.839 -20.242,-20.223C-22.23,-19.608 -23.984,-18.7 -25.467,-17.535C-26.968,-16.349 -28.155,-14.892 -29.001,-13.2C-29.847,-11.508 -30.276,-9.582 -30.276,-7.488C-30.276,-5.88 -29.997,-4.459 -29.452,-3.263C-28.899,-2.045 -28.013,-0.956 -26.809,-0.026C-25.657,0.864 -24.138,1.652 -22.296,2.321C-20.512,2.959 -18.337,3.587 -15.836,4.176C-12.66,4.934 -10.38,5.633 -9.065,6.258C-8.037,6.745 -7.577,7.391 -7.577,8.352C-7.577,9.358 -7.98,10.075 -8.843,10.615C-9.84,11.235 -11.274,11.55 -13.112,11.55C-17.412,11.55 -21.96,10.013 -26.636,6.975L-27.535,6.391L-32.521,14.782L-31.733,15.331C-30.564,16.146 -29.2,16.894 -27.686,17.55C-26.184,18.201 -24.59,18.754 -22.943,19.202C-21.304,19.649 -19.604,20.003 -17.895,20.247C-16.163,20.499 -14.476,20.627 -12.891,20.627C-10.429,20.627 -8.135,20.331 -6.076,19.746C-3.99,19.157 -2.192,18.285 -0.731,17.165C0.748,16.027 1.917,14.618 2.741,12.971C3.56,11.328 3.981,9.481 3.981,7.476C3.981,5.718 3.662,4.181 3.033,2.897C2.4,1.604 1.382,0.448 0,-0.522" style="fill:rgb(79,17,16);fill-rule:nonzero;"/>
            </g>
            <g transform="matrix(4.16667,0,0,4.16667,3544.21,6687.65)">
                <path d="M0,27.748L-1.107,28.209C-1.674,28.448 -2.436,28.731 -3.383,29.063C-4.242,29.369 -5.132,29.515 -6.031,29.515C-6.833,29.515 -7.484,29.311 -8.033,28.891C-8.489,28.541 -8.719,27.845 -8.719,26.827L-8.719,9.176L-0.62,9.176L-0.62,-0.407L-8.719,-0.407L-8.719,-12.815L-20.574,-12.815L-20.574,-0.407L-25.529,-0.407L-25.529,9.176L-20.574,9.176L-20.574,30.113C-20.574,31.955 -20.273,33.562 -19.679,34.878C-19.081,36.21 -18.267,37.318 -17.248,38.168C-16.238,39.014 -15.052,39.634 -13.728,40.01C-12.448,40.378 -11.062,40.563 -9.609,40.563C-7.426,40.563 -5.301,40.253 -3.286,39.638C-1.333,39.045 0.341,38.442 1.687,37.845L2.484,37.49L0,27.748Z" style="fill:rgb(79,17,16);fill-rule:nonzero;"/>
            </g>
            <g transform="matrix(4.16667,0,0,4.16667,4025.33,6830.82)">
                <path d="M0,-29.156C-1.816,-31.073 -4.039,-32.61 -6.611,-33.735C-9.193,-34.86 -12.142,-35.426 -15.384,-35.426C-18.625,-35.426 -21.588,-34.86 -24.187,-33.739C-26.791,-32.614 -29.023,-31.073 -30.839,-29.156C-32.654,-27.238 -34.067,-25.002 -35.032,-22.505C-35.997,-20.012 -36.489,-17.332 -36.489,-14.538C-36.489,-11.793 -35.997,-9.14 -35.032,-6.647C-34.067,-4.15 -32.654,-1.913 -30.839,0C-29.023,1.917 -26.791,3.463 -24.183,4.583C-21.579,5.703 -18.617,6.27 -15.384,6.27C-12.147,6.27 -9.184,5.703 -6.58,4.583C-3.977,3.463 -1.749,1.917 0.044,-0.005C1.829,-1.913 3.219,-4.154 4.193,-6.647C5.159,-9.145 5.646,-11.802 5.646,-14.538C5.646,-17.328 5.159,-20.003 4.193,-22.505C3.219,-25.002 1.811,-27.243 0,-29.156M-9.043,-6.975C-9.844,-6.067 -10.801,-5.358 -11.877,-4.862C-12.948,-4.366 -14.126,-4.114 -15.384,-4.114C-16.637,-4.114 -17.819,-4.366 -18.891,-4.862C-19.972,-5.358 -20.928,-6.067 -21.721,-6.975C-22.531,-7.896 -23.178,-9.003 -23.643,-10.265C-24.112,-11.531 -24.351,-12.971 -24.351,-14.538C-24.351,-16.062 -24.112,-17.492 -23.643,-18.785C-23.178,-20.074 -22.531,-21.19 -21.721,-22.106C-20.919,-23.018 -19.963,-23.74 -18.878,-24.263C-17.806,-24.776 -16.633,-25.038 -15.384,-25.038C-14.131,-25.038 -12.948,-24.785 -11.877,-24.294C-10.796,-23.789 -9.844,-23.08 -9.043,-22.177C-8.237,-21.256 -7.59,-20.144 -7.125,-18.86C-6.656,-17.567 -6.417,-16.137 -6.417,-14.613C-6.417,-13.041 -6.656,-11.589 -7.125,-10.296C-7.586,-9.012 -8.232,-7.896 -9.043,-6.975" style="fill:rgb(79,17,16);fill-rule:nonzero;"/>
            </g>
            <g transform="matrix(4.16667,0,0,4.16667,4215.4,6830.82)">
                <path d="M0,-29.156C-1.816,-31.073 -4.043,-32.61 -6.616,-33.735C-9.193,-34.86 -12.142,-35.426 -15.388,-35.426C-18.625,-35.426 -21.588,-34.86 -24.192,-33.739C-26.787,-32.614 -29.027,-31.073 -30.843,-29.156C-32.658,-27.238 -34.067,-25.002 -35.032,-22.505C-36.002,-20.012 -36.493,-17.332 -36.493,-14.538C-36.493,-11.797 -36.002,-9.14 -35.032,-6.647C-34.071,-4.154 -32.658,-1.913 -30.843,0C-29.027,1.917 -26.787,3.463 -24.192,4.583C-21.588,5.703 -18.621,6.27 -15.388,6.27C-12.147,6.27 -9.184,5.703 -6.581,4.583C-3.981,3.463 -1.754,1.917 0.04,-0.005C1.824,-1.913 3.224,-4.154 4.193,-6.647C5.154,-9.145 5.65,-11.802 5.65,-14.538C5.65,-17.328 5.154,-20.007 4.193,-22.505C3.224,-25.002 1.811,-27.238 0,-29.156M-9.043,-6.975C-9.849,-6.067 -10.801,-5.358 -11.877,-4.862C-12.953,-4.366 -14.126,-4.114 -15.388,-4.114C-16.642,-4.114 -17.824,-4.366 -18.896,-4.862C-19.976,-5.358 -20.928,-6.067 -21.725,-6.975C-22.536,-7.9 -23.187,-9.003 -23.651,-10.265C-24.116,-11.527 -24.351,-12.971 -24.351,-14.538C-24.351,-16.066 -24.116,-17.492 -23.647,-18.785C-23.182,-20.069 -22.536,-21.185 -21.725,-22.106C-20.919,-23.018 -19.963,-23.74 -18.878,-24.263C-17.806,-24.776 -16.633,-25.038 -15.388,-25.038C-14.131,-25.038 -12.953,-24.785 -11.877,-24.294C-10.796,-23.798 -9.844,-23.08 -9.047,-22.177C-8.237,-21.256 -7.595,-20.144 -7.125,-18.86C-6.656,-17.567 -6.421,-16.137 -6.421,-14.613C-6.421,-13.037 -6.656,-11.585 -7.125,-10.296C-7.595,-9.012 -8.237,-7.896 -9.043,-6.975" style="fill:rgb(79,17,16);fill-rule:nonzero;"/>
            </g>
            <g transform="matrix(4.16667,0,0,4.16667,4378.4,6856.94)">
                <path d="M0,-56.075L0,-36.458C-1.058,-37.631 -2.303,-38.65 -3.724,-39.504C-6.138,-40.957 -8.861,-41.696 -11.81,-41.696C-14.441,-41.696 -16.898,-41.147 -19.121,-40.058C-21.34,-38.973 -23.271,-37.463 -24.865,-35.559C-26.446,-33.672 -27.703,-31.449 -28.585,-28.965C-29.475,-26.485 -29.922,-23.762 -29.922,-20.884C-29.922,-17.996 -29.448,-15.26 -28.509,-12.749C-27.566,-10.229 -26.233,-7.993 -24.55,-6.106C-22.859,-4.211 -20.822,-2.701 -18.484,-1.625C-16.146,-0.545 -13.559,0 -10.787,0C-7.958,0 -5.243,-0.664 -2.719,-1.975C-1.019,-2.86 0.465,-4.043 1.709,-5.504C2.01,-3.879 2.759,-2.59 3.937,-1.674C5.106,-0.761 6.726,-0.265 8.772,-0.217C9.397,-0.217 10.118,-0.257 10.907,-0.341L11.832,-0.443L11.85,-56.075L0,-56.075ZM-3.286,-12.018C-4.021,-11.5 -4.836,-11.093 -5.713,-10.809C-6.567,-10.53 -7.422,-10.384 -8.232,-10.384C-9.587,-10.384 -10.858,-10.65 -12.005,-11.168C-13.161,-11.695 -14.179,-12.425 -15.034,-13.338C-15.884,-14.259 -16.566,-15.353 -17.053,-16.588C-17.541,-17.824 -17.784,-19.192 -17.784,-20.662C-17.784,-22.053 -17.558,-23.408 -17.111,-24.71C-16.664,-25.998 -16.035,-27.154 -15.238,-28.155C-14.458,-29.129 -13.506,-29.908 -12.399,-30.471C-11.31,-31.024 -10.105,-31.308 -8.821,-31.308C-6.988,-31.308 -5.27,-30.683 -3.565,-29.399C-1.909,-28.15 -0.687,-26.574 0.075,-24.701L0.075,-15.964C-0.222,-15.229 -0.651,-14.529 -1.204,-13.905C-1.829,-13.183 -2.533,-12.554 -3.286,-12.018" style="fill:rgb(79,17,16);fill-rule:nonzero;"/>
            </g>
            <g transform="matrix(4.16667,0,0,4.16667,3684.04,6838.78)">
                <path d="M0,-30.409L-7.369,-11.837L-15.495,-34.04L-27.982,-34.04L-12.7,3.631L-2.852,3.631L5.433,-16.442L0,-30.409Z" style="fill:rgb(79,17,16);fill-rule:nonzero;"/>
            </g>
            <g transform="matrix(4.16667,0,0,4.16667,3695.96,6679.72)">
                <path d="M0,4.145L15.725,41.807L25.582,41.807L58.75,-37.662L45.54,-37.662L20.308,26.357L11.345,4.145L0,4.145Z" style="fill:rgb(1,114,59);fill-rule:nonzero;"/>
            </g>
            <g transform="matrix(4.16667,0,0,4.16667,3261.42,6803.41)">
                <path d="M0,-15.991C-0.948,-18.497 -2.347,-20.725 -4.163,-22.616C-5.974,-24.506 -8.201,-26.039 -10.77,-27.155C-13.347,-28.279 -16.301,-28.846 -19.542,-28.846C-22.783,-28.846 -25.755,-28.279 -28.381,-27.159C-30.998,-26.039 -33.261,-24.502 -35.103,-22.58C-36.945,-20.667 -38.367,-18.413 -39.336,-15.885C-40.302,-13.374 -40.793,-10.655 -40.793,-7.816C-40.793,-5.066 -40.288,-2.409 -39.297,0.084C-38.3,2.586 -36.865,4.813 -35.028,6.7C-33.185,8.595 -30.936,10.105 -28.336,11.199C-25.742,12.297 -22.801,12.855 -19.617,12.855C-15.162,12.855 -11.261,11.854 -8.024,9.892C-4.787,7.931 -2.387,5.375 -0.895,2.302L-11.261,-0.7C-11.828,0.54 -12.793,1.541 -14.237,2.338C-15.8,3.192 -17.487,3.631 -19.25,3.631C-20.388,3.631 -21.495,3.431 -22.535,3.042C-23.581,2.648 -24.528,2.072 -25.347,1.341C-26.171,0.606 -26.849,-0.297 -27.376,-1.342C-27.748,-2.095 -28.031,-2.941 -28.204,-3.857L0.97,-3.857L1.165,-4.646C1.284,-5.106 1.351,-5.651 1.382,-6.311C1.404,-6.909 1.417,-7.529 1.417,-8.18C1.417,-10.872 0.939,-13.493 0,-15.991M-28.381,-12.28C-28.226,-13.13 -27.978,-13.932 -27.624,-14.671C-27.119,-15.716 -26.477,-16.615 -25.693,-17.355C-24.913,-18.09 -24.006,-18.67 -22.987,-19.082C-21.969,-19.489 -20.862,-19.702 -19.688,-19.702C-17.261,-19.702 -15.255,-18.94 -13.564,-17.386C-12.125,-16.053 -11.235,-14.375 -10.863,-12.28L-28.381,-12.28Z" style="fill:rgb(79,17,16);fill-rule:nonzero;"/>
            </g>
            <g transform="matrix(4.16667,0,0,4.16667,4459.62,6553.24)">
                <path d="M0,-0.908L1.12,-0.908C1.461,-0.908 1.722,-0.988 1.904,-1.143C2.086,-1.298 2.179,-1.523 2.179,-1.811C2.179,-2.112 2.086,-2.352 1.9,-2.533C1.714,-2.719 1.448,-2.808 1.111,-2.808L0,-2.808L0,-0.908ZM0,0.398L0,3.206L-1.705,3.206L-1.705,-4.114L1.111,-4.114C1.957,-4.114 2.63,-3.919 3.126,-3.529C3.622,-3.135 3.87,-2.6 3.87,-1.918C3.87,-1.541 3.773,-1.213 3.573,-0.943C3.374,-0.673 3.078,-0.452 2.688,-0.279C3.14,-0.151 3.463,0.062 3.658,0.359C3.853,0.655 3.95,1.023 3.95,1.466L3.95,1.926C3.95,2.121 3.981,2.338 4.038,2.582C4.096,2.825 4.193,3.002 4.335,3.104L4.335,3.206L2.586,3.206C2.449,3.1 2.36,2.918 2.32,2.652C2.28,2.387 2.258,2.143 2.258,1.917L2.258,1.475C2.258,1.129 2.165,0.859 1.979,0.677C1.798,0.491 1.528,0.398 1.173,0.398L0,0.398Z" style="fill:rgb(34,31,31);fill-rule:nonzero;"/>
            </g>
            <g transform="matrix(4.16667,0,0,4.16667,4465.1,6576.29)">
                <path d="M0,-11.979C-3.303,-11.979 -5.992,-9.291 -5.992,-5.987C-5.992,-2.684 -3.303,0.004 0,0.004C3.303,0.004 5.991,-2.684 5.991,-5.987C5.991,-9.291 3.303,-11.979 0,-11.979M0,0.863C-3.777,0.863 -6.855,-2.21 -6.855,-5.987C-6.855,-9.765 -3.777,-12.842 0,-12.842C3.777,-12.842 6.855,-9.765 6.855,-5.987C6.855,-2.21 3.777,0.863 0,0.863" style="fill:rgb(34,31,31);fill-rule:nonzero;"/>
            </g>
            <g transform="matrix(4.16667,0,0,4.16667,2892.57,6987.21)">
                <path d="M0,-15.224L6.997,-15.224C8.524,-15.224 9.662,-14.821 10.424,-14.006C11.181,-13.196 11.562,-12.04 11.562,-10.543C11.562,-9.002 11.146,-7.798 10.318,-6.934C9.494,-6.066 8.228,-5.632 6.527,-5.632L4.22,-5.632L4.22,-0L0,-0L0,-15.224ZM4.22,-8.719L5.256,-8.719C6.076,-8.719 6.651,-8.878 6.979,-9.193C7.307,-9.507 7.475,-9.91 7.475,-10.402C7.475,-10.884 7.329,-11.287 7.041,-11.619C6.757,-11.951 6.217,-12.12 5.425,-12.12L4.22,-12.12L4.22,-8.719ZM12.421,-15.224L16.818,-15.224L19.883,-4.264L22.907,-15.224L27.176,-15.224L22.124,-0L17.567,-0L12.421,-15.224ZM36.967,-6.23L40.656,-4.986C40.408,-3.83 40.018,-2.86 39.482,-2.09C38.951,-1.315 38.291,-0.726 37.498,-0.336C36.71,0.058 35.705,0.257 34.483,0.257C32.999,0.257 31.79,0.018 30.852,-0.46C29.913,-0.943 29.107,-1.793 28.425,-3.002C27.743,-4.206 27.398,-5.761 27.398,-7.647C27.398,-10.162 28,-12.098 29.195,-13.453C30.4,-14.803 32.092,-15.481 34.288,-15.481C36.002,-15.481 37.352,-15.091 38.335,-14.316C39.314,-13.541 40.045,-12.35 40.523,-10.742L36.812,-9.822C36.684,-10.282 36.546,-10.619 36.405,-10.831C36.166,-11.19 35.878,-11.469 35.537,-11.659C35.196,-11.854 34.815,-11.947 34.394,-11.947C33.438,-11.947 32.707,-11.522 32.198,-10.667C31.813,-10.03 31.622,-9.033 31.622,-7.674C31.622,-5.987 31.848,-4.835 32.309,-4.206C32.769,-3.586 33.411,-3.272 34.244,-3.272C35.05,-3.272 35.656,-3.524 36.068,-4.029C36.48,-4.534 36.777,-5.269 36.967,-6.23M49.047,-15.224L59.449,-15.224L59.449,-11.947L53.268,-11.947L53.268,-9.29L58.555,-9.29L58.555,-6.208L53.268,-6.208L53.268,-0L49.047,-0L49.047,-15.224ZM60.357,-5.486C60.357,-7.173 60.866,-8.559 61.881,-9.653C62.895,-10.742 64.263,-11.292 65.985,-11.292C67.961,-11.292 69.453,-10.65 70.458,-9.365C71.268,-8.329 71.671,-7.058 71.671,-5.548C71.671,-3.848 71.171,-2.457 70.166,-1.368C69.165,-0.283 67.77,0.257 65.999,0.257C64.413,0.257 63.134,-0.194 62.159,-1.098C60.959,-2.214 60.357,-3.675 60.357,-5.486M64.143,-5.491C64.143,-4.503 64.32,-3.772 64.675,-3.303C65.029,-2.829 65.472,-2.59 66.012,-2.59C66.557,-2.59 67,-2.825 67.345,-3.29C67.695,-3.755 67.872,-4.503 67.872,-5.53C67.872,-6.491 67.695,-7.204 67.345,-7.674C66.991,-8.143 66.557,-8.378 66.039,-8.378C65.49,-8.378 65.038,-8.139 64.679,-7.665C64.32,-7.187 64.143,-6.46 64.143,-5.491M76.959,-7.461L73.345,-7.886C73.483,-8.595 73.677,-9.153 73.934,-9.556C74.191,-9.963 74.559,-10.313 75.046,-10.614C75.391,-10.831 75.865,-10.995 76.472,-11.115C77.078,-11.23 77.734,-11.292 78.442,-11.292C79.571,-11.292 80.479,-11.221 81.166,-11.079C81.852,-10.937 82.423,-10.636 82.879,-10.189C83.203,-9.875 83.459,-9.432 83.641,-8.861C83.827,-8.289 83.92,-7.745 83.92,-7.226L83.92,-2.347C83.92,-1.828 83.947,-1.421 84.009,-1.124C84.066,-0.832 84.195,-0.456 84.394,-0L80.851,-0C80.709,-0.283 80.616,-0.495 80.572,-0.642C80.532,-0.792 80.488,-1.023 80.444,-1.337C79.948,-0.806 79.456,-0.425 78.965,-0.199C78.296,0.107 77.521,0.257 76.635,0.257C75.462,0.257 74.567,-0.048 73.956,-0.659C73.345,-1.271 73.044,-2.023 73.044,-2.918C73.044,-3.759 73.261,-4.45 73.7,-4.99C74.142,-5.535 74.953,-5.938 76.135,-6.199C77.552,-6.518 78.473,-6.744 78.894,-6.872C79.315,-7.001 79.762,-7.169 80.231,-7.377C80.231,-7.9 80.134,-8.258 79.943,-8.466C79.753,-8.679 79.416,-8.781 78.934,-8.781C78.318,-8.781 77.853,-8.67 77.543,-8.449C77.304,-8.272 77.109,-7.944 76.959,-7.461M80.231,-5.251C79.713,-5.043 79.168,-4.857 78.602,-4.693C77.836,-4.463 77.348,-4.237 77.145,-4.012C76.932,-3.781 76.826,-3.52 76.826,-3.228C76.826,-2.891 76.932,-2.612 77.136,-2.4C77.348,-2.187 77.65,-2.081 78.052,-2.081C78.473,-2.081 78.867,-2.2 79.23,-2.431C79.594,-2.661 79.85,-2.94 80.001,-3.272C80.156,-3.604 80.231,-4.038 80.231,-4.57L80.231,-5.251ZM86.223,-11.035L89.748,-11.035L89.748,-9.427C90.252,-10.1 90.766,-10.583 91.284,-10.867C91.798,-11.15 92.422,-11.292 93.157,-11.292C93.941,-11.292 94.561,-11.132 95.022,-10.822C95.482,-10.508 95.854,-10.047 96.146,-9.427C96.74,-10.149 97.28,-10.641 97.767,-10.902C98.254,-11.159 98.857,-11.292 99.574,-11.292C100.628,-11.292 101.451,-10.937 102.045,-10.233C102.638,-9.534 102.935,-8.431 102.935,-6.934L102.935,-0L99.153,-0L99.153,-6.301C99.153,-6.806 99.065,-7.178 98.892,-7.421C98.644,-7.802 98.325,-7.993 97.953,-7.993C97.506,-7.993 97.147,-7.811 96.877,-7.452C96.607,-7.089 96.47,-6.509 96.47,-5.712L96.47,-0L92.688,-0L92.688,-6.08C92.688,-6.567 92.661,-6.894 92.613,-7.067C92.533,-7.346 92.391,-7.568 92.192,-7.74C91.997,-7.908 91.762,-7.993 91.497,-7.993C91.063,-7.993 90.704,-7.811 90.425,-7.443C90.146,-7.076 90.004,-6.474 90.004,-5.632L90.004,-0L86.223,-0L86.223,-11.035ZM111.809,-15.224L119.691,-15.224C121.002,-15.224 122.012,-14.861 122.712,-14.13C123.416,-13.404 123.77,-12.505 123.77,-11.433C123.77,-10.53 123.518,-9.759 123.013,-9.117C122.681,-8.683 122.189,-8.347 121.547,-8.094C122.526,-7.833 123.243,-7.386 123.703,-6.744C124.164,-6.102 124.399,-5.296 124.399,-4.33C124.399,-3.538 124.23,-2.829 123.907,-2.2C123.575,-1.567 123.128,-1.071 122.557,-0.704C122.202,-0.478 121.671,-0.31 120.958,-0.208C120.01,-0.07 119.382,-0 119.072,-0L111.809,-0L111.809,-15.224ZM116.047,-9.25L117.885,-9.25C118.54,-9.25 119.001,-9.374 119.258,-9.627C119.514,-9.883 119.643,-10.247 119.643,-10.725C119.643,-11.168 119.514,-11.518 119.258,-11.765C119.001,-12.018 118.549,-12.142 117.911,-12.142L116.047,-12.142L116.047,-9.25ZM116.047,-3.272L118.195,-3.272C118.921,-3.272 119.43,-3.418 119.727,-3.706C120.028,-3.994 120.174,-4.375 120.174,-4.862C120.174,-5.309 120.028,-5.672 119.736,-5.947C119.439,-6.217 118.921,-6.354 118.186,-6.354L116.047,-6.354L116.047,-3.272ZM125.878,-5.486C125.878,-7.173 126.383,-8.559 127.397,-9.653C128.411,-10.742 129.784,-11.292 131.506,-11.292C133.481,-11.292 134.969,-10.65 135.979,-9.365C136.785,-8.329 137.192,-7.058 137.192,-5.548C137.192,-3.848 136.692,-2.457 135.686,-1.368C134.681,-0.283 133.291,0.257 131.515,0.257C129.934,0.257 128.654,-0.194 127.676,-1.098C126.476,-2.214 125.878,-3.675 125.878,-5.486M129.66,-5.491C129.66,-4.503 129.837,-3.772 130.195,-3.303C130.55,-2.829 130.992,-2.59 131.533,-2.59C132.073,-2.59 132.516,-2.825 132.866,-3.29C133.215,-3.755 133.388,-4.503 133.388,-5.53C133.388,-6.491 133.215,-7.204 132.861,-7.674C132.511,-8.143 132.077,-8.378 131.555,-8.378C131.01,-8.378 130.554,-8.139 130.195,-7.665C129.837,-7.187 129.66,-6.46 129.66,-5.491M142.479,-7.461L138.866,-7.886C139.003,-8.595 139.198,-9.153 139.455,-9.556C139.712,-9.963 140.079,-10.313 140.562,-10.614C140.907,-10.831 141.386,-10.995 141.992,-11.115C142.594,-11.23 143.25,-11.292 143.958,-11.292C145.088,-11.292 145.995,-11.221 146.686,-11.079C147.368,-10.937 147.944,-10.636 148.4,-10.189C148.723,-9.875 148.976,-9.432 149.157,-8.861C149.348,-8.289 149.436,-7.745 149.436,-7.226L149.436,-2.347C149.436,-1.828 149.467,-1.421 149.529,-1.124C149.582,-0.832 149.715,-0.456 149.91,-0L146.372,-0C146.226,-0.283 146.137,-0.495 146.093,-0.642C146.048,-0.792 146.004,-1.023 145.96,-1.337C145.468,-0.806 144.977,-0.425 144.485,-0.199C143.817,0.107 143.037,0.257 142.156,0.257C140.978,0.257 140.084,-0.048 139.477,-0.659C138.866,-1.271 138.56,-2.023 138.56,-2.918C138.56,-3.759 138.777,-4.45 139.22,-4.99C139.659,-5.535 140.473,-5.938 141.656,-6.199C143.073,-6.518 143.989,-6.744 144.41,-6.872C144.835,-7.001 145.278,-7.169 145.747,-7.377C145.747,-7.9 145.654,-8.258 145.46,-8.466C145.269,-8.679 144.933,-8.781 144.454,-8.781C143.834,-8.781 143.374,-8.67 143.059,-8.449C142.82,-8.272 142.625,-7.944 142.479,-7.461M145.747,-5.251C145.229,-5.043 144.689,-4.857 144.122,-4.693C143.352,-4.463 142.865,-4.237 142.661,-4.012C142.448,-3.781 142.346,-3.52 142.346,-3.228C142.346,-2.891 142.448,-2.612 142.656,-2.4C142.865,-2.187 143.17,-2.081 143.573,-2.081C143.994,-2.081 144.388,-2.2 144.751,-2.431C145.11,-2.661 145.367,-2.94 145.522,-3.272C145.672,-3.604 145.747,-4.038 145.747,-4.57L145.747,-5.251ZM151.739,-11.035L155.281,-11.035L155.281,-9.232C155.627,-10.016 155.977,-10.557 156.34,-10.849C156.703,-11.145 157.15,-11.292 157.682,-11.292C158.244,-11.292 158.855,-11.097 159.515,-10.707L158.346,-7.705C157.899,-7.913 157.544,-8.015 157.283,-8.015C156.787,-8.015 156.402,-7.784 156.127,-7.328C155.738,-6.682 155.543,-5.473 155.543,-3.706L155.543,-0L151.739,-0L151.739,-11.035ZM170.997,-15.224L170.997,-0L167.455,-0L167.455,-1.634C166.959,-0.938 166.507,-0.465 166.095,-0.221C165.555,0.098 164.948,0.257 164.28,0.257C162.938,0.257 161.911,-0.314 161.202,-1.456C160.494,-2.603 160.139,-3.994 160.139,-5.628C160.139,-7.461 160.529,-8.861 161.313,-9.835C162.097,-10.805 163.089,-11.292 164.297,-11.292C164.886,-11.292 165.418,-11.181 165.896,-10.96C166.379,-10.738 166.804,-10.406 167.176,-9.963L167.176,-15.224L170.997,-15.224ZM167.202,-5.557C167.202,-6.425 167.039,-7.076 166.711,-7.501C166.383,-7.931 165.971,-8.143 165.471,-8.143C165.032,-8.143 164.665,-7.935 164.368,-7.528C164.072,-7.12 163.921,-6.429 163.921,-5.464C163.921,-4.561 164.076,-3.901 164.381,-3.48C164.687,-3.055 165.068,-2.847 165.515,-2.847C165.998,-2.847 166.396,-3.06 166.72,-3.48C167.043,-3.905 167.202,-4.596 167.202,-5.557M172.631,-3.06L176.378,-3.445C176.533,-2.944 176.75,-2.59 177.029,-2.378C177.308,-2.165 177.68,-2.059 178.145,-2.059C178.649,-2.059 179.044,-2.183 179.323,-2.426C179.539,-2.603 179.65,-2.829 179.65,-3.099C179.65,-3.405 179.508,-3.64 179.221,-3.808C179.017,-3.923 178.477,-4.069 177.6,-4.242C176.285,-4.499 175.377,-4.738 174.863,-4.955C174.354,-5.172 173.924,-5.544 173.575,-6.062C173.225,-6.584 173.052,-7.173 173.052,-7.842C173.052,-8.568 173.238,-9.197 173.614,-9.72C173.991,-10.247 174.513,-10.641 175.173,-10.902C175.837,-11.159 176.723,-11.292 177.835,-11.292C179.008,-11.292 179.876,-11.19 180.434,-10.99C180.996,-10.787 181.461,-10.472 181.838,-10.052C182.21,-9.627 182.52,-9.055 182.768,-8.333L179.194,-7.953C179.101,-8.303 178.946,-8.559 178.729,-8.728C178.437,-8.949 178.078,-9.055 177.657,-9.055C177.232,-9.055 176.922,-8.971 176.728,-8.803C176.533,-8.63 176.435,-8.427 176.435,-8.183C176.435,-7.913 176.559,-7.709 176.803,-7.572C177.046,-7.43 177.587,-7.306 178.415,-7.195C179.672,-7.036 180.602,-6.815 181.218,-6.531C181.829,-6.248 182.298,-5.84 182.622,-5.314C182.949,-4.786 183.109,-4.206 183.109,-3.578C183.109,-2.94 182.94,-2.32 182.595,-1.718C182.25,-1.116 181.709,-0.637 180.97,-0.279C180.23,0.08 179.225,0.257 177.95,0.257C176.152,0.257 174.868,-0.03 174.102,-0.606C173.34,-1.182 172.848,-2.001 172.631,-3.06" style="fill:rgb(89,89,92);fill-rule:nonzero;"/>
            </g>
            <g transform="matrix(-4.16667,0,0,4.16667,7410.73,6075.8)">
                <rect x="885.191" y="211.521" width="8.192" height="1.727" style="fill:rgb(89,89,92);"/>
            </g>
            <g transform="matrix(4.16667,0,0,4.16667,3749.56,6988.22)">
                <path d="M0,-15.109L11.544,-15.109L11.544,-11.863L4.689,-11.863L4.689,-9.224L10.544,-9.224L10.544,-6.173L4.689,-6.173L4.689,0L0,0L0,-15.109Z" style="fill:rgb(89,89,92);fill-rule:nonzero;"/>
            </g>
            <g transform="matrix(4.16667,0,0,4.16667,3846.9,6989.29)">
                <path d="M0,-15.366L4.658,-15.366L4.658,-6.363C4.658,-5.473 4.521,-4.627 4.242,-3.839C3.963,-3.042 3.525,-2.351 2.931,-1.753C2.338,-1.16 1.714,-0.744 1.063,-0.505C0.155,-0.168 -0.934,0 -2.205,0C-2.94,0 -3.742,-0.053 -4.61,-0.155C-5.482,-0.257 -6.208,-0.46 -6.793,-0.766C-7.378,-1.071 -7.909,-1.506 -8.396,-2.068C-8.879,-2.635 -9.211,-3.215 -9.388,-3.808C-9.676,-4.773 -9.822,-5.624 -9.822,-6.363L-9.822,-15.366L-5.163,-15.366L-5.163,-6.151C-5.163,-5.327 -4.933,-4.68 -4.477,-4.22C-4.021,-3.755 -3.388,-3.525 -2.577,-3.525C-1.771,-3.525 -1.143,-3.755 -0.686,-4.211C-0.23,-4.663 0,-5.314 0,-6.151L0,-15.366Z" style="fill:rgb(89,89,92);fill-rule:nonzero;"/>
            </g>
            <g transform="matrix(4.16667,0,0,4.16667,3877,6988.22)">
                <path d="M0,-15.109L4.667,-15.109L4.667,-3.719L11.956,-3.719L11.956,0L0,0L0,-15.109Z" style="fill:rgb(89,89,92);fill-rule:nonzero;"/>
            </g>
            <g transform="matrix(4.16667,0,0,4.16667,3933.45,6988.22)">
                <path d="M0,-15.109L4.667,-15.109L4.667,-3.719L11.956,-3.719L11.956,0L0,0L0,-15.109Z" style="fill:rgb(89,89,92);fill-rule:nonzero;"/>
            </g>
            <g transform="matrix(4.16667,0,0,4.16667,4017.13,6988.22)">
                <path d="M0,-15.109L4.667,-15.109L4.667,-9.822L9.769,-9.822L9.769,-15.109L14.458,-15.109L14.458,0L9.769,0L9.769,-6.111L4.667,-6.111L4.667,0L0,0L0,-15.109Z" style="fill:rgb(89,89,92);fill-rule:nonzero;"/>
            </g>
            <g transform="matrix(4.16667,0,0,4.16667,4107.81,6973.95)">
                <path d="M0,-8.263L0,-0.009L1.143,-0.009C2.121,-0.009 2.812,-0.115 3.224,-0.332C3.64,-0.549 3.959,-0.925 4.194,-1.466C4.428,-2.006 4.543,-2.878 4.543,-4.087C4.543,-5.69 4.282,-6.784 3.76,-7.377C3.242,-7.966 2.373,-8.263 1.165,-8.263L0,-8.263ZM-4.667,-11.686L2.267,-11.686C3.636,-11.686 4.738,-11.5 5.58,-11.128C6.421,-10.756 7.116,-10.225 7.67,-9.529C8.219,-8.839 8.617,-8.028 8.861,-7.107C9.109,-6.186 9.233,-5.212 9.233,-4.18C9.233,-2.568 9.051,-1.315 8.684,-0.425C8.316,0.465 7.807,1.209 7.152,1.811C6.501,2.414 5.797,2.812 5.048,3.011C4.025,3.286 3.1,3.423 2.267,3.423L-4.667,3.423L-4.667,-11.686Z" style="fill:rgb(89,89,92);fill-rule:nonzero;"/>
            </g>
        </g>
    </g>
</svg>