<?xml version="1.0" encoding="UTF-8" standalone="no"?>
<!DOCTYPE svg PUBLIC "-//W3C//DTD SVG 1.1//EN" "http://www.w3.org/Graphics/SVG/1.1/DTD/svg11.dtd">
<svg width="100%" height="100%" viewBox="0 0 2084 1321" version="1.1" xmlns="http://www.w3.org/2000/svg" xmlns:xlink="http://www.w3.org/1999/xlink" xml:space="preserve" xmlns:serif="http://www.serif.com/" style="fill-rule:evenodd;clip-rule:evenodd;stroke-linejoin:round;stroke-miterlimit:2;">
    <g transform="matrix(1,0,0,1,-472.283,-411.921)">
        <g>
            <g transform="matrix(-4.16667,0,0,4.16667,3027.9,-5700.99)">
                <rect x="113.348" y="1467.1" width="500" height="317" style="fill:rgb(64,80,160);"/>
            </g>
            <g transform="matrix(4.16667,0,0,4.16667,1702.46,1268.1)">
                <path d="M0,-12.032L-17.574,-12.032L-17.574,-31.382L-30.619,-31.382L-30.619,19.35L-17.574,19.35L-17.574,-1.089L0,-1.089L0,19.35L13.046,19.35L13.046,-31.382L0,-31.382L0,-12.032ZM29.861,-31.382L16.815,-31.382L16.815,19.35L49.537,19.35L49.537,8.372L29.861,8.372L29.861,-31.382ZM132.886,-31.382L132.886,-3.443L116.071,-31.382L102.554,-31.382L102.554,19.35L115.163,19.35L115.163,-9.748L132.666,19.35L145.496,19.35L145.496,-31.382L132.886,-31.382ZM-72.512,-20.404L-59.722,-20.404L-59.722,19.35L-46.676,19.35L-46.676,-20.404L-33.882,-20.404L-33.882,-31.382L-72.512,-31.382L-72.512,-20.404ZM73.962,8.698C66.423,8.698 61.675,3.659 61.675,-6.018C61.675,-15.691 66.423,-20.73 73.962,-20.73C81.537,-20.73 86.245,-15.691 86.245,-6.018C86.245,3.659 81.537,8.698 73.962,8.698M73.962,-32.396C58.633,-32.396 48.343,-21.996 48.343,-6.018C48.343,9.964 58.633,20.364 73.962,20.364C89.327,20.364 99.582,9.964 99.582,-6.018C99.582,-21.996 89.327,-32.396 73.962,-32.396M-217.104,8.333L-222.937,8.333L-222.937,-20.404L-217.104,-20.404C-209.565,-20.404 -205.324,-15.074 -205.324,-6.018C-205.324,3.007 -209.565,8.333 -217.104,8.333M-216.923,-31.382L-235.983,-31.382L-235.983,19.35L-216.923,19.35C-201.81,19.35 -192.062,9.386 -192.062,-6.018C-192.062,-21.418 -201.81,-31.382 -216.923,-31.382M-88.745,-0.036L-100.235,-0.036L-88.745,-18.698L-88.745,-0.036ZM-112.267,-2.5C-117.231,5.401 -122.05,8.698 -128.249,8.698C-136.29,8.698 -140.968,3.042 -140.968,-6.777C-140.968,-16.092 -136.652,-20.73 -130.021,-20.73C-125.638,-20.73 -122.015,-18.773 -120.89,-12.248L-107.845,-12.248C-109.26,-24.681 -117.196,-32.396 -129.875,-32.396C-144.592,-32.396 -154.265,-21.996 -154.265,-6.053C-154.265,9.999 -144.592,20.364 -128.681,20.364C-118.28,20.364 -111.217,16.017 -106.54,10.145L-88.745,10.145L-88.745,19.35L-75.775,19.35L-75.775,-31.382L-94.181,-31.382L-112.267,-2.5ZM-189.09,19.35L-154.812,19.35L-154.812,8.333L-176.045,8.333L-176.045,-0.908L-157.236,-0.908L-157.236,-11.163L-176.045,-11.163L-176.045,-20.404L-154.812,-20.404L-154.812,-31.382L-189.09,-31.382L-189.09,19.35Z" style="fill:white;fill-rule:nonzero;"/>
            </g>
            <g transform="matrix(4.16667,0,0,4.16667,1599.86,1057.84)">
                <path d="M0,-72.477C-28.327,-72.477 -63.567,-43.167 -63.567,-18.874C-63.567,-6.327 -53.929,0 -41.201,0C-31.858,0 -20.545,-3.417 -9.638,-9.999L-9.638,-58.474C-12.548,-53.492 -26.219,-33.419 -37.202,-22.728C-42.801,-17.274 -47.241,-14.911 -51.059,-14.911C-55.349,-14.911 -57.386,-17.821 -57.386,-22.146C-57.386,-41.783 -24.328,-67.314 -2.438,-67.314C6.582,-67.314 12.402,-63.311 12.402,-55.529C12.402,-48.405 7.565,-39.459 -0.692,-31.201L-0.692,-16.185C13.711,-27.564 22.33,-42.074 22.33,-53.783C22.33,-66.115 12.728,-72.477 0,-72.477" style="fill:white;fill-rule:nonzero;"/>
            </g>
        </g>
    </g>
</svg>
