<?xml version="1.0" encoding="UTF-8" standalone="no"?>
<!DOCTYPE svg PUBLIC "-//W3C//DTD SVG 1.1//EN" "http://www.w3.org/Graphics/SVG/1.1/DTD/svg11.dtd">
<svg width="100%" height="100%" viewBox="0 0 2084 1321" version="1.1" xmlns="http://www.w3.org/2000/svg" xmlns:xlink="http://www.w3.org/1999/xlink" xml:space="preserve" xmlns:serif="http://www.serif.com/" style="fill-rule:evenodd;clip-rule:evenodd;stroke-linejoin:round;stroke-miterlimit:2;">
    <g transform="matrix(1,0,0,1,-6972.28,-1833.66)">
        <g>
            <g transform="matrix(-4.16667,0,0,4.16667,16027.9,-2857.51)">
                <rect x="1673.35" y="1125.88" width="500" height="317" style="fill:rgb(33,106,125);"/>
            </g>
            <g transform="matrix(4.16667,0,0,4.16667,7249.92,2516.46)">
                <path d="M0,-0.087C-0.156,28.247 22.815,52.211 52.254,52.209C81.478,52.206 104.207,28.664 104.513,0.566C104.828,-28.317 81.693,-52.28 52.28,-52.282C22.705,-52.285 -0.11,-28.25 0,-0.087M53.074,-58.121C53.326,-57.986 53.601,-58.012 53.87,-58.007C60.846,-57.867 67.559,-56.433 74.017,-53.827C79.89,-51.456 85.223,-48.187 90.033,-44.058C96.509,-38.499 101.507,-31.832 105.065,-24.087C107.446,-18.905 109.005,-13.48 109.752,-7.822C110.156,-4.765 110.373,-1.697 110.28,1.383C110.054,8.795 108.547,15.933 105.625,22.763C103.242,28.334 100.054,33.404 96.094,37.981C91.785,42.961 86.756,47.084 81.036,50.354C76.476,52.962 71.655,54.937 66.558,56.217C63.449,56.998 60.298,57.547 57.094,57.785C55.424,57.909 53.751,58.034 52.079,58.014C44.996,57.929 38.121,56.713 31.493,54.159C25.931,52.016 20.811,49.101 16.154,45.392C10.069,40.546 5.135,34.717 1.379,27.895C-1.959,21.833 -4.126,15.38 -5.165,8.543C-5.469,6.546 -5.608,4.532 -5.761,2.52C-5.782,2.25 -5.775,1.976 -5.917,1.731L-5.917,-1.816C-5.789,-2.037 -5.785,-2.284 -5.764,-2.53C-5.625,-4.196 -5.541,-5.868 -5.318,-7.527C-4.362,-14.652 -2.208,-21.384 1.237,-27.705C4.803,-34.246 9.452,-39.897 15.171,-44.661C19.821,-48.536 24.962,-51.611 30.584,-53.86C37.047,-56.446 43.754,-57.878 50.726,-58.008C50.972,-58.012 51.221,-57.998 51.448,-58.121L53.074,-58.121Z" style="fill:white;fill-rule:nonzero;"/>
            </g>
            <g transform="matrix(4.16667,0,0,4.16667,8165.34,2596.9)">
                <path d="M0,39.324C-0.939,39.133 -1.886,38.972 -2.816,38.746C-6.221,37.916 -9.199,36.298 -11.662,33.795C-14.35,31.064 -15.99,27.767 -16.679,24.017C-17.382,20.194 -17.221,16.405 -15.812,12.745C-13.471,6.667 -9.172,2.673 -2.903,0.845C-0.192,0.055 2.581,0 5.374,0.253C8.08,0.498 10.656,1.175 13.06,2.463C14.368,3.163 15.582,4.002 16.719,4.952C17.151,5.314 17.146,5.355 16.795,5.778C15.647,7.16 14.497,8.541 13.342,9.919C12.916,10.428 12.819,10.433 12.261,9.979C10.936,8.9 9.526,7.952 7.912,7.362C5.169,6.358 2.357,6.064 -0.511,6.734C-2.421,7.181 -4.077,8.115 -5.528,9.439C-8.086,11.773 -9.491,14.698 -9.837,18.1C-10.157,21.251 -9.701,24.301 -8.094,27.093C-6.252,30.291 -3.481,32.253 0.133,32.918C3.819,33.596 7.337,32.994 10.634,31.187C10.785,31.105 10.928,31.005 11.083,30.932C11.739,30.62 11.973,30.126 11.951,29.388C11.901,27.715 11.938,26.04 11.934,24.365C11.932,23.423 11.91,23.4 10.988,23.398C8.475,23.395 5.962,23.397 3.449,23.397C3.252,23.397 3.055,23.403 2.858,23.392C2.338,23.362 2.223,23.284 2.218,22.794C2.2,21.218 2.201,19.642 2.216,18.066C2.221,17.567 2.329,17.491 2.846,17.454C2.993,17.444 3.141,17.449 3.289,17.449C7.994,17.449 12.7,17.448 17.405,17.449C18.498,17.449 18.5,17.453 18.5,18.57C18.501,23.225 18.489,27.879 18.512,32.533C18.516,33.21 18.319,33.663 17.769,34.089C14.207,36.854 10.231,38.62 5.746,39.206C5.602,39.225 5.464,39.284 5.323,39.324L0,39.324Z" style="fill:white;fill-rule:nonzero;"/>
            </g>
            <g transform="matrix(4.16667,0,0,4.16667,8804.17,2600.09)">
                <path d="M0,37.966C-0.296,37.972 -0.591,37.985 -0.887,37.985C-9.067,37.986 -17.247,37.986 -25.427,37.985C-26.623,37.985 -26.625,37.984 -26.625,36.819L-26.625,1.133C-26.625,-0.015 -26.623,-0.017 -25.484,-0.018C-23.932,-0.019 -22.38,-0.02 -20.827,-0.017C-19.815,-0.015 -19.793,0.005 -19.793,1.017C-19.792,10.597 -19.793,20.177 -19.792,29.758C-19.792,30.226 -19.805,30.694 -19.785,31.161C-19.765,31.638 -19.683,31.714 -19.218,31.748C-18.973,31.765 -18.726,31.755 -18.479,31.755C-12.32,31.757 -6.16,31.758 0,31.759L0,37.966Z" style="fill:white;fill-rule:nonzero;"/>
            </g>
            <g transform="matrix(4.16667,0,0,4.16667,8734.11,2417.08)">
                <path d="M0,-13.399C-0.316,-12.456 -0.599,-11.619 -0.877,-10.78C-2.927,-4.585 -4.976,1.611 -7.025,7.808C-8.323,11.736 -9.62,15.665 -10.917,19.593C-10.979,19.78 -11.049,19.965 -11.105,20.153C-11.212,20.509 -11.457,20.672 -11.817,20.682C-11.965,20.686 -12.113,20.693 -12.26,20.694C-14.7,20.694 -17.139,20.696 -19.578,20.693C-20.481,20.691 -20.501,20.692 -20.794,19.835C-21.686,17.225 -22.557,14.608 -23.441,11.995C-25.738,5.207 -28.037,-1.581 -30.336,-8.368C-30.81,-9.768 -31.287,-11.166 -31.769,-12.563C-31.84,-12.768 -31.867,-12.997 -32.047,-13.192C-32.248,-13.122 -32.218,-12.932 -32.243,-12.782C-33.981,-2.465 -35.718,7.853 -37.455,18.171C-37.549,18.729 -37.646,19.287 -37.748,19.844C-37.886,20.604 -37.975,20.682 -38.772,20.691C-39.585,20.701 -40.399,20.694 -41.212,20.694L-46.83,20.694C-46.953,20.694 -47.076,20.695 -47.199,20.694C-48.176,20.687 -48.219,20.632 -48.055,19.684C-47.294,15.293 -46.533,10.903 -45.776,6.512C-44.733,0.471 -43.694,-5.571 -42.653,-11.612C-41.42,-18.769 -40.188,-25.926 -38.955,-33.083C-38.93,-33.229 -38.908,-33.375 -38.878,-33.519C-38.814,-33.821 -38.642,-33.998 -38.318,-33.999C-38.17,-33.999 -38.022,-34.007 -37.874,-34.007C-35.065,-34.008 -32.257,-34.009 -29.448,-34.007C-28.541,-34.006 -28.537,-34.002 -28.25,-33.144C-26.652,-28.355 -25.059,-23.564 -23.458,-18.776C-21.053,-11.583 -18.643,-4.391 -16.23,2.8C-16.148,3.044 -16.123,3.326 -15.875,3.549C-15.646,3.268 -15.593,2.95 -15.495,2.657C-11.546,-9.188 -7.6,-21.035 -3.654,-32.882C-3.248,-34.1 -3.346,-34.005 -2.128,-34.007C0.533,-34.01 3.194,-34.01 5.855,-34.006C6.706,-34.005 6.755,-33.967 6.897,-33.12C7.601,-28.92 8.296,-24.718 9,-20.517C10.061,-14.18 11.127,-7.844 12.188,-1.506C13.099,3.932 14.005,9.372 14.915,14.811C15.183,16.414 15.458,18.015 15.729,19.617C15.75,19.739 15.776,19.859 15.79,19.981C15.858,20.584 15.792,20.686 15.178,20.688C12.32,20.697 9.461,20.698 6.603,20.686C5.956,20.683 5.861,20.57 5.735,19.836C5.331,17.482 4.933,15.127 4.534,12.773C3.621,7.384 2.708,1.996 1.795,-3.393C1.273,-6.475 0.749,-9.558 0.227,-12.64C0.19,-12.857 0.174,-13.08 0,-13.399" style="fill:white;fill-rule:nonzero;"/>
            </g>
            <g transform="matrix(4.16667,0,0,4.16667,8035.22,2389.5)">
                <path d="M0,-0.08L0,-26.163C0,-27.387 0.001,-27.388 1.208,-27.388C4.018,-27.389 6.827,-27.389 9.636,-27.389C9.833,-27.388 10.031,-27.396 10.227,-27.382C10.688,-27.347 10.77,-27.27 10.809,-26.798C10.83,-26.553 10.819,-26.306 10.819,-26.06C10.82,-19.459 10.819,-12.858 10.82,-6.257C10.82,-5.075 10.821,-5.074 11.988,-5.074C17.828,-5.073 23.668,-5.073 29.508,-5.074C30.61,-5.074 30.612,-5.075 30.612,-6.159C30.613,-12.834 30.612,-19.508 30.613,-26.183C30.613,-27.388 30.614,-27.389 31.84,-27.389L39.898,-27.389C40.095,-27.389 40.292,-27.395 40.489,-27.384C41.041,-27.354 41.118,-27.278 41.149,-26.727C41.161,-26.506 41.154,-26.284 41.154,-26.062L41.154,25.957C41.154,27.312 41.154,27.313 39.828,27.313C37.118,27.314 34.407,27.316 31.697,27.312C30.649,27.311 30.613,27.274 30.613,26.235C30.612,19.56 30.613,12.885 30.612,6.21C30.612,4.999 30.611,4.998 29.396,4.998L12.024,4.998C10.821,4.998 10.82,5 10.82,6.237C10.819,12.838 10.82,19.439 10.819,26.04C10.819,27.311 10.818,27.313 9.557,27.313C6.772,27.314 3.988,27.313 1.204,27.313C1.13,27.313 1.056,27.314 0.982,27.313C0.034,27.303 0.001,27.273 0.001,26.299C0,17.506 0,8.713 0,-0.08" style="fill:white;fill-rule:nonzero;"/>
            </g>
            <g transform="matrix(4.16667,0,0,4.16667,7836.85,2389.27)">
                <path d="M0,-0.014L0,-26.023C0,-27.384 -0.066,-27.333 1.272,-27.333C11.399,-27.332 21.526,-27.332 31.653,-27.332C32.88,-27.332 32.88,-27.331 32.881,-26.127C32.882,-23.492 32.881,-20.857 32.881,-18.221C32.881,-18.024 32.874,-17.827 32.874,-17.63C32.874,-17.273 32.711,-17.077 32.34,-17.076C32.094,-17.076 31.847,-17.069 31.601,-17.069C24.874,-17.068 18.147,-17.069 11.421,-17.068C10.278,-17.068 10.276,-17.066 10.276,-15.928C10.275,-12.677 10.276,-9.426 10.276,-6.175C10.276,-6.027 10.272,-5.879 10.278,-5.732C10.304,-5.121 10.372,-5.048 10.959,-5.021C11.18,-5.01 11.402,-5.017 11.624,-5.017L31.73,-5.017C32.878,-5.016 32.88,-5.014 32.881,-3.882C32.882,-1.296 32.881,1.29 32.881,3.876C32.881,4.073 32.873,4.27 32.874,4.467C32.877,4.828 32.692,5.015 32.339,5.034C32.068,5.049 31.797,5.053 31.526,5.054L11.346,5.054C10.279,5.058 10.276,5.058 10.276,6.116C10.275,9.416 10.276,12.717 10.276,16.017C10.276,16.14 10.272,16.264 10.279,16.386C10.308,16.924 10.361,16.982 10.877,17.012C11.098,17.025 11.32,17.017 11.542,17.017L31.722,17.017C32.878,17.017 32.88,17.019 32.881,18.144C32.882,20.829 32.881,23.514 32.881,26.198C32.881,26.395 32.873,26.592 32.874,26.789C32.875,27.153 32.682,27.331 32.332,27.351C32.111,27.364 31.889,27.369 31.667,27.369C21.491,27.37 11.315,27.37 1.138,27.37C1.089,27.37 1.04,27.37 0.991,27.369C0.035,27.36 0.001,27.33 0.001,26.364C0,17.571 0,8.779 0,-0.014" style="fill:white;fill-rule:nonzero;"/>
            </g>
            <g transform="matrix(4.16667,0,0,4.16667,8407.42,2458.36)">
                <path d="M0,-33.104C0.286,-32.968 0.305,-32.727 0.382,-32.529C2.336,-27.503 4.287,-22.476 6.237,-17.449C7.955,-13.018 9.669,-8.586 11.386,-4.155C13.191,0.505 14.998,5.166 16.804,9.827C16.812,9.849 16.823,9.872 16.832,9.895C17.115,10.669 17.041,10.784 16.184,10.786C13.056,10.792 9.927,10.792 6.798,10.786C6.077,10.784 6.026,10.742 5.782,10.07C4.616,6.853 3.456,3.633 2.287,0.417C1.984,-0.419 1.972,-0.418 1.071,-0.418C-5.728,-0.419 -12.528,-0.419 -19.327,-0.418C-20.233,-0.418 -20.235,-0.415 -20.571,0.407C-21.865,3.575 -23.176,6.737 -24.437,9.918C-24.697,10.574 -25.049,10.811 -25.749,10.803C-28.655,10.769 -31.562,10.789 -34.469,10.789L-34.543,10.789C-35.544,10.779 -35.605,10.695 -35.256,9.79C-33.838,6.115 -32.417,2.441 -30.999,-1.235C-27.366,-10.653 -23.735,-20.073 -20.1,-29.491C-18.354,-34.016 -16.603,-38.54 -14.852,-43.063C-14.524,-43.909 -14.517,-43.911 -13.623,-43.912C-10.716,-43.915 -7.809,-43.915 -4.902,-43.912C-3.77,-43.911 -3.517,-43.523 -3.939,-42.434C-5.382,-38.716 -6.82,-34.995 -8.275,-31.281C-10.834,-24.747 -13.404,-18.217 -15.97,-11.686C-15.988,-11.64 -16.008,-11.595 -16.026,-11.549C-16.333,-10.747 -16.287,-10.672 -15.409,-10.671C-11.197,-10.668 -6.984,-10.669 -2.771,-10.669C-2.722,-10.669 -2.673,-10.669 -2.623,-10.67C-1.935,-10.693 -1.894,-10.745 -2.16,-11.413C-3.132,-13.861 -4.104,-16.31 -5.096,-18.751C-5.292,-19.235 -5.323,-19.669 -5.127,-20.169C-3.518,-24.271 -1.929,-28.382 -0.334,-32.491C-0.255,-32.695 -0.198,-32.912 0,-33.104" style="fill:white;fill-rule:nonzero;"/>
            </g>
            <g transform="matrix(4.16667,0,0,4.16667,7861.74,2678.99)">
                <path d="M0,0.057L0,11.656C0,11.878 0.007,12.099 0.008,12.321C0.01,12.659 0.192,12.81 0.517,12.814C0.64,12.815 0.763,12.821 0.886,12.821C3.129,12.82 5.371,12.815 7.613,12.819C9.382,12.823 11.097,12.522 12.745,11.887C16.056,10.612 18.364,8.323 19.607,4.99C20.563,2.428 20.676,-0.211 20.152,-2.863C19.569,-5.821 18.101,-8.274 15.682,-10.121C13.49,-11.795 10.967,-12.581 8.255,-12.686C5.721,-12.784 3.181,-12.721 0.643,-12.715C0.084,-12.714 0.027,-12.633 0.003,-12.059C-0.005,-11.863 0,-11.666 0,-11.469L0,0.057M-6.82,0.013L-6.82,-17.72C-6.819,-18.95 -6.817,-18.952 -5.59,-18.952C-1.155,-18.953 3.281,-18.996 7.715,-18.939C11.992,-18.885 16.01,-17.844 19.581,-15.402C23.918,-12.436 26.5,-8.329 27.334,-3.153C28.017,1.08 27.428,5.141 25.427,8.96C23.759,12.144 21.321,14.597 18.195,16.358C15.581,17.83 12.762,18.648 9.778,18.936C8.917,19.019 8.058,19.051 7.196,19.051C3.032,19.052 -1.132,19.052 -5.296,19.052C-5.469,19.052 -5.641,19.053 -5.813,19.051C-6.757,19.043 -6.818,18.992 -6.818,18.042C-6.821,12.032 -6.82,6.023 -6.82,0.013" style="fill:white;fill-rule:nonzero;"/>
            </g>
            <g transform="matrix(4.16667,0,0,4.16667,8573.72,2722.74)">
                <path d="M0,-21.189C-0.229,-20.964 -0.301,-20.696 -0.406,-20.452C-1.94,-16.883 -3.469,-13.311 -4.999,-9.74C-5.366,-8.881 -5.742,-8.026 -6.098,-7.162C-6.245,-6.804 -6.185,-6.724 -5.814,-6.687C-5.667,-6.672 -5.519,-6.68 -5.371,-6.68C-1.779,-6.68 1.813,-6.679 5.405,-6.681C6.378,-6.681 6.404,-6.716 6.014,-7.621C4.135,-11.979 2.252,-16.334 0.367,-20.69C0.292,-20.864 0.252,-21.071 0,-21.189M16.285,8.549C15.349,8.549 14.412,8.525 13.477,8.558C12.946,8.577 12.677,8.349 12.482,7.879C11.438,5.354 10.372,2.838 9.314,0.319C9.276,0.228 9.234,0.138 9.204,0.045C9.059,-0.413 8.767,-0.651 8.268,-0.6C8.122,-0.585 7.972,-0.599 7.825,-0.599L-7.766,-0.599C-7.84,-0.599 -7.916,-0.59 -7.988,-0.6C-8.592,-0.687 -8.938,-0.435 -9.162,0.141C-9.618,1.31 -10.137,2.454 -10.628,3.61C-11.216,4.992 -11.822,6.366 -12.379,7.76C-12.613,8.348 -12.959,8.577 -13.6,8.562C-15.323,8.525 -17.048,8.55 -18.772,8.549C-18.944,8.549 -19.118,8.548 -19.288,8.527C-19.499,8.501 -19.594,8.368 -19.527,8.162C-19.451,7.929 -19.359,7.7 -19.261,7.475C-17.318,3.032 -15.37,-1.41 -13.428,-5.853C-10.944,-11.537 -8.465,-17.223 -5.981,-22.908C-5.094,-24.938 -4.183,-26.958 -3.326,-29C-3.083,-29.577 -2.729,-29.758 -2.139,-29.748C-0.637,-29.722 0.866,-29.715 2.368,-29.751C2.998,-29.766 3.355,-29.552 3.604,-28.964C4.672,-26.449 5.775,-23.948 6.87,-21.445C9.208,-16.1 11.551,-10.757 13.889,-5.412C15.784,-1.082 17.677,3.248 19.567,7.58C19.949,8.457 19.892,8.543 18.945,8.548C18.058,8.553 17.171,8.549 16.285,8.549" style="fill:white;fill-rule:nonzero;"/>
            </g>
            <g transform="matrix(4.16667,0,0,4.16667,8436.96,2665.94)">
                <path d="M0,6.361C0,11.238 0.001,16.114 -0.001,20.991C-0.001,22.175 -0.01,22.182 -1.195,22.183C-2.722,22.184 -4.25,22.184 -5.778,22.183C-6.937,22.182 -6.939,22.181 -6.94,21.055C-6.942,19.429 -6.941,17.804 -6.941,16.178C-6.941,8.026 -6.94,-0.126 -6.941,-8.279C-6.941,-9.457 -6.942,-9.458 -8.119,-9.458C-11.273,-9.459 -14.427,-9.459 -17.581,-9.459C-17.778,-9.459 -17.975,-9.454 -18.172,-9.461C-18.818,-9.485 -18.915,-9.56 -18.919,-10.185C-18.931,-11.811 -18.931,-13.436 -18.92,-15.062C-18.916,-15.731 -18.829,-15.798 -18.131,-15.819C-17.983,-15.823 -17.835,-15.82 -17.687,-15.82C-8.225,-15.82 1.237,-15.821 10.698,-15.82C11.979,-15.82 11.98,-15.819 11.981,-14.567C11.982,-13.163 11.987,-11.759 11.978,-10.355C11.972,-9.553 11.884,-9.463 11.081,-9.462C7.755,-9.456 4.428,-9.46 1.102,-9.458C0.003,-9.458 0.001,-9.455 0,-8.343C-0.001,-3.441 0,1.46 0,6.361" style="fill:white;fill-rule:nonzero;"/>
            </g>
            <g transform="matrix(4.16667,0,0,4.16667,8049.63,2679.16)">
                <path d="M0,0.017L0,17.887C0,19.006 -0.003,19.008 -1.088,19.009C-2.714,19.011 -4.339,19.014 -5.964,19.007C-6.756,19.004 -6.81,18.944 -6.829,18.177C-6.832,18.029 -6.83,17.882 -6.83,17.734L-6.83,-17.636C-6.83,-18.993 -6.829,-18.993 -5.505,-18.994C-4.003,-18.994 -2.501,-18.997 -0.999,-18.993C-0.029,-18.99 -0.001,-18.964 -0.001,-18C0.001,-11.995 0,-5.989 0,0.017" style="fill:white;fill-rule:nonzero;"/>
            </g>
            <g transform="matrix(4.16667,0,0,4.16667,8289.61,2679.33)">
                <path d="M0,-0.059L0,-17.864C0,-19.032 0.002,-19.033 1.196,-19.034C2.773,-19.035 4.35,-19.039 5.927,-19.031C6.731,-19.027 6.809,-18.939 6.829,-18.141C6.833,-17.968 6.83,-17.796 6.83,-17.623L6.83,17.544C6.83,17.815 6.841,18.087 6.816,18.356C6.772,18.842 6.671,18.95 6.165,18.96C5.204,18.979 4.243,18.969 3.282,18.969C2.42,18.97 1.558,18.98 0.696,18.963C0.102,18.951 0.029,18.863 0.003,18.263C-0.006,18.042 0,17.82 0,17.598L0,-0.059" style="fill:white;fill-rule:nonzero;"/>
            </g>
            <g transform="matrix(4.16667,0,0,4.16667,7356.89,2615.12)">
                <path d="M0,-47.475C-0.121,-47.136 -0.071,-46.817 -0.071,-46.507C-0.073,-28.825 -0.073,-11.143 -0.073,6.539C-0.073,6.809 -0.068,7.08 -0.075,7.351C-0.099,8.219 -0.462,8.602 -1.343,8.64C-1.933,8.666 -2.526,8.65 -3.117,8.649C-3.585,8.649 -4.054,8.667 -4.521,8.638C-5.305,8.589 -5.674,8.204 -5.721,7.421C-5.736,7.176 -5.729,6.929 -5.729,6.683C-5.729,-13.585 -5.729,-33.853 -5.728,-54.121C-5.728,-54.392 -5.739,-54.664 -5.716,-54.933C-5.66,-55.604 -5.313,-56.025 -4.66,-56.047C-3.43,-56.089 -2.197,-56.065 -0.966,-56.052C-0.608,-56.048 -0.304,-55.869 -0.045,-55.627C0.171,-55.425 0.381,-55.217 0.59,-55.008C9.006,-46.598 17.421,-38.188 25.838,-29.779C26.648,-28.97 26.495,-28.993 27.297,-29.794C34.755,-37.245 42.212,-44.697 49.665,-52.154C50.675,-53.164 51.67,-54.189 52.65,-55.227C53.228,-55.839 53.887,-56.142 54.748,-56.089C55.632,-56.035 56.522,-56.09 57.408,-56.071C58.514,-56.049 58.85,-55.701 58.884,-54.591C58.891,-54.345 58.887,-54.099 58.887,-53.853C58.887,-33.708 58.887,-13.563 58.886,6.581C58.886,6.901 58.899,7.223 58.868,7.541C58.807,8.184 58.477,8.59 57.855,8.614C56.625,8.66 55.391,8.659 54.162,8.614C53.532,8.591 53.194,8.188 53.133,7.555C53.102,7.238 53.116,6.916 53.116,6.596C53.115,-11.086 53.115,-28.768 53.115,-46.45L53.115,-47.404C52.781,-47.486 52.679,-47.241 52.539,-47.103C51.261,-45.839 49.993,-44.566 48.722,-43.295C42.868,-37.444 37.015,-31.593 31.161,-25.742C30.481,-25.062 30.469,-25.15 31.181,-24.438C32.974,-22.644 34.772,-20.853 36.56,-19.053C36.743,-18.87 37.103,-18.699 36.995,-18.429C36.867,-18.107 36.473,-18.259 36.195,-18.253C34.74,-18.22 33.292,-18.282 31.848,-18.482C30.04,-18.733 28.434,-19.425 27.057,-20.617C26.516,-21.086 26.464,-21.032 25.967,-20.591C24.435,-19.23 22.591,-18.601 20.586,-18.393C19.36,-18.267 18.13,-18.213 16.897,-18.247C16.774,-18.25 16.65,-18.24 16.527,-18.251C16.341,-18.267 16.091,-18.192 16.02,-18.436C15.966,-18.619 16.156,-18.738 16.275,-18.857C18.137,-20.722 20.001,-22.585 21.865,-24.448C22.57,-25.151 22.545,-25.075 21.865,-25.755C14.792,-32.825 7.719,-39.895 0.643,-46.962C0.461,-47.145 0.312,-47.384 0,-47.475" style="fill:white;fill-rule:nonzero;"/>
            </g>
            <g transform="matrix(4.16658,-0.0266306,-0.0266306,-4.16658,7467.83,2571.78)">
                <path d="M-0.024,0C-2.095,0.007 -3.804,1.708 -3.792,3.75C-3.779,5.804 -2.084,7.54 -0.024,7.51C2.232,7.476 3.737,5.75 3.748,3.681C3.757,1.7 1.976,-0.007 -0.024,0" style="fill:white;fill-rule:nonzero;"/>
            </g>
        </g>
    </g>
</svg>
