<?xml version="1.0" encoding="UTF-8" standalone="no"?>
<!DOCTYPE svg PUBLIC "-//W3C//DTD SVG 1.1//EN" "http://www.w3.org/Graphics/SVG/1.1/DTD/svg11.dtd">
<svg width="100%" height="100%" viewBox="0 0 2084 1321" version="1.1" xmlns="http://www.w3.org/2000/svg" xmlns:xlink="http://www.w3.org/1999/xlink" xml:space="preserve" xmlns:serif="http://www.serif.com/" style="fill-rule:evenodd;clip-rule:evenodd;stroke-linejoin:round;stroke-miterlimit:2;">
    <g transform="matrix(1,0,0,1,-472.283,-4677.14)">
        <g>
            <g transform="matrix(-4.16667,0,0,4.16667,3027.9,2829.45)">
                <rect x="113.348" y="443.446" width="500" height="317" style="fill:rgb(24,75,135);"/>
            </g>
            <g transform="matrix(4.16667,0,0,4.16667,994.995,5407.61)">
                <path d="M0,-33.427L-54.593,-51.649C-60.751,-53.704 -66.606,-47.853 -64.559,-41.695L-63.555,-38.678L-69.538,-36.355L-62.78,-36.355L-57.827,-21.465L-63.836,-19.141L-57.053,-19.141L-52.193,-4.545L-58.176,-2.222L-51.418,-2.222L-46.333,13.055C-44.482,18.617 -37.422,20.277 -33.286,16.123L3.085,-20.401C7.209,-24.546 5.545,-31.576 0,-33.427" style="fill:rgb(46,153,212);fill-rule:nonzero;"/>
            </g>
            <g transform="matrix(4.16667,0,0,4.16667,910.605,5255.84)">
                <path d="M0,10.336L-45.882,10.336L-49.278,0.068L0,0.068C2.834,0 5.132,2.315 5.132,5.17C5.132,8.021 2.834,10.336 0,10.336" style="fill:rgb(226,226,226);fill-rule:nonzero;"/>
            </g>
            <g transform="matrix(4.16667,0,0,4.16667,826.323,5398.07)">
                <path d="M0,10.336L-14.32,10.336L-17.715,0.068L0,0.068C2.834,0 5.132,2.315 5.132,5.17C5.132,8.021 2.834,10.336 0,10.336" style="fill:rgb(226,226,226);fill-rule:nonzero;"/>
            </g>
            <g transform="matrix(4.16667,0,0,4.16667,868.057,5327.56)">
                <path d="M0,10.336L-29.971,10.336L-33.371,0.068L0,0.068C2.834,0 5.132,2.315 5.132,5.17C5.132,8.021 2.834,10.336 0,10.336" style="fill:rgb(226,226,226);fill-rule:nonzero;"/>
            </g>
            <g transform="matrix(4.16667,0,0,4.16667,1294.57,5256.57)">
                <path d="M0,43.963C-2.362,43.963 -4.485,41.818 -4.485,39.478L-4.485,2.745C-4.485,1.23 -3.238,0 -1.711,0L1.038,0C2.57,0 3.587,1.234 3.587,2.745L3.587,32.163C3.587,34.103 5.409,35.886 7.366,35.886L29.609,35.886C31.141,35.886 32.384,36.912 32.384,38.427L32.384,41.218C32.384,42.733 31.137,43.963 29.609,43.963L0,43.963Z" style="fill:white;fill-rule:nonzero;"/>
            </g>
            <g transform="matrix(4.16667,0,0,4.16667,1615.5,5256.58)">
                <path d="M0,43.959C-1.528,43.959 -2.553,42.725 -2.553,41.214L-2.553,30.248C-2.553,28.831 -3.796,27.81 -5.23,27.81L-28.699,27.81C-30.133,27.81 -31.299,28.831 -31.299,30.248L-31.299,41.202C-31.299,42.716 -32.546,43.946 -34.069,43.946L-36.575,43.934C-38.307,43.929 -39.342,42.968 -39.342,41.363L-39.342,14.358C-39.342,9.643 -38.133,6.256 -35.546,3.707C-33.112,1.315 -29.882,-0.004 -26.452,-0.004L-7.345,-0.004C-3.902,-0.004 -0.668,1.324 1.762,3.737C4.183,6.141 5.519,9.333 5.519,12.728L5.519,41.219C5.519,42.733 4.277,43.963 2.749,43.963L0.14,43.963L0,43.959ZM-25.431,8.064C-28.665,8.064 -31.299,10.886 -31.299,14.082L-31.299,17.043C-31.299,18.461 -30.133,19.733 -28.699,19.733L-5.153,19.733C-3.719,19.733 -2.553,18.461 -2.553,17.043L-2.553,14.899C-2.553,11.252 -5.553,8.069 -9.239,8.069L-25.099,8.069L-25.431,8.064Z" style="fill:white;fill-rule:nonzero;"/>
            </g>
            <g transform="matrix(4.16667,0,0,4.16667,1844.49,5256.57)">
                <path d="M0,43.963C-0.817,43.963 -1.6,43.618 -2.149,43.014L-26.72,15.767C-27.026,15.426 -27.443,15.239 -27.89,15.239C-28.673,15.239 -29.618,15.826 -29.618,16.805L-29.618,41.214C-29.618,42.729 -30.86,43.959 -32.388,43.959L-35.005,43.959C-36.537,43.959 -37.78,42.729 -37.78,41.214L-37.78,3.962C-37.78,1.775 -35.98,0 -33.775,0L-31.048,0C-30.226,0 -29.443,0.345 -28.899,0.949L-4.4,28.158C-4.098,28.499 -3.23,28.712 -2.783,28.712C-1.996,28.712 -0.987,28.099 -0.987,27.12L-0.987,2.745C-0.987,1.23 0.259,0 1.787,0L4.396,0C5.928,0 7.09,1.234 7.09,2.745L7.09,39.997C7.09,42.184 5.515,43.959 3.306,43.959L0.651,43.959L0,43.963Z" style="fill:white;fill-rule:nonzero;"/>
            </g>
            <g transform="matrix(4.16667,0,0,4.16667,1074.95,5256.54)">
                <path d="M0,43.963C-2.362,43.963 -3.817,42.061 -3.817,39.72L-3.817,4.243C-3.817,1.902 -1.894,0 0.472,0L36.929,0C38.461,0 39.703,1.234 39.703,2.745L39.703,5.536C39.703,7.051 38.512,8.081 36.984,8.081L5.877,8.081C4.63,8.081 4.26,9.29 4.26,10.52L4.26,15.618C4.26,16.852 5.026,17.95 6.273,17.95L29.805,17.95C31.337,17.95 32.579,19.09 32.579,20.601L32.579,23.397C32.579,24.907 31.333,26.026 29.805,26.026L6.273,26.026C5.026,26.026 4.26,27.146 4.26,28.375L4.26,33.435C4.26,34.669 5.085,35.895 6.332,35.895L37.431,35.895C38.963,35.895 40.15,36.908 40.15,38.418L40.15,41.214C40.15,42.729 38.903,43.955 37.375,43.955L0.672,43.955L0,43.963Z" style="fill:white;fill-rule:nonzero;"/>
            </g>
            <g transform="matrix(4.16667,0,0,4.16667,2155.35,5256.54)">
                <path d="M0,43.963C-2.362,43.963 -3.817,42.061 -3.817,39.72L-3.817,4.243C-3.817,1.902 -1.894,0 0.472,0L36.929,0C38.46,0 39.703,1.234 39.703,2.745L39.703,5.536C39.703,7.051 38.512,8.081 36.984,8.081L5.877,8.081C4.63,8.081 4.26,9.29 4.26,10.52L4.26,15.618C4.26,16.852 5.026,17.95 6.273,17.95L29.805,17.95C31.337,17.95 32.579,19.09 32.579,20.601L32.579,23.397C32.579,24.907 31.333,26.026 29.805,26.026L6.273,26.026C5.026,26.026 4.26,27.146 4.26,28.375L4.26,33.435C4.26,34.669 5.085,35.895 6.332,35.895L37.431,35.895C38.963,35.895 40.15,36.908 40.15,38.418L40.15,41.214C40.15,42.729 38.903,43.955 37.375,43.955L0.672,43.955L0,43.963Z" style="fill:white;fill-rule:nonzero;"/>
            </g>
            <g transform="matrix(4.16667,0,0,4.16667,1968.78,5256.55)">
                <path d="M0,43.963C-3.396,43.963 -6.715,42.597 -9.111,40.218L-9.128,40.197C-11.541,37.801 -12.873,34.614 -12.873,31.231L-12.873,12.72C-12.873,9.324 -11.532,6.128 -9.107,3.728C-6.681,1.324 -3.451,0 -0.017,0L18.532,0C21.966,0 25.192,1.324 27.622,3.728C30.047,6.128 31.392,9.324 31.392,12.72L31.392,13.967C31.392,14.069 31.375,14.175 31.345,14.303L31.337,14.328L31.337,14.358C31.324,15.515 29.439,16.49 27.23,16.49C25.018,16.49 23.115,15.507 23.115,14.341C23.115,14.307 23.12,14.294 23.12,14.277L23.12,14.247L23.115,14.218C23.098,14.116 23.09,14.039 23.09,13.967C23.09,10.835 20.349,8.077 17.183,8.077L0.783,8.077C-2.383,8.077 -4.796,10.835 -4.796,13.967L-4.796,30.001C-4.796,33.133 -2.221,35.891 0.945,35.891L17.345,35.891C20.507,35.891 23.086,33.133 23.086,30.001C23.086,29.912 23.094,29.818 23.115,29.724L23.12,29.686L23.111,29.601L23.107,29.558C23.107,28.392 24.992,27.405 27.222,27.405C29.452,27.405 31.333,28.392 31.333,29.558L31.333,29.627L31.341,29.652C31.375,29.784 31.388,29.89 31.388,29.997L31.388,31.244C31.388,34.639 30.047,37.831 27.622,40.235L27.609,40.248C25.184,42.644 21.962,43.959 18.532,43.959L0.008,43.959L0,43.963Z" style="fill:white;fill-rule:nonzero;"/>
            </g>
        </g>
    </g>
</svg>
