<?xml version="1.0" encoding="UTF-8" standalone="no"?>
<!DOCTYPE svg PUBLIC "-//W3C//DTD SVG 1.1//EN" "http://www.w3.org/Graphics/SVG/1.1/DTD/svg11.dtd">
<svg width="100%" height="100%" viewBox="0 0 2084 1321" version="1.1" xmlns="http://www.w3.org/2000/svg" xmlns:xlink="http://www.w3.org/1999/xlink" xml:space="preserve" xmlns:serif="http://www.serif.com/" style="fill-rule:evenodd;clip-rule:evenodd;stroke-linejoin:round;stroke-miterlimit:2;">
    <g transform="matrix(1,0,0,1,-6972.28,-3258.66)">
        <g>
            <g transform="matrix(-4.16667,0,0,4.16667,16027.9,-7.50833)">
                <rect x="1673.35" y="783.881" width="500" height="317" style="fill:rgb(255,197,22);"/>
            </g>
            <g transform="matrix(4.16667,0,0,4.16667,8025.82,3873.89)">
                <path d="M0,-74.286L0,-71.661C5.852,-69.448 8.439,-63.484 8.439,-56.467L8.551,-52.919L8.551,-40.025C8.434,-38.317 7.556,-38.225 1.121,-38.215L0,-38.215L0,-36.061C7.459,-36.061 8.424,-36.061 8.551,-34.255L8.551,-2.261L10.928,-2.261C14.238,-2.261 16.917,-4.944 16.917,-8.249L16.917,-34.284C16.917,-35.265 17.718,-36.065 18.698,-36.065L38.56,-36.065C39.749,-36.065 40.676,-35.056 40.603,-33.872C39.041,-9.564 20.183,9.633 -2.849,9.633C-25.88,9.633 -44.733,-9.564 -46.301,-33.872C-46.373,-35.056 -45.446,-36.065 -44.257,-36.065L-24.4,-36.065C-23.415,-36.065 -22.619,-35.265 -22.619,-34.284L-22.619,-8.249C-22.619,-4.944 -19.935,-2.261 -16.63,-2.261L-14.248,-2.261L-14.248,-34.255C-14.122,-36.061 -13.156,-36.061 -5.697,-36.061L-5.697,-38.215L-6.818,-38.215C-13.253,-38.225 -14.131,-38.317 -14.248,-40.025L-14.248,-52.919L-14.136,-56.467C-14.136,-63.484 -11.55,-69.448 -5.697,-71.661L-5.697,-74.286C-15.408,-71.913 -22.619,-63.154 -22.619,-52.71L-22.619,-40.001C-22.619,-39.016 -23.415,-38.215 -24.4,-38.215L-44.257,-38.215C-45.446,-38.215 -46.373,-39.225 -46.301,-40.409C-44.733,-64.716 -25.88,-83.914 -2.849,-83.914C20.183,-83.914 39.041,-64.716 40.603,-40.409C40.676,-39.225 39.749,-38.215 38.56,-38.215L18.698,-38.215C17.718,-38.215 16.917,-39.016 16.917,-40.001L16.922,-52.71C16.922,-63.154 9.71,-71.913 0,-74.286M45.83,-38.215C45.257,-64.614 23.682,-85.836 -2.849,-85.836C-29.379,-85.836 -50.954,-64.614 -51.527,-38.215L-51.542,-38.215L-51.542,-36.065L-51.527,-36.065C-50.954,-9.671 -29.379,11.55 -2.849,11.55C23.682,11.55 45.257,-9.671 45.83,-36.065L45.844,-36.065L45.844,-38.215L45.83,-38.215Z" style="fill:rgb(31,28,29);fill-rule:nonzero;"/>
            </g>
            <g transform="matrix(4.16667,0,0,4.16667,7322.67,4321.1)">
                <path d="M0,-10.142L1.465,-10.142L5.702,0L3.654,0L2.62,-2.62L-1.189,-2.62L-2.164,0L-4.222,0L0,-10.142ZM-0.529,-4.367L1.965,-4.367L0.718,-7.614L0.689,-7.614L-0.529,-4.367Z" style="fill:rgb(31,28,29);fill-rule:nonzero;"/>
            </g>
            <g transform="matrix(4.16667,0,0,4.16667,7452.61,4321.1)">
                <path d="M0,-10.142L1.873,-10.142L1.873,-6.007L5.508,-6.007L5.508,-10.142L7.371,-10.142L7.371,0L5.508,0L5.508,-4.275L1.873,-4.275L1.873,0L0,0L0,-10.142Z" style="fill:rgb(31,28,29);fill-rule:nonzero;"/>
            </g>
            <g transform="matrix(4.16667,0,0,4.16667,7533.75,4278.84)">
                <path d="M0,10.142L0,0L5.445,0L5.445,1.732L1.878,1.732L1.878,4.241L5.28,4.241L5.28,5.973L1.878,5.973L1.878,8.385L5.445,8.385L5.445,10.142L0,10.142Z" style="fill:rgb(31,28,29);fill-rule:nonzero;"/>
            </g>
            <g transform="matrix(4.16667,0,0,4.16667,7606.45,4321.1)">
                <path d="M0,-10.142L2.975,-10.142C4.164,-10.142 5.1,-9.875 5.785,-9.322C6.43,-8.788 6.755,-8.002 6.755,-7.027C6.755,-5.901 6.411,-5.061 5.755,-4.488C5.323,-4.149 4.799,-3.892 4.115,-3.77L6.862,0L4.639,0L1.864,-4.061L1.864,0L0,0L0,-10.142ZM1.864,-5.275L2.829,-5.275C3.509,-5.275 4.018,-5.411 4.368,-5.668C4.702,-5.925 4.887,-6.313 4.887,-6.837C4.887,-7.371 4.702,-7.745 4.368,-8.002C4.018,-8.274 3.509,-8.405 2.829,-8.405L1.864,-8.405L1.864,-5.275Z" style="fill:rgb(31,28,29);fill-rule:nonzero;"/>
            </g>
            <g transform="matrix(4.16667,0,0,4.16667,7686.72,4321.1)">
                <rect x="-0.932" y="-10.142" width="1.888" height="10.142" style="fill:rgb(31,28,29);fill-rule:nonzero;"/>
            </g>
            <g transform="matrix(4.16667,0,0,4.16667,7745.75,4313.87)">
                <path d="M0,-6.673L-1.878,-6.673L-1.878,-8.41L3.776,-8.41L3.776,-6.673L1.883,-6.673L1.883,1.737L0,1.737L0,-6.673Z" style="fill:rgb(31,28,29);fill-rule:nonzero;"/>
            </g>
            <g transform="matrix(4.16667,0,0,4.16667,7822.49,4321.1)">
                <path d="M0,-10.142L1.451,-10.142L5.697,0L3.635,0L2.63,-2.62L-1.203,-2.62L-2.189,0L-4.232,0L0,-10.142ZM-0.534,-4.367L1.956,-4.367L0.708,-7.614L-0.534,-4.367Z" style="fill:rgb(31,28,29);fill-rule:nonzero;"/>
            </g>
            <g transform="matrix(4.16667,0,0,4.16667,7913.78,4277.98)">
                <path d="M0,10.545C-1.514,10.545 -2.786,10.031 -3.848,9.007C-4.935,7.983 -5.455,6.721 -5.455,5.265C-5.455,3.805 -4.935,2.582 -3.887,1.538C-2.829,0.514 -1.563,0 -0.087,0C1.029,0 2.033,0.291 2.931,0.864C3.858,1.436 4.465,2.218 4.887,3.178L2.611,3.178C2.349,2.742 1.951,2.392 1.48,2.13C0.99,1.888 0.476,1.752 -0.073,1.752C-1.053,1.752 -1.883,2.091 -2.553,2.771C-3.247,3.445 -3.577,4.285 -3.577,5.265C-3.577,6.255 -3.247,7.09 -2.553,7.769C-1.859,8.444 -1.034,8.793 -0.044,8.793C0.917,8.793 1.732,8.473 2.373,7.769C2.635,7.517 2.844,7.221 3.009,6.91L-1.238,6.91L-1.238,5.158L5.377,5.158L5.377,5.265C5.377,6.721 4.848,7.983 3.8,9.007C2.761,10.031 1.485,10.545 0.01,10.545L0,10.545Z" style="fill:rgb(31,28,29);fill-rule:nonzero;"/>
            </g>
            <g transform="matrix(4.16667,0,0,4.16667,7983.78,4278.84)">
                <path d="M0,10.142L0,0L5.464,0L5.464,1.732L1.888,1.732L1.888,4.241L5.285,4.241L5.285,5.973L1.888,5.973L1.888,8.385L5.464,8.385L5.464,10.142L0,10.142Z" style="fill:rgb(31,28,29);fill-rule:nonzero;"/>
            </g>
            <g transform="matrix(4.16667,0,0,4.16667,8119.96,4284.37)">
                <path d="M0,7.469C-1.019,6.445 -1.529,5.188 -1.529,3.728C-1.529,2.272 -1.019,1.049 0,0.001C1.048,-1.018 2.291,-1.538 3.761,-1.538C5.236,-1.538 6.483,-1.018 7.527,0.001C8.555,1.049 9.07,2.272 9.07,3.728C9.07,5.188 8.555,6.445 7.527,7.469C6.483,8.498 5.236,9.007 3.761,9.007C2.291,9.007 1.048,8.498 0,7.469M6.197,6.232C6.857,5.552 7.163,4.717 7.163,3.728C7.163,2.752 6.857,1.913 6.197,1.233C5.527,0.559 4.717,0.219 3.761,0.219C2.805,0.219 1.985,0.559 1.344,1.233C0.665,1.913 0.349,2.752 0.349,3.728C0.349,4.717 0.665,5.552 1.344,6.232C1.985,6.911 2.805,7.26 3.761,7.26C4.717,7.26 5.527,6.911 6.197,6.232" style="fill:rgb(31,28,29);fill-rule:nonzero;"/>
            </g>
            <g transform="matrix(4.16667,0,0,4.16667,8205.98,4278.84)">
                <path d="M0,10.142L0,0L5.144,0L5.144,1.732L1.859,1.732L1.859,4.241L5.003,4.241L5.003,5.973L1.859,5.973L1.859,10.142L0,10.142Z" style="fill:rgb(31,28,29);fill-rule:nonzero;"/>
            </g>
            <g transform="matrix(4.16667,0,0,4.16667,8335.56,4321.1)">
                <path d="M0,-10.142L2.698,-10.142C3.897,-10.142 4.838,-9.895 5.508,-9.361C6.153,-8.841 6.503,-8.075 6.503,-7.119C6.503,-6.037 6.182,-5.226 5.537,-4.683C4.882,-4.149 3.95,-3.872 2.698,-3.872L1.893,-3.872L1.893,0L0,0L0,-10.142ZM1.893,-5.6L2.698,-5.6C3.334,-5.6 3.819,-5.731 4.135,-5.954C4.445,-6.192 4.605,-6.541 4.605,-6.997C4.605,-7.468 4.445,-7.803 4.135,-8.055C3.819,-8.288 3.334,-8.405 2.698,-8.405L1.893,-8.405L1.893,-5.6Z" style="fill:rgb(31,28,29);fill-rule:nonzero;"/>
            </g>
            <g transform="matrix(4.16667,0,0,4.16667,8439.8,4295.52)">
                <path d="M0,2.329C0,3.615 -0.32,4.61 -0.946,5.304C-1.582,5.983 -2.475,6.333 -3.635,6.333C-4.809,6.333 -5.687,5.983 -6.313,5.304C-6.969,4.61 -7.274,3.615 -7.274,2.329L-7.274,-4.004L-5.406,-4.004L-5.406,2.421C-5.406,3.125 -5.251,3.688 -4.974,4.047C-4.659,4.396 -4.236,4.581 -3.635,4.581C-3.057,4.581 -2.62,4.396 -2.339,4.047C-2.043,3.688 -1.893,3.125 -1.893,2.421L-1.893,-4.004L0,-4.004L0,2.329Z" style="fill:rgb(31,28,29);fill-rule:nonzero;"/>
            </g>
            <g transform="matrix(4.16667,0,0,4.16667,8489.35,4321.1)">
                <path d="M0,-10.142L2.97,-10.142C4.188,-10.142 5.1,-9.875 5.765,-9.322C6.449,-8.788 6.784,-8.002 6.784,-7.027C6.784,-5.901 6.449,-5.061 5.765,-4.488C5.333,-4.149 4.814,-3.892 4.144,-3.77L6.871,0L4.654,0L1.888,-4.061L1.888,0L0,0L0,-10.142ZM1.888,-5.275L2.849,-5.275C3.547,-5.275 4.042,-5.411 4.372,-5.668C4.722,-5.925 4.892,-6.313 4.892,-6.837C4.892,-7.371 4.722,-7.745 4.372,-8.002C4.042,-8.274 3.547,-8.405 2.849,-8.405L1.888,-8.405L1.888,-5.275Z" style="fill:rgb(31,28,29);fill-rule:nonzero;"/>
            </g>
            <g transform="matrix(4.16667,0,0,4.16667,8569.73,4321.1)">
                <rect x="-0.956" y="-10.142" width="1.888" height="10.142" style="fill:rgb(31,28,29);fill-rule:nonzero;"/>
            </g>
            <g transform="matrix(4.16667,0,0,4.16667,8628.74,4313.87)">
                <path d="M0,-6.673L-1.893,-6.673L-1.893,-8.41L3.761,-8.41L3.761,-6.673L1.849,-6.673L1.849,1.737L0,1.737L0,-6.673Z" style="fill:rgb(31,28,29);fill-rule:nonzero;"/>
            </g>
            <g transform="matrix(4.16667,0,0,4.16667,8701.11,4294.61)">
                <path d="M0,2.572L-3.319,-3.785L-1.296,-3.785L0.961,0.922L3.179,-3.785L5.212,-3.785L1.883,2.572L1.883,6.357L0,6.357L0,2.572Z" style="fill:rgb(31,28,29);fill-rule:nonzero;"/>
            </g>
            <g transform="matrix(4.16667,0,0,4.16667,7423.06,4095.02)">
                <path d="M0,-0.15L0,14.287L-6.576,14.287L-6.576,-14.019L-0.417,-14.019L-0.417,-10.753C1.533,-13.238 3.805,-14.437 6.871,-14.437L6.871,-8.274C1.223,-7.842 0,-5.439 0,-0.15" style="fill:rgb(31,28,29);fill-rule:nonzero;"/>
            </g>
            <g transform="matrix(4.16667,0,0,4.16667,7553.99,4050.67)">
                <path d="M0,21.459C-1.582,24.303 -4.426,25.569 -8.793,25.569C-17.237,25.569 -23.507,19.081 -23.507,10.652C-23.507,6.692 -22.08,2.989 -19.45,0.267C-16.606,-2.752 -13.234,-4.11 -8.949,-4.11C-4.848,-4.11 -1.888,-2.752 -0.044,0.044L-0.044,-3.378L6.381,-3.378L6.381,24.929L0,24.929L0,21.459ZM-8.585,18.916C-4.489,18.916 -0.733,15.223 -0.733,10.861C-0.733,6.115 -4.528,2.417 -8.701,2.417C-13.064,2.417 -16.752,5.964 -16.752,10.535C-16.752,15.437 -13.02,18.916 -8.585,18.916" style="fill:rgb(31,28,29);fill-rule:nonzero;"/>
            </g>
            <g transform="matrix(4.16667,0,0,4.16667,7622.5,4138.74)">
                <path d="M0,-21.299C1.951,-23.89 4.372,-25.094 7.585,-25.094C11.705,-25.094 14.704,-23.512 16.703,-20.455C18.411,-17.824 18.557,-14.874 18.557,-11.171L18.557,3.795L11.972,3.795L11.972,-8.75C11.972,-15.447 10.904,-18.669 6.105,-18.669C1.32,-18.669 -0.044,-15.175 -0.044,-8.332L-0.044,3.795L-6.425,3.795L-6.425,-24.512L0,-24.512L0,-21.299Z" style="fill:rgb(31,28,29);fill-rule:nonzero;"/>
            </g>
            <g transform="matrix(4.16667,0,0,4.16667,7770.65,4130.6)">
                <path d="M0,-16.922C-4.421,-16.922 -7.862,-13.394 -7.862,-8.439C-7.862,-3.65 -4.421,-0.049 0.218,-0.049C3.785,-0.049 6.173,-1.587 7.328,-4.635L14.335,-4.635C12.641,2.324 7.386,6.488 0.272,6.488C-3.965,6.488 -7.551,4.954 -10.38,2.052C-13.132,-0.733 -14.656,-4.635 -14.656,-8.381C-14.656,-12.341 -13.287,-15.869 -10.599,-18.659C-7.643,-21.78 -3.906,-23.41 0.354,-23.41C7.221,-23.41 12.748,-19.232 14.393,-12.491L7.386,-12.491C5.784,-15.442 3.382,-16.922 0,-16.922" style="fill:rgb(31,28,29);fill-rule:nonzero;"/>
            </g>
            <g transform="matrix(4.16667,0,0,4.16667,7902.39,4074.22)">
                <path d="M0,10.254C0,12.845 1.475,14.481 3.416,14.481C5.314,14.481 6.697,13.214 6.697,11.37C6.697,9.57 5.799,8.682 3.635,7.672C1.155,6.527 -0.786,5.993 -1.684,5.265C-3.741,3.581 -4.746,1.519 -4.746,-1.228C-4.746,-6.022 -0.903,-9.764 3.853,-9.764C8.861,-9.764 11.967,-6.711 12.234,-1.446L6.338,-1.446L6.338,-1.597C6.338,-3.441 5.314,-4.499 3.635,-4.499C2.16,-4.499 1.053,-3.353 1.053,-1.854C1.053,0.354 2.96,0.713 6.42,2.252C10.807,4.193 12.763,6.158 12.763,10.89C12.763,16.179 8.75,20.018 3.324,20.018C-2.053,20.018 -5.683,16.213 -6.008,9.885L0,9.885L0,10.254Z" style="fill:rgb(31,28,29);fill-rule:nonzero;"/>
            </g>
            <g transform="matrix(4.16667,0,0,4.16667,7305.07,4154.78)">
                <path d="M0,-37.434L20.212,-37.434L20.212,-30.854L7.265,-30.854L7.265,-22.318L20.212,-22.318L20.212,-15.849L7.265,-15.849L7.265,0L0,0L0,-37.434Z" style="fill:rgb(31,28,29);fill-rule:nonzero;"/>
            </g>
            <g transform="matrix(4.16667,0,0,4.16667,8023.12,3998.61)">
                <path d="M0,37.439L-7.58,37.439L6.959,0L13.267,0L27.588,37.439L19.731,37.439L16.8,29.592L2.892,29.592L0,37.439ZM9.943,10.569L5.435,22.633L14.369,22.633L9.943,10.569Z" style="fill:rgb(31,28,29);fill-rule:nonzero;"/>
            </g>
            <g transform="matrix(4.16667,0,0,4.16667,0,307.313)">
                <path d="M1882.63,885.859L1889.06,885.859L1889.06,892.138L1882.63,892.138L1882.63,885.859ZM1882.63,895.04L1889.06,895.04L1889.06,923.346L1882.63,923.346L1882.63,895.04Z" style="fill:rgb(31,28,29);fill-rule:nonzero;"/>
            </g>
            <g transform="matrix(4.16667,0,0,4.16667,0,307.338)">
                <rect x="1954.22" y="885.853" width="6.42" height="37.493" style="fill:rgb(31,28,29);"/>
            </g>
            <g transform="matrix(4.16667,0,0,4.16667,8262.27,4052.56)">
                <path d="M0,21.425C-1.951,24.012 -4.397,25.239 -7.604,25.239C-14.597,25.239 -18.625,20.789 -18.625,12.574L-18.625,-3.814L-11.982,-3.814L-11.982,8.881C-11.982,15.573 -10.972,18.848 -6.119,18.848C-1.32,18.848 0.044,15.315 0.044,8.463L0.044,-3.814L6.532,-3.814L6.532,24.492L0,24.492L0,21.425Z" style="fill:rgb(31,28,29);fill-rule:nonzero;"/>
            </g>
            <g transform="matrix(4.16667,0,0,4.16667,8304.76,3998.39)">
                <path d="M0,37.493L0,0L6.372,0L6.372,22.299L15.539,9.187L22.978,9.187L13.175,22.619L24.929,37.493L16.64,37.493L6.372,23.09L6.372,37.493L0,37.493Z" style="fill:rgb(31,28,29);fill-rule:nonzero;"/>
            </g>
            <g transform="matrix(4.16667,0,0,4.16667,8415.97,3998.39)">
                <path d="M0,37.493L0,0L6.386,0L6.386,22.299L15.558,9.187L22.993,9.187L13.19,22.619L24.948,37.493L16.655,37.493L6.386,23.09L6.386,37.493L0,37.493Z" style="fill:rgb(31,28,29);fill-rule:nonzero;"/>
            </g>
            <g transform="matrix(4.16667,0,0,4.16667,8608.3,4050.71)">
                <path d="M0,21.45C-1.587,24.294 -4.44,25.565 -8.818,25.565C-17.252,25.565 -23.526,19.082 -23.526,10.643C-23.526,6.688 -22.1,3 -19.465,0.272C-16.616,-2.741 -13.248,-4.115 -8.968,-4.115C-4.863,-4.115 -1.917,-2.741 -0.063,0.044L-0.063,-3.372L6.372,-3.372L6.372,24.934L0,24.934L0,21.45ZM-8.594,18.931C-4.479,18.931 -0.752,15.234 -0.752,10.861C-0.752,6.106 -4.542,2.417 -8.716,2.417C-13.083,2.417 -16.762,5.96 -16.762,10.536C-16.762,15.437 -13.035,18.931 -8.594,18.931" style="fill:rgb(31,28,29);fill-rule:nonzero;"/>
            </g>
            <g transform="matrix(4.16667,0,0,4.16667,8669.65,4074.24)">
                <path d="M0,10.268C0,12.84 1.475,14.475 3.416,14.475C5.323,14.475 6.692,13.209 6.692,11.365C6.692,9.579 5.794,8.676 3.644,7.686C1.16,6.526 -0.791,5.988 -1.679,5.26C-3.737,3.576 -4.741,1.523 -4.741,-1.233C-4.741,-6.023 -0.903,-9.764 3.843,-9.764C8.856,-9.764 11.962,-6.707 12.229,-1.432L6.323,-1.432L6.323,-1.592C6.323,-3.436 5.323,-4.494 3.644,-4.494C2.155,-4.494 1.062,-3.339 1.062,-1.859C1.062,0.359 2.955,0.727 6.43,2.246C10.802,4.207 12.763,6.153 12.763,10.899C12.763,16.174 8.754,20.032 3.324,20.032C-2.067,20.032 -5.697,16.222 -6.013,9.909L0,9.909L0,10.268Z" style="fill:rgb(31,28,29);fill-rule:nonzero;"/>
            </g>
        </g>
    </g>
</svg>
