<svg width="100%" height="100%" viewBox="0 0 2084 1321" version="1.1" xmlns="http://www.w3.org/2000/svg" xmlns:xlink="http://www.w3.org/1999/xlink" xml:space="preserve" xmlns:serif="http://www.serif.com/" style="fill-rule:evenodd;clip-rule:evenodd;stroke-linejoin:round;stroke-miterlimit:2;">
    <g transform="matrix(1,0,0,1,-4805.62,-6095.62)">
        <g>
            <g transform="matrix(-4.16667,0,0,4.16667,11694.6,5666.4)">
                <rect x="1153.35" y="103.012" width="500" height="317" style="fill:rgb(24,107,176);"/>
            </g>
            <g transform="matrix(1,0,0,1,4191.79,5222.63)">
                <g transform="matrix(67.0738,0,0,63.2271,1323.72,1691.31)">
                    <path d="M0.076,-0.717L0.191,-0.717L0.553,-0.136L0.553,-0.717L0.646,-0.717L0.646,-0L0.537,-0L0.169,-0.581L0.169,-0L0.076,-0L0.076,-0.717Z" style="fill:white;fill-rule:nonzero;"/>
                </g>
                <g transform="matrix(67.0738,0,0,63.2271,1373.47,1691.31)">
                    <path d="M0.085,-0.717L0.608,-0.717L0.608,-0.629L0.18,-0.629L0.18,-0.412L0.576,-0.412L0.576,-0.329L0.18,-0.329L0.18,-0.085L0.616,-0.085L0.616,-0L0.085,-0L0.085,-0.717Z" style="fill:white;fill-rule:nonzero;"/>
                </g>
                <g transform="matrix(67.0738,0,0,63.2271,1419.51,1691.31)">
                    <path d="M0.085,-0.717L0.608,-0.717L0.608,-0.629L0.18,-0.629L0.18,-0.412L0.576,-0.412L0.576,-0.329L0.18,-0.329L0.18,-0.085L0.616,-0.085L0.616,-0L0.085,-0L0.085,-0.717Z" style="fill:white;fill-rule:nonzero;"/>
                </g>
                <g transform="matrix(67.0738,0,0,63.2271,1465.55,1691.31)">
                    <path d="M0.598,-0.717L0.598,-0.632L0.356,-0.632L0.356,-0L0.258,-0L0.258,-0.632L0.016,-0.632L0.016,-0.717L0.598,-0.717Z" style="fill:white;fill-rule:nonzero;"/>
                </g>
                <g transform="matrix(67.0738,0,0,63.2271,1518.94,1691.31)">
                    <rect x="0.07" y="-0.728" width="0.083" height="0.728" style="fill:white;fill-rule:nonzero;"/>
                </g>
                <g transform="matrix(67.0738,0,0,63.2271,1557.99,1691.31)">
                    <rect x="0.098" y="-0.717" width="0.098" height="0.717" style="fill:white;fill-rule:nonzero;"/>
                </g>
                <g transform="matrix(67.0738,0,0,63.2271,1577.93,1691.31)">
                    <rect x="0.098" y="-0.717" width="0.098" height="0.717" style="fill:white;fill-rule:nonzero;"/>
                </g>
                <g transform="matrix(67.0738,0,0,63.2271,1597.87,1691.31)">
                    <path d="M0.598,-0.717L0.598,-0.632L0.356,-0.632L0.356,-0L0.258,-0L0.258,-0.632L0.016,-0.632L0.016,-0.717L0.598,-0.717Z" style="fill:white;fill-rule:nonzero;"/>
                </g>
                <g transform="matrix(67.0738,0,0,63.2271,1662.34,1691.31)">
                    <path d="M0.41,-0.389C0.455,-0.389 0.491,-0.398 0.518,-0.416C0.544,-0.434 0.558,-0.467 0.558,-0.515C0.558,-0.566 0.539,-0.601 0.502,-0.619C0.482,-0.629 0.456,-0.634 0.422,-0.634L0.185,-0.634L0.185,-0.389L0.41,-0.389ZM0.088,-0.717L0.42,-0.717C0.475,-0.717 0.52,-0.709 0.555,-0.693C0.623,-0.663 0.656,-0.606 0.656,-0.524C0.656,-0.481 0.647,-0.446 0.63,-0.418C0.612,-0.391 0.587,-0.369 0.555,-0.353C0.583,-0.341 0.604,-0.326 0.618,-0.308C0.633,-0.289 0.64,-0.259 0.642,-0.217L0.646,-0.121C0.646,-0.094 0.649,-0.073 0.652,-0.06C0.658,-0.037 0.669,-0.023 0.684,-0.016L0.684,-0L0.564,-0C0.561,-0.006 0.559,-0.014 0.557,-0.024C0.555,-0.034 0.553,-0.053 0.552,-0.081L0.546,-0.2C0.544,-0.247 0.526,-0.278 0.494,-0.294C0.475,-0.303 0.446,-0.308 0.406,-0.308L0.185,-0.308L0.185,-0L0.088,-0L0.088,-0.717Z" style="fill:white;fill-rule:nonzero;"/>
                </g>
                <g transform="matrix(67.0738,0,0,63.2271,1712.09,1691.31)">
                    <path d="M0.085,-0.717L0.608,-0.717L0.608,-0.629L0.18,-0.629L0.18,-0.412L0.576,-0.412L0.576,-0.329L0.18,-0.329L0.18,-0.085L0.616,-0.085L0.616,-0L0.085,-0L0.085,-0.717Z" style="fill:white;fill-rule:nonzero;"/>
                </g>
                <g transform="matrix(67.0738,0,0,63.2271,1758.13,1691.31)">
                    <path d="M0.14,-0.231C0.142,-0.191 0.152,-0.158 0.168,-0.132C0.201,-0.085 0.257,-0.061 0.339,-0.061C0.375,-0.061 0.409,-0.066 0.438,-0.077C0.496,-0.097 0.525,-0.133 0.525,-0.185C0.525,-0.224 0.513,-0.252 0.489,-0.269C0.464,-0.285 0.425,-0.299 0.373,-0.311L0.275,-0.333C0.212,-0.347 0.167,-0.363 0.141,-0.38C0.095,-0.41 0.072,-0.455 0.072,-0.515C0.072,-0.579 0.095,-0.632 0.139,-0.673C0.184,-0.715 0.247,-0.735 0.329,-0.735C0.404,-0.735 0.468,-0.717 0.52,-0.681C0.573,-0.645 0.599,-0.587 0.599,-0.507L0.508,-0.507C0.503,-0.545 0.493,-0.575 0.477,-0.595C0.447,-0.633 0.397,-0.651 0.326,-0.651C0.268,-0.651 0.227,-0.639 0.202,-0.615C0.177,-0.591 0.165,-0.563 0.165,-0.531C0.165,-0.496 0.179,-0.47 0.208,-0.454C0.228,-0.444 0.271,-0.431 0.339,-0.415L0.439,-0.392C0.488,-0.381 0.525,-0.366 0.552,-0.347C0.597,-0.313 0.62,-0.264 0.62,-0.201C0.62,-0.121 0.591,-0.064 0.533,-0.03C0.476,0.004 0.409,0.021 0.332,0.021C0.243,0.021 0.173,-0.002 0.123,-0.047C0.072,-0.093 0.047,-0.154 0.048,-0.231L0.14,-0.231Z" style="fill:white;fill-rule:nonzero;"/>
                </g>
                <g transform="matrix(67.0738,0,0,63.2271,1804.17,1691.31)">
                    <rect x="0.098" y="-0.717" width="0.098" height="0.717" style="fill:white;fill-rule:nonzero;"/>
                </g>
                <g transform="matrix(67.0738,0,0,63.2271,1824.11,1691.31)">
                    <path d="M0.352,-0.083C0.384,-0.083 0.411,-0.086 0.433,-0.093C0.47,-0.106 0.501,-0.13 0.525,-0.167C0.545,-0.195 0.558,-0.233 0.567,-0.278C0.572,-0.305 0.574,-0.33 0.574,-0.353C0.574,-0.442 0.557,-0.511 0.521,-0.56C0.486,-0.609 0.429,-0.634 0.351,-0.634L0.178,-0.634L0.178,-0.083L0.352,-0.083ZM0.081,-0.717L0.371,-0.717C0.47,-0.717 0.546,-0.682 0.601,-0.612C0.649,-0.549 0.673,-0.468 0.673,-0.37C0.673,-0.293 0.659,-0.225 0.63,-0.163C0.58,-0.054 0.493,-0 0.37,-0L0.081,-0L0.081,-0.717Z" style="fill:white;fill-rule:nonzero;"/>
                </g>
                <g transform="matrix(67.0738,0,0,63.2271,1873.86,1691.31)">
                    <path d="M0.085,-0.717L0.608,-0.717L0.608,-0.629L0.18,-0.629L0.18,-0.412L0.576,-0.412L0.576,-0.329L0.18,-0.329L0.18,-0.085L0.616,-0.085L0.616,-0L0.085,-0L0.085,-0.717Z" style="fill:white;fill-rule:nonzero;"/>
                </g>
                <g transform="matrix(67.0738,0,0,63.2271,1919.9,1691.31)">
                    <path d="M0.076,-0.717L0.191,-0.717L0.553,-0.136L0.553,-0.717L0.646,-0.717L0.646,-0L0.537,-0L0.169,-0.581L0.169,-0L0.076,-0L0.076,-0.717Z" style="fill:white;fill-rule:nonzero;"/>
                </g>
                <g transform="matrix(67.0738,0,0,63.2271,1969.64,1691.31)">
                    <path d="M0.598,-0.717L0.598,-0.632L0.356,-0.632L0.356,-0L0.258,-0L0.258,-0.632L0.016,-0.632L0.016,-0.717L0.598,-0.717Z" style="fill:white;fill-rule:nonzero;"/>
                </g>
                <g transform="matrix(67.0742,0,0,63.5317,2011.92,1694.82)">
                    <rect x="0.098" y="-0.717" width="0.098" height="0.717" style="fill:white;fill-rule:nonzero;"/>
                </g>
                <g transform="matrix(67.0742,0,0,63.5317,2031.86,1694.82)">
                    <path d="M0.444,-0.294L0.335,-0.611L0.22,-0.294L0.444,-0.294ZM0.285,-0.717L0.395,-0.717L0.655,-0L0.548,-0L0.476,-0.215L0.192,-0.215L0.114,-0L0.015,-0L0.285,-0.717Z" style="fill:white;fill-rule:nonzero;"/>
                </g>
                <g transform="matrix(67.0742,0,0,63.5317,2077.9,1694.82)">
                    <path d="M0.076,-0.717L0.173,-0.717L0.173,-0.085L0.537,-0.085L0.537,-0L0.076,-0L0.076,-0.717Z" style="fill:white;fill-rule:nonzero;"/>
                </g>
                <g transform="matrix(67.0742,0,0,63.5317,2129,1694.82)">
                    <path d="M0.378,-0.737C0.469,-0.737 0.54,-0.713 0.59,-0.665C0.64,-0.617 0.668,-0.563 0.673,-0.502L0.579,-0.502C0.568,-0.548 0.546,-0.585 0.514,-0.612C0.482,-0.639 0.437,-0.652 0.379,-0.652C0.309,-0.652 0.252,-0.628 0.208,-0.578C0.165,-0.528 0.143,-0.452 0.143,-0.35C0.143,-0.266 0.163,-0.198 0.202,-0.145C0.241,-0.093 0.3,-0.067 0.377,-0.067C0.449,-0.067 0.504,-0.094 0.541,-0.149C0.561,-0.178 0.576,-0.216 0.585,-0.264L0.68,-0.264C0.672,-0.188 0.644,-0.125 0.596,-0.074C0.539,-0.012 0.462,0.019 0.366,0.019C0.282,0.019 0.212,-0.007 0.156,-0.057C0.081,-0.124 0.044,-0.227 0.044,-0.366C0.044,-0.472 0.072,-0.559 0.128,-0.626C0.188,-0.7 0.272,-0.737 0.378,-0.737Z" style="fill:white;fill-rule:nonzero;"/>
                </g>
                <g transform="matrix(67.0742,0,0,63.5317,2178.74,1694.82)">
                    <path d="M0.444,-0.294L0.335,-0.611L0.22,-0.294L0.444,-0.294ZM0.285,-0.717L0.395,-0.717L0.655,-0L0.548,-0L0.476,-0.215L0.192,-0.215L0.114,-0L0.015,-0L0.285,-0.717Z" style="fill:white;fill-rule:nonzero;"/>
                </g>
                <g transform="matrix(67.0742,0,0,63.5317,2224.78,1694.82)">
                    <path d="M0.074,-0.717L0.213,-0.717L0.419,-0.111L0.624,-0.717L0.761,-0.717L0.761,-0L0.669,-0L0.669,-0.423C0.669,-0.438 0.669,-0.462 0.67,-0.496C0.671,-0.53 0.671,-0.566 0.671,-0.605L0.466,-0L0.37,-0L0.164,-0.605L0.164,-0.583C0.164,-0.565 0.164,-0.539 0.165,-0.503C0.166,-0.467 0.167,-0.44 0.167,-0.423L0.167,-0L0.074,-0L0.074,-0.717Z" style="fill:white;fill-rule:nonzero;"/>
                </g>
                <g transform="matrix(67.0742,0,0,63.5317,2281.96,1694.82)">
                    <path d="M0.085,-0.717L0.408,-0.717C0.472,-0.717 0.523,-0.699 0.563,-0.663C0.602,-0.627 0.621,-0.577 0.621,-0.512C0.621,-0.456 0.604,-0.407 0.569,-0.365C0.534,-0.324 0.48,-0.303 0.408,-0.303L0.183,-0.303L0.183,-0L0.085,-0L0.085,-0.717ZM0.523,-0.511C0.523,-0.564 0.503,-0.6 0.464,-0.619C0.443,-0.629 0.413,-0.634 0.376,-0.634L0.183,-0.634L0.183,-0.385L0.376,-0.385C0.42,-0.385 0.455,-0.395 0.482,-0.413C0.509,-0.432 0.523,-0.464 0.523,-0.511Z" style="fill:white;fill-rule:nonzero;"/>
                </g>
                <g transform="matrix(67.0742,0,0,63.5317,2328,1694.82)">
                    <path d="M0.182,-0.717L0.182,-0.274C0.182,-0.222 0.191,-0.179 0.211,-0.144C0.24,-0.092 0.289,-0.066 0.357,-0.066C0.44,-0.066 0.496,-0.094 0.525,-0.15C0.541,-0.181 0.549,-0.222 0.549,-0.274L0.549,-0.717L0.648,-0.717L0.648,-0.314C0.648,-0.226 0.636,-0.158 0.612,-0.111C0.569,-0.024 0.486,0.019 0.365,0.019C0.244,0.019 0.162,-0.024 0.119,-0.111C0.095,-0.158 0.083,-0.226 0.083,-0.314L0.083,-0.717L0.182,-0.717Z" style="fill:white;fill-rule:nonzero;"/>
                </g>
                <g transform="matrix(67.0742,0,0,63.5317,2377.75,1694.82)">
                    <path d="M0.14,-0.231C0.142,-0.191 0.152,-0.158 0.168,-0.132C0.201,-0.085 0.257,-0.061 0.339,-0.061C0.375,-0.061 0.409,-0.066 0.438,-0.077C0.496,-0.097 0.525,-0.133 0.525,-0.185C0.525,-0.224 0.513,-0.252 0.489,-0.269C0.464,-0.285 0.425,-0.299 0.373,-0.311L0.275,-0.333C0.212,-0.347 0.167,-0.363 0.141,-0.38C0.095,-0.41 0.072,-0.455 0.072,-0.515C0.072,-0.579 0.095,-0.632 0.139,-0.673C0.184,-0.715 0.247,-0.735 0.329,-0.735C0.404,-0.735 0.468,-0.717 0.52,-0.681C0.573,-0.645 0.599,-0.587 0.599,-0.507L0.508,-0.507C0.503,-0.545 0.493,-0.575 0.477,-0.595C0.447,-0.633 0.397,-0.651 0.326,-0.651C0.268,-0.651 0.227,-0.639 0.202,-0.615C0.177,-0.591 0.165,-0.563 0.165,-0.531C0.165,-0.496 0.179,-0.47 0.208,-0.454C0.228,-0.444 0.271,-0.431 0.339,-0.415L0.439,-0.392C0.488,-0.381 0.525,-0.366 0.552,-0.347C0.597,-0.313 0.62,-0.264 0.62,-0.201C0.62,-0.121 0.591,-0.064 0.533,-0.03C0.476,0.004 0.409,0.021 0.332,0.021C0.243,0.021 0.173,-0.002 0.123,-0.047C0.072,-0.093 0.047,-0.154 0.048,-0.231L0.14,-0.231Z" style="fill:white;fill-rule:nonzero;"/>
                </g>
            </g>
            <g transform="matrix(4.16667,0,0,4.16667,5629.55,6737.85)">
                <path d="M0,6.854L-16.416,6.854L-16.416,24.013C-17.25,24.193 -25.756,24.163 -26.338,23.988L-26.338,-17.126C-25.81,-17.293 -17.435,-17.339 -16.428,-17.168L-16.428,-1.431L0.008,-1.431C0.067,-4.08 0.029,-6.709 0.038,-9.341C0.042,-11.965 0.038,-14.594 0.038,-17.23L9.872,-17.23L9.872,23.992C9.298,24.168 0.78,24.193 0,24.001L0,6.854Z" style="fill:white;fill-rule:nonzero;"/>
            </g>
            <g transform="matrix(4.16667,0,0,4.16667,5926.62,6808.18)">
                <path d="M0,-27.217L0,-16.846C0,-16.67 0.008,-16.495 0,-16.32C-0.013,-15.944 0.159,-15.761 0.57,-15.773C2.306,-15.815 4.045,-15.786 5.768,-15.919C7.252,-16.032 8.64,-16.533 9.793,-17.451C11.692,-18.969 12.203,-20.947 11.729,-23.166C11.272,-25.306 9.767,-26.537 7.6,-27.138C5.613,-27.688 3.584,-27.576 1.559,-27.438C1.065,-27.405 0.574,-27.3 0,-27.217M0.008,-9.044L0.008,7.093C-0.662,7.285 -8.971,7.318 -9.734,7.139L-9.734,-33.6C-9.382,-33.667 -9.025,-33.746 -8.665,-33.792C-3.831,-34.372 1.023,-34.535 5.89,-34.418C8.543,-34.355 11.159,-34.009 13.687,-33.22C16.273,-32.411 18.453,-31.059 19.95,-28.882C21.987,-25.911 22.696,-20.504 19.736,-16.612C18.323,-14.755 16.596,-13.345 14.333,-12.528C14.194,-12.473 14.068,-12.39 13.863,-12.277C14.056,-12.144 14.161,-12.035 14.291,-11.981C16.349,-11.143 17.627,-9.612 18.554,-7.767C19.392,-6.099 19.849,-4.317 20.361,-2.548C21.094,-0.008 21.84,2.533 22.595,5.07C22.8,5.745 23.06,6.405 23.32,7.147C23.131,7.181 22.943,7.243 22.754,7.243C19.761,7.256 16.768,7.247 13.775,7.272C13.293,7.281 13.104,7.047 12.979,6.692C12.509,5.362 11.993,4.039 11.591,2.687C11.004,0.706 10.53,-1.305 9.952,-3.287C9.696,-4.18 9.378,-5.068 8.967,-5.907C8.17,-7.538 6.82,-8.56 4.909,-8.881C3.316,-9.153 1.723,-9.019 0.008,-9.044" style="fill:white;fill-rule:nonzero;"/>
            </g>
            <g transform="matrix(4.16667,0,0,4.16667,5775.62,6809.08)">
                <path d="M0,-27.284C-0.071,-27.276 -0.143,-27.267 -0.21,-27.259C-1.354,-21.652 -3.136,-16.195 -4.729,-10.692C-3.815,-10.517 4.418,-10.567 4.859,-10.709C3.282,-16.174 1.706,-21.635 0.126,-27.096C0.105,-27.163 0.042,-27.221 0,-27.284M-19.598,6.942C-15.112,-6.871 -10.656,-20.592 -6.187,-34.343L6.892,-34.343C11.419,-20.6 15.942,-6.875 20.495,6.942C20.239,6.976 20.017,7.03 19.795,7.03C16.693,7.038 13.595,7.043 10.493,7.043C9.847,7.043 9.822,7.013 9.65,6.467C8.64,3.296 7.617,0.126 6.636,-3.058C6.502,-3.492 6.284,-3.617 5.852,-3.608C4.729,-3.596 3.605,-3.604 2.482,-3.604C-0.055,-3.604 -2.595,-3.608 -5.135,-3.604C-6.263,-3.604 -6.179,-3.675 -6.473,-2.657C-7.357,0.418 -8.271,3.488 -9.16,6.563C-9.264,6.913 -9.445,7.059 -9.83,7.055C-12.903,7.043 -15.976,7.043 -19.049,7.03C-19.204,7.03 -19.355,6.984 -19.598,6.942" style="fill:white;fill-rule:nonzero;"/>
            </g>
            <g transform="matrix(4.16667,0,0,4.16667,6114.81,6703.98)">
                <path d="M0,23.104C0.075,22.925 0.176,22.754 0.218,22.566C1.32,17.318 2.88,12.178 4.494,7.055C6.125,1.882 7.764,-3.287 9.403,-8.456C9.625,-9.166 9.625,-9.157 10.383,-9.153C13.322,-9.145 16.261,-9.145 19.199,-9.141C19.484,-9.137 19.774,-9.141 20.159,-9.141C19.937,-8.473 19.761,-7.902 19.56,-7.334C16.911,0.058 14.261,7.451 11.612,14.848C9.608,20.434 7.608,26.024 5.609,31.611C5.378,32.245 5.378,32.257 4.641,32.257C1.22,32.266 -2.201,32.266 -5.621,32.27C-6.225,32.27 -6.238,32.266 -6.439,31.673C-7.667,28.065 -8.883,24.456 -10.111,20.847C-12.433,14.034 -14.76,7.226 -17.083,0.417C-18.101,-2.57 -19.116,-5.557 -20.13,-8.544C-20.185,-8.707 -20.218,-8.874 -20.281,-9.099L-9.466,-9.099C-9.34,-8.728 -9.206,-8.356 -9.088,-7.977C-6.85,-0.592 -4.573,6.779 -2.402,14.18C-1.572,17.009 -0.985,19.896 -0.285,22.758C-0.26,22.87 -0.218,22.979 -0.184,23.092C-0.122,23.096 -0.063,23.1 0,23.104" style="fill:white;fill-rule:nonzero;"/>
            </g>
            <g transform="matrix(4.16667,0,0,4.16667,5264.12,6689.21)">
                <path d="M0,27.539C0.042,27.585 0.084,27.635 0.126,27.681C0.268,27.627 0.411,27.581 0.553,27.522C3.282,26.329 6.016,25.132 8.749,23.939C10.95,22.979 13.155,22.02 15.359,21.068C15.741,20.906 16.022,20.743 16.018,20.255C15.988,18.273 16.013,16.292 16.013,14.31C16.013,14.172 15.988,14.03 15.976,13.893C15.921,13.855 15.867,13.822 15.812,13.788C10.543,18.378 5.269,22.954 0,27.539M-13.49,-26.437C-13.528,-26.375 -13.565,-26.312 -13.607,-26.245C-12.87,-26.078 -12.127,-25.978 -11.427,-25.745C-6.234,-24.03 -3.215,-20.605 -2.427,-15.478C-2.306,-14.689 -2.28,-13.875 -2.276,-13.075C-2.268,-1.318 -2.272,10.438 -2.272,22.199L-2.272,23.517C-2.033,23.371 -1.853,23.288 -1.71,23.167C4.661,17.735 11.033,12.295 17.401,6.855C17.954,6.383 18.499,5.895 19.007,5.382C23.303,1.089 30.841,0.434 36.093,4.001C39.308,6.187 41.103,9.149 41.522,12.85C41.597,13.496 41.635,14.151 41.635,14.802C41.639,27.239 41.639,39.675 41.639,52.112L41.639,53.764C41.098,53.939 38.214,53.976 37.225,53.818C37.213,53.584 37.192,53.342 37.192,53.1C37.192,40.464 37.196,27.823 37.187,15.186C37.187,14.41 37.158,13.63 37.066,12.858C36.672,9.566 33.767,6.888 30.245,6.534C28.64,6.375 27.034,6.317 25.466,6.713C21.983,7.593 19.682,10.392 19.594,13.78C19.581,14.235 19.594,14.685 19.594,15.14L19.594,51.469C19.594,52.045 19.619,52.621 19.623,53.2C19.623,53.417 19.594,53.634 19.577,53.897L-6.703,53.897C-6.716,53.622 -6.741,53.38 -6.741,53.142C-6.745,38.419 -6.745,23.697 -6.745,8.974C-6.745,1.31 -6.737,-6.354 -6.737,-14.013C-6.737,-17.601 -9.097,-20.559 -12.735,-21.356C-14.81,-21.815 -16.923,-21.823 -18.99,-21.206C-22.008,-20.304 -24.217,-17.497 -24.288,-14.51C-24.301,-14.134 -24.297,-13.759 -24.297,-13.379C-24.301,8.427 -24.301,30.234 -24.301,52.041L-24.301,53.868L-49.675,53.868C-49.696,53.626 -49.73,53.409 -49.73,53.192C-49.734,37.764 -49.747,22.341 -49.726,6.913C-49.713,1.369 -47.483,-3.312 -43.152,-7.063C-38.927,-10.722 -34.63,-14.314 -30.38,-17.947C-28.367,-19.67 -26.372,-21.418 -24.385,-23.171C-22.318,-24.998 -19.853,-25.949 -17.036,-26.212C-17.082,-26.287 -17.133,-26.362 -17.179,-26.437L-13.49,-26.437Z" style="fill:white;fill-rule:nonzero;"/>
            </g>
            <g transform="matrix(4.16667,0,0,4.16667,5186.48,6913.66)">
                <path d="M0,-53.993C0.251,-36.008 0.503,-18.027 0.75,0L-0.734,0C-0.931,-0.642 -0.495,-35.766 0,-53.993" style="fill:white;fill-rule:nonzero;"/>
            </g>
            <g transform="matrix(4.16667,0,0,4.16667,5218.22,6690.09)">
                <path d="M0,53.659C-0.252,35.724 -0.503,17.86 -0.75,0L-0.868,0C-1.111,17.872 -1.358,35.745 -1.606,53.659L0,53.659L-0.868,0L-1.606,53.659" style="fill:white;fill-rule:nonzero;"/>
            </g>
            <g transform="matrix(4.16667,0,0,4.16667,5372.83,6797.86)">
                <path d="M0,27.785L-1.585,27.785C-1.576,23.112 -1.32,18.486 -1.232,13.851C-1.149,9.233 -1.023,4.614 -0.914,0L-0.742,0C-0.495,9.245 -0.247,18.49 0,27.785" style="fill:white;fill-rule:nonzero;"/>
            </g>
            <g transform="matrix(-4.16667,0,0,4.16667,5394.75,6797.91)">
                <path d="M-1.601,27.781L0,27.781C-0.243,18.49 -0.486,9.245 -0.725,0L-0.855,0C-1.106,9.237 -1.354,18.478 -1.601,27.781" style="fill:white;fill-rule:nonzero;"/>
            </g>
            <g transform="matrix(4.16667,0,0,4.16667,6637.68,6808.96)">
                <path d="M0,-25.894C-0.562,-25.902 -1.119,-25.923 -1.681,-25.923C-4.754,-25.928 -7.826,-25.923 -10.899,-25.923L-11.855,-25.923C-11.985,-25.085 -11.901,-24.284 -11.918,-23.492C-11.93,-22.712 -11.918,-21.928 -11.918,-21.144L-11.918,7.671C-12.781,7.877 -21.274,7.868 -21.937,7.659L-21.937,-25.919L-33.649,-25.919L-33.649,-33.771L0,-33.771L0,-25.894Z" style="fill:white;fill-rule:nonzero;"/>
            </g>
            <g transform="matrix(4.16667,0,0,4.16667,6260.38,6741.65)">
                <path d="M0,6.41C-0.017,6.699 -0.038,6.917 -0.038,7.139L-0.038,15.393C-0.038,15.494 -0.042,15.595 -0.038,15.695C-0.008,16.211 0.042,16.261 0.566,16.282C0.885,16.295 1.203,16.282 1.526,16.282C6.791,16.286 12.056,16.291 17.321,16.295C17.527,16.295 17.736,16.316 17.996,16.333L17.996,23.828C17.321,24.016 -9.185,24.037 -9.96,23.84L-9.96,-17.48C-9.939,-17.501 -9.922,-17.522 -9.902,-17.539C-9.881,-17.556 -9.864,-17.581 -9.843,-17.581C-9.738,-17.602 -9.629,-17.627 -9.524,-17.627C-0.788,-17.627 7.952,-17.627 16.693,-17.623C16.793,-17.623 16.898,-17.593 16.99,-17.581C17.137,-17.116 17.191,-10.953 17.049,-9.968L0.138,-9.968C-0.113,-9.264 -0.096,-1.928 0.155,-1.249L16.097,-1.249L16.097,6.297C15.791,6.309 15.481,6.335 15.171,6.335C10.438,6.339 5.71,6.343 0.981,6.351C0.667,6.351 0.356,6.389 0,6.41" style="fill:white;fill-rule:nonzero;"/>
            </g>
            <g transform="matrix(4.16667,0,0,4.16667,6357.03,6676.02)">
                <path d="M0,37.795C0.679,35.183 1.337,32.664 2.008,30.09C2.209,30.157 2.381,30.199 2.536,30.27C4.645,31.226 6.841,31.926 9.143,32.291C11.26,32.63 13.389,32.865 15.51,32.392C16.307,32.215 17.116,31.972 17.833,31.603C20.411,30.279 20.83,27.219 18.747,25.261C17.904,24.464 16.89,23.894 15.804,23.463C14.131,22.792 12.429,22.205 10.748,21.555C8.38,20.641 6.179,19.472 4.313,17.795C3.035,16.646 2.004,15.334 1.35,13.792C1.027,13.029 0.792,12.203 0.696,11.385C0.092,6.305 2.557,1.937 7.349,-0.47C9.52,-1.564 11.851,-2.176 14.291,-2.419C17.342,-2.725 20.373,-2.578 23.379,-2.004C24.951,-1.706 26.489,-1.283 27.961,-0.671C28.103,-0.608 28.237,-0.528 28.426,-0.428C27.697,2.079 26.971,4.565 26.25,7.042C25.072,6.644 24.016,6.229 22.922,5.927C20.465,5.248 17.963,4.921 15.401,5.215C14.215,5.353 13.104,5.697 12.153,6.397C10.845,7.357 10.325,8.694 10.736,10.069C10.996,10.928 11.578,11.578 12.32,12.106C13.616,13.029 15.087,13.624 16.567,14.207C18.491,14.961 20.449,15.644 22.322,16.495C23.538,17.049 24.695,17.774 25.764,18.558C28.954,20.897 30.363,24.058 30.174,27.835C29.927,32.735 27.411,36.261 22.733,38.394C20.369,39.476 17.841,39.975 15.246,40.214C11.977,40.52 8.736,40.26 5.533,39.614C3.911,39.287 2.322,38.847 0.809,38.193C0.545,38.08 0.297,37.942 0,37.795" style="fill:white;fill-rule:nonzero;"/>
            </g>
        </g>
    </g>
</svg>