<?xml version="1.0" encoding="UTF-8" standalone="no"?>
<!DOCTYPE svg PUBLIC "-//W3C//DTD SVG 1.1//EN" "http://www.w3.org/Graphics/SVG/1.1/DTD/svg11.dtd">
<svg width="100%" height="100%" viewBox="0 0 2084 1321" version="1.1" xmlns="http://www.w3.org/2000/svg" xmlns:xlink="http://www.w3.org/1999/xlink" xml:space="preserve" xmlns:serif="http://www.serif.com/" style="fill-rule:evenodd;clip-rule:evenodd;stroke-linejoin:round;stroke-miterlimit:2;">
    <g transform="matrix(1,0,0,1,-6972.28,-411.921)">
        <g>
            <g transform="matrix(-4.16667,0,0,4.16667,16027.9,-5700.99)">
                <rect x="1673.35" y="1467.1" width="500" height="317" style="fill:rgb(225,37,28);"/>
            </g>
            <g transform="matrix(0,-4.16667,-4.16667,0,8488.52,1741.56)">
                <path d="M37.966,265.761L265.761,265.761L265.761,-37.966L113.898,-37.966L37.966,265.761Z" style="fill:rgb(225,37,28);fill-rule:nonzero;"/>
            </g>
            <g transform="matrix(4.16667,0,0,4.16667,0,-5786.87)">
                <rect x="1809.45" y="1618.34" width="10.277" height="35.133" style="fill:white;"/>
            </g>
            <g transform="matrix(4.16667,0,0,4.16667,7942.78,1061.26)">
                <path d="M0,2.465L-8.972,2.465L-8.972,-17.709L0.257,-17.709C7.053,-17.709 9.374,-12.787 9.374,-7.821C9.374,-2.258 6.312,2.465 0,2.465M12.742,-22.301C11.062,-23.493 9.292,-24.301 7.4,-24.712C5.513,-25.118 2.745,-25.317 -0.912,-25.317L-19.731,-25.317L-19.731,27.782L-8.972,27.782L-8.972,10.078L0.537,10.078C3.752,10.078 6.466,9.712 8.705,8.999C10.927,8.276 12.882,7.116 14.584,5.526C18.016,2.307 19.731,-1.883 19.731,-7.071C19.731,-13.925 17.397,-18.996 12.742,-22.301" style="fill:white;fill-rule:nonzero;"/>
            </g>
            <g transform="matrix(4.16667,0,0,4.16667,7818.52,1090.14)">
                <path d="M0,-29.1C-1.201,-30.297 -2.709,-31.114 -4.511,-31.565C-6.308,-32.017 -8.945,-32.247 -12.417,-32.247L-49.911,-32.247L-49.911,3.147L-39.562,3.147L-39.562,-24.639L-28.423,-24.639L-28.423,3.147L-18.074,3.147L-18.074,-24.639L-13.135,-24.639C-10.105,-24.639 -6.949,-24.219 -6.949,-18.074L-6.949,3.147L3.4,3.147L3.4,-19.88C3.4,-23.799 2.267,-26.883 0,-29.1" style="fill:white;fill-rule:nonzero;"/>
            </g>
            <g transform="matrix(4.16667,0,0,4.16667,8337.4,889.778)">
                <path d="M0,24.806C0,24.806 -0.56,24.246 -0.637,24.169C-9.021,15.69 -19.614,7.68 -31.606,0C-18.562,5.066 -6.597,11.694 4.38,19.88C4.47,19.948 5.301,20.62 5.301,20.62C5.301,20.62 3.111,22.255 2.501,22.729C1.896,23.208 0,24.806 0,24.806" style="fill:white;"/>
            </g>
            <g transform="matrix(4.16667,0,0,4.16667,8393.04,1104.31)">
                <path d="M0,-24.287C0,-24.287 1.151,-23.366 1.228,-23.298C8.994,-16.408 16.228,-8.646 22.96,0L3.097,0C1.923,-5.517 -0.826,-11.085 -4.809,-16.634C-4.863,-16.711 -5.518,-17.595 -5.518,-17.595C-5.518,-17.595 -4.484,-19.099 -3.07,-20.937C-1.657,-22.788 0,-24.287 0,-24.287" style="fill:white;"/>
            </g>
            <g transform="matrix(4.16667,0,0,4.16667,8241.34,889.78)">
                <path d="M0,51.487L19.858,51.487C23.596,33.946 43.292,15.754 67.917,0C40.935,10.476 18.575,27.633 0,51.487" style="fill:white;"/>
            </g>
            <g transform="matrix(4.16667,0,0,4.16667,7571.17,879.259)">
                <path d="M0,4.537C-1.282,5.819 -1.987,8.538 -2.271,10.289C-2.551,8.538 -3.255,5.819 -4.538,4.537C-5.816,3.255 -8.538,2.551 -10.295,2.266C-8.538,1.986 -5.816,1.277 -4.538,0.004C-3.255,-1.278 -2.551,-4.006 -2.271,-5.758C-1.987,-4.006 -1.282,-1.278 0,0.004C1.278,1.277 4,1.986 5.752,2.266C4,2.551 1.278,3.255 0,4.537M8.534,2.266C8.534,2.266 5.549,0.898 2.33,-2.326C-0.899,-5.55 -2.271,-8.534 -2.271,-8.534C-2.271,-8.534 -3.639,-5.55 -6.863,-2.326C-10.087,0.898 -13.071,2.266 -13.071,2.266C-13.071,2.266 -10.087,3.639 -6.863,6.867C-3.639,10.086 -2.271,13.071 -2.271,13.071C-2.271,13.071 -0.899,10.086 2.33,6.867C5.549,3.639 8.534,2.266 8.534,2.266" style="fill:white;fill-rule:nonzero;"/>
            </g>
            <g transform="matrix(4.16667,0,0,4.16667,8123.99,1068.54)">
                <path d="M0,-18.739L19.424,-18.739L19.424,-27.322L-0.506,-27.318C-3.563,-27.318 -6.141,-26.979 -8.263,-26.297C-10.371,-25.615 -12.232,-24.514 -13.844,-23.015C-17.099,-19.953 -18.706,-16.156 -18.706,-9.903C-18.706,-1.31 -16.246,2.767 -12.096,5.72C-10.498,6.853 -8.823,7.612 -7.035,8C-5.238,8.393 -2.605,8.583 0.867,8.583L19.424,8.583L19.424,-0.023L-0.248,0.053C-6.195,0.053 -7.757,-2.304 -7.757,-5.437L19.424,-5.437L19.424,-13.294L-7.757,-13.294C-7.757,-16.395 -5.423,-18.739 0,-18.739" style="fill:white;fill-rule:nonzero;"/>
            </g>
            <g transform="matrix(4.16667,0,0,4.16667,7417.64,1541.43)">
                <path d="M0,-208.981L0,-1.143L286.226,-72.699L286.226,-208.981L0,-208.981ZM-4.055,4.054L-4.055,-213.035L290.285,-213.035L290.285,-69.534L-4.055,4.054Z" style="fill:white;fill-rule:nonzero;"/>
            </g>
        </g>
    </g>
</svg>
