<?xml version="1.0" encoding="UTF-8" standalone="no"?>
<!DOCTYPE svg PUBLIC "-//W3C//DTD SVG 1.1//EN" "http://www.w3.org/Graphics/SVG/1.1/DTD/svg11.dtd">
<svg width="100%" height="100%" viewBox="0 0 2084 1321" version="1.1" xmlns="http://www.w3.org/2000/svg" xmlns:xlink="http://www.w3.org/1999/xlink" xml:space="preserve" xmlns:serif="http://www.serif.com/" style="fill-rule:evenodd;clip-rule:evenodd;stroke-linejoin:round;stroke-miterlimit:2;">
    <g transform="matrix(1,0,0,1,-4805.62,-411.921)">
        <g>
            <g transform="matrix(-4.16667,0,0,4.16667,11694.6,-5700.99)">
                <rect x="1153.35" y="1467.1" width="500" height="317" style="fill:rgb(234,31,39);"/>
            </g>
            <g transform="matrix(4.16667,0,0,4.16667,5266.63,1246.9)">
                <path d="M0,-12.502L-6.825,-12.502L-6.825,-17.958L13.442,-17.958L13.442,-12.502L6.59,-12.502L6.59,5.456L0,5.456L0,-12.502Z" style="fill:white;fill-rule:nonzero;"/>
            </g>
            <g transform="matrix(4.16667,0,0,4.16667,5416.12,1230.17)">
                <path d="M0,-4.474L-5.986,2.614L-7.161,2.614L-13.004,-4.446L-13.004,9.47L-19.566,9.47L-19.566,-13.944L-12.645,-13.944L-6.484,-6.018L-0.332,-13.944L6.557,-13.944L6.557,9.47L0,9.47L0,-4.474Z" style="fill:white;fill-rule:nonzero;"/>
            </g>
            <g transform="matrix(4.16667,0,0,4.16667,5483.86,1246.9)">
                <path d="M0,-12.502L-6.829,-12.502L-6.829,-17.958L13.437,-17.958L13.437,-12.502L6.585,-12.502L6.585,5.456L0,5.456L0,-12.502Z" style="fill:white;fill-rule:nonzero;"/>
            </g>
            <g transform="matrix(4.16667,0,0,4.16667,5639.89,1243.58)">
                <path d="M0,-10.672C-1.604,-11.87 -3.442,-12.271 -5.479,-12.271C-7.087,-12.271 -8.668,-11.764 -8.668,-10.534C-8.668,-8.93 -7.087,-8.695 -4.783,-8.46C-0.138,-7.962 4.719,-6.091 4.719,-0.7C4.719,4.613 -0.295,6.885 -5.548,6.922C-9.765,6.954 -12.769,6.221 -16.013,2.812L-12.373,-1.373C-10.069,0.871 -7.488,1.268 -5.516,1.268C-3.345,1.268 -1.843,0.494 -1.843,-0.806C-1.843,-1.976 -3.175,-2.714 -5.746,-2.944C-10.866,-3.41 -15.281,-4.723 -15.281,-10.534C-15.281,-15.483 -10.433,-17.626 -5.479,-17.626C-1.972,-17.626 0.76,-16.824 3.276,-14.852L0,-10.672Z" style="fill:white;fill-rule:nonzero;"/>
            </g>
            <g transform="matrix(4.16667,0,0,4.16667,5692.28,1246.9)">
                <path d="M0,-12.502L-6.825,-12.502L-6.825,-17.958L13.442,-17.958L13.442,-12.502L6.59,-12.502L6.59,5.456L0,5.456L0,-12.502Z" style="fill:white;fill-rule:nonzero;"/>
            </g>
            <g transform="matrix(4.16667,0,0,4.16667,5838.31,1172.07)">
                <path d="M0,23.414L-18.728,23.414L-18.728,0L-0.47,0L-0.47,5.557L-12.212,5.557L-12.212,8.894L-1.143,8.894L-1.143,14.295L-12.212,14.295L-12.212,17.824L0,17.824L0,23.414Z" style="fill:white;fill-rule:nonzero;"/>
            </g>
            <g transform="matrix(4.16667,0,0,4.16667,5931.92,1172.07)">
                <path d="M0,23.414L-18.723,23.414L-18.723,0L-0.47,0L-0.47,5.557L-12.212,5.557L-12.212,8.894L-1.134,8.894L-1.134,14.295L-12.212,14.295L-12.212,17.824L0,17.824L0,23.414Z" style="fill:white;fill-rule:nonzero;"/>
            </g>
            <g transform="matrix(4.16667,0,0,4.16667,5975.12,1269.64)">
                <path d="M0,-23.414L0,-5.617L11.202,-5.617L11.202,0L-6.626,0L-6.626,-23.414L0,-23.414Z" style="fill:white;fill-rule:nonzero;"/>
            </g>
            <g transform="matrix(4.16667,0,0,4.16667,6089.23,1193.54)">
                <path d="M0,13.11L5.576,13.11C7.258,13.11 8.055,12.207 8.055,10.903C8.055,9.636 7.221,8.659 5.576,8.659L0,8.659L0,13.11ZM0,3.779L5.281,3.779C6.654,3.779 7.387,3.078 7.387,2.041C7.387,1.005 6.654,0.198 5.345,0.198L0,0.198L0,3.779ZM5.456,-5.152C10.129,-5.152 13.944,-3.078 13.944,1.401C13.944,3.184 13.41,5.014 11.364,5.954C13.534,7.124 14.608,9.299 14.608,11.405C14.608,16.663 9.838,18.23 5.539,18.262L-6.521,18.262L-6.521,-5.152L5.456,-5.152Z" style="fill:white;fill-rule:nonzero;"/>
            </g>
            <g transform="matrix(4.16667,0,0,4.16667,6208.9,1242.34)">
                <path d="M0,-10.313L-3.014,-2.848L2.972,-2.848L0,-10.313ZM5.216,2.705L-5.253,2.705L-6.792,6.548L-13.815,6.548L-3.304,-16.861L3.387,-16.861L13.847,6.548L6.755,6.548L5.216,2.705Z" style="fill:white;fill-rule:nonzero;"/>
            </g>
            <g transform="matrix(4.16667,0,0,4.16667,6301.98,1247.59)">
                <path d="M0,-12.829L0,-7.216L4.88,-7.216C6.622,-7.216 7.391,-8.525 7.391,-9.93C7.391,-11.4 6.553,-12.829 4.806,-12.829L0,-12.829ZM15.041,5.29L7.755,5.29L2.309,-2.304L0,-2.304L0,5.29L-6.627,5.29L-6.627,-18.119L4.806,-18.119C10.801,-18.119 13.903,-14.276 13.903,-10.055C13.903,-7.184 12.907,-4.742 8.963,-3.004L15.041,4.885L15.041,5.29Z" style="fill:white;fill-rule:nonzero;"/>
            </g>
            <g transform="matrix(4.16667,0,0,4.16667,6437.11,1243.58)">
                <path d="M0,-10.672C-1.604,-11.87 -3.438,-12.271 -5.484,-12.271C-7.083,-12.271 -8.659,-11.764 -8.659,-10.534C-8.659,-8.93 -7.083,-8.695 -4.788,-8.46C-0.134,-7.962 4.719,-6.091 4.719,-0.7C4.719,4.613 -0.29,6.885 -5.544,6.922C-9.76,6.954 -12.774,6.221 -16.013,2.812L-12.368,-1.373C-10.064,0.871 -7.493,1.268 -5.516,1.268C-3.341,1.268 -1.834,0.494 -1.834,-0.806C-1.834,-1.976 -3.17,-2.714 -5.746,-2.944C-10.866,-3.41 -15.285,-4.723 -15.285,-10.534C-15.285,-15.483 -10.424,-17.626 -5.484,-17.626C-1.963,-17.626 0.774,-16.824 3.281,-14.852L0,-10.672Z" style="fill:white;fill-rule:nonzero;"/>
            </g>
            <g transform="matrix(4.16667,0,0,4.16667,5517.96,970.086)">
                <path d="M0,9.704C6.373,8.635 13.787,7.395 21.11,6.17L24.663,0.294L4.032,0.294L9.267,-11.917L39.833,-11.926L46.565,-23.078L-4.327,-23.078L-27.547,31.178L-46.469,6.746L-13.29,-23.078L-34.874,-23.078L-61.989,-1.503C-66.924,-0.194 -72.541,1.303 -78.283,2.833L-67.214,-23.078L-88.043,-23.078L-88.016,-17.622L-109.545,32.782L-91.08,32.782L-81.32,9.939L-65.786,8.414L-48.252,32.782L25.202,32.782L27.676,19.704L-4.281,19.704L0,9.704Z" style="fill:white;fill-rule:nonzero;"/>
            </g>
            <g transform="matrix(4.16667,0,0,4.16667,5965.24,1106.69)">
                <path d="M0,-55.869L-14.161,-20.077L-44.178,-55.869L-54.768,-55.869L-77.914,0L-59.38,0L-45.321,-33.741L-17.004,0L-3.373,0L17.336,-55.869L0,-55.869Z" style="fill:white;fill-rule:nonzero;"/>
            </g>
            <g transform="matrix(4.16667,0,0,4.16667,6448.47,1060.18)">
                <path d="M0,-33.539L3.935,-33.539L14.124,-11.544L-13.341,-11.544L0,-33.539ZM24.64,11.165L44.298,11.165L15.317,-44.704L-11.732,-44.704L-40.059,-1.918L-83.14,-1.918L-25.741,-38.129L-20.032,-44.704L-94.909,-44.704L-93.052,-33.539L-58.735,-33.539L-103.591,-7.429L-113.227,11.165L-27.105,11.165L-20.681,0.552C-15.41,-0.328 0.977,-3.065 16.82,-5.715L24.64,11.165Z" style="fill:white;fill-rule:nonzero;"/>
            </g>
            <g transform="matrix(4.16667,0,0,4.16667,6574.14,892.609)">
                <path d="M0,-1.881C0.539,-1.881 0.558,-1.001 0.014,-1.001L-0.742,-1.001L-0.742,-1.881L0,-1.881ZM0.682,-0.319C1.963,-0.683 1.82,-2.844 -0.042,-2.844L-1.825,-2.844L-1.825,1.073L-0.724,1.073L-0.724,-0.098L-0.272,-0.098L0.382,1.073L1.581,1.073L0.682,-0.319ZM-0.253,1.958C1.484,1.958 2.511,0.819 2.511,-0.941C2.511,-2.687 1.484,-3.826 -0.253,-3.826C-1.968,-3.826 -3.11,-2.623 -3.11,-0.941C-3.11,0.796 -1.968,1.958 -0.253,1.958M3.687,-0.941C3.687,1.326 2.263,3.004 -0.253,3.004C-2.742,3.004 -4.299,1.326 -4.299,-0.941C-4.299,-3.134 -2.742,-4.885 -0.253,-4.885C2.263,-4.885 3.687,-3.199 3.687,-0.941" style="fill:white;fill-rule:nonzero;"/>
            </g>
        </g>
    </g>
</svg>
