<svg width="100%" height="100%" viewBox="0 0 2084 1321" version="1.1" xmlns="http://www.w3.org/2000/svg" xmlns:xlink="http://www.w3.org/1999/xlink" xml:space="preserve" xmlns:serif="http://www.serif.com/" style="fill-rule:evenodd;clip-rule:evenodd;stroke-linejoin:round;stroke-miterlimit:2;">
    <g transform="matrix(1,0,0,1,-11305.6,-6095.62)">
        <g>
            <g transform="matrix(-4.16667,0,0,4.16667,24694.6,5666.4)">
                <rect x="2713.35" y="103.012" width="500" height="317" style="fill:rgb(12,126,193);"/>
            </g>
            <g transform="matrix(4.16667,0,0,4.16667,12639.3,7019.27)">
                <path d="M0,-27.562C2.279,-28.991 3.645,-28.277 3.99,-27.649C4.447,-26.82 4.423,-25.422 2.176,-23.802C2.176,-23.802 -13.241,-13.058 -14.21,-15.194C-14.21,-15.194 -16.048,-16.997 0,-27.562M18.188,-2.886C16.762,-6.003 12.606,-4.097 12.606,-4.097C8.794,-3.232 -9.442,3.152 -9.442,3.152C-21.368,7.103 -22.254,1.981 -22.254,1.981C-23.437,-1.961 -7.151,-8.981 -7.151,-8.981C6.253,-15.671 10.811,-19.252 10.811,-19.252C18.382,-24.445 18.204,-33.132 13.761,-37.234C11.911,-38.826 8.516,-39.397 4.462,-38.234C-8.29,-34.578 -18.911,-23.163 -23.028,-17.866C-25.513,-14.662 -27.348,-11.832 -28.178,-10.16C-29.13,-8.234 -30.992,-4.486 -30.679,-0.079C-30.496,2.529 -29.785,4.181 -29.785,4.181C-26.534,11.835 -17.001,11.832 -17.001,11.832C-4.308,11.832 12.772,3.899 12.772,3.899C15.663,2.251 19.271,1.012 18.188,-2.886" style="fill:white;fill-rule:nonzero;"/>
            </g>
            <g transform="matrix(4.16667,0,0,4.16667,12452.5,7063.01)">
                <path d="M0,-69.262C0,-69.262 -4.022,-60.329 -11.272,-38.702C-11.272,-38.702 -13.289,-38.428 -23.524,-36.281C-23.524,-36.281 -30.607,-34.728 -30.099,-30.742C-30.099,-30.742 -29.527,-26.946 -25.458,-27.586C-25.458,-27.586 -18.788,-28.796 -14.98,-29.459C-14.98,-29.459 -13.912,-29.602 -14.627,-27.562C-14.627,-27.562 -21.726,-4.732 -21.821,-1.747C-21.821,-1.747 -22.353,1.771 -19.018,1.894C-19.018,1.894 -16.207,2.16 -14.913,-2.025C-14.913,-2.025 -7.913,-23.397 -5.86,-28.53C-5.86,-28.53 -5.078,-31.278 -3.577,-31.278C-3.577,-31.278 17.056,-35.439 19.859,-36.281C19.859,-36.281 23.254,-36.9 22.948,-40.06C22.948,-40.06 22.968,-43.804 18.66,-43.026C18.66,-43.026 2.005,-40.148 -2.156,-39.842C-1.679,-41.704 -0.842,-43.983 0.06,-46.865C0.06,-46.865 4.836,-61.742 6.186,-66.435C6.17,-66.427 6.956,-69.147 4.963,-70.231C4.347,-70.564 1.501,-71.422 0,-69.262" style="fill:white;fill-rule:nonzero;"/>
            </g>
            <g transform="matrix(0.963495,4.05374,4.05374,-0.963495,12298.9,6841.89)">
                <path d="M3.776,-1.833C3.776,-1.833 7.16,-1.69 7.571,1.151C7.571,1.151 8.481,4.917 3.776,5.844C3.776,5.844 -0.587,6.648 -1.328,2.931C-1.35,2.838 -2.004,-2.062 3.776,-1.833" style="fill:white;fill-rule:nonzero;"/>
            </g>
            <g transform="matrix(4.16667,0,0,4.16667,12220.9,6926.69)">
                <path d="M0,31.437C0,31.437 9.147,-3.843 16.425,-3.561C16.425,-3.561 22.079,-3.958 16.334,10.625C16.334,10.625 8.572,29.206 5.582,33.446C5.586,33.446 5.582,33.446 5.582,33.446C5.554,33.39 4.459,35.395 1.862,34.744C1.167,34.574 -0.433,33.791 0,31.437" style="fill:white;fill-rule:nonzero;"/>
            </g>
            <g transform="matrix(4.16667,0,0,4.16667,12024.6,7113.6)">
                <path d="M0,-90.396C0,-90.396 -29.638,-25.259 -33.045,-17.342C-33.045,-17.342 -35.411,-11.99 -32.672,-10.922C-32.672,-10.922 -29.265,-9.219 -26.434,-15.424C-26.434,-15.424 -20.38,-28.82 -18.283,-33.97C-18.283,-33.97 -11.602,-48.918 -10.267,-49.414C-10.267,-49.414 -8.397,-52.066 0.147,-43.788C0.147,-43.788 25.231,-19.697 35.737,-1.338C37.988,3.319 45.837,0.207 43.372,-4.744C43.372,-4.744 40.009,-13.459 29.964,-24.659C29.964,-24.659 15.472,-41.863 -2.14,-55.132C-3.101,-56.136 -2.827,-57.089 0.004,-58.367C0.004,-58.367 24.04,-68.615 33.561,-72.724C33.561,-72.724 47.179,-79.47 51.062,-82.257C51.062,-82.257 55.307,-84.421 53.69,-87.537C53.69,-87.537 52.464,-90.209 48.263,-88.085C48.263,-88.085 21.428,-75.035 14.956,-72.514C14.956,-72.514 1.167,-66.459 -2.811,-65.661C-3.538,-65.514 -3.863,-65.645 -3.633,-66.288C-3.633,-66.288 5.936,-85.79 6.773,-88.121C6.773,-88.121 8.262,-92.21 4.621,-93.052C4.808,-93.052 2.08,-93.715 0,-90.396" style="fill:white;fill-rule:nonzero;"/>
            </g>
            <g transform="matrix(4.16667,0,0,4.16667,12371.6,6616.43)">
                <path d="M0,-2.303C0,-2.303 -4.872,6.809 -11.387,11.327C-11.387,11.327 -15.111,13.666 -18.665,12.864C-18.665,12.864 -22.643,11.53 -20.578,5.356C-20.578,5.356 -17.454,-4.28 -8.02,-9.958C-8.02,-9.958 -2.275,-13.158 0.155,-9.708C0.155,-9.708 2.374,-6.551 0,-2.303M6.98,-13.055C1.787,-23.306 -10.97,-15.056 -10.97,-15.056C-22.186,-8.334 -26.466,4.919 -26.466,4.919C-29.114,13.443 -24.437,17.366 -24.437,17.366C-19.994,21.003 -12.649,17.985 -12.649,17.985C-2.533,13.03 4.193,1.953 4.193,1.953C9.938,-7.425 6.98,-13.055 6.98,-13.055" style="fill:white;fill-rule:nonzero;"/>
            </g>
            <g transform="matrix(4.16667,0,0,4.16667,12259.3,6598.87)">
                <path d="M0,-17.188C0,-17.188 -25.656,-10.585 -31.723,-7.135C-31.723,-7.135 -34.915,-5.031 -32.664,-1.914C-32.664,-1.914 -31.278,-0.068 -28.186,-1.323C-28.186,-1.323 -16.334,-5.337 -12.788,-6.734C-11.161,-7.31 -10.494,-7.167 -10.172,-6.591C-9.894,-6.087 -10.228,-5.202 -11.002,-4.257C-11.002,-4.257 -20.888,7.67 -34.22,14.539C-34.22,14.539 -42.217,18.859 -45.393,12.979C-45.393,12.979 -48.247,9.171 -44.984,-0.108C-42.943,-5.285 -38.905,-13.583 -31.104,-21.571C-24.592,-28.233 -19.252,-32.335 -14.607,-34.602C-14.607,-34.602 -10.235,-36.333 -11.057,-30.488C-11.105,-29.047 -10.172,-27.82 -8.981,-27.542C-7.516,-27.205 -5.475,-27.892 -5.213,-30.187C-5.201,-31.187 -4.904,-36.46 -8.028,-39.104C-11.486,-42.03 -14.897,-41.073 -17.493,-40.271C-21.122,-39.148 -27.034,-36.635 -36.126,-27.269C-44.686,-17.851 -49.089,-8.394 -51.519,0.357C-51.519,0.357 -56.347,19.518 -43.142,22.515C-43.142,22.515 -33.442,24.842 -16.385,8.651L-1.155,-6.714C1.763,-10.002 4.05,-11.9 4.05,-13.746C4.05,-14.163 4.018,-15.985 2.581,-16.878C1.493,-17.553 0.294,-17.267 0,-17.188" style="fill:white;fill-rule:nonzero;"/>
            </g>
            <g transform="matrix(4.16667,0,0,4.16667,12283.8,7129.62)">
                <path d="M0,-5.412L-3.172,-5.412L-3.172,-7.933L6.066,-7.933L6.066,-5.412L2.894,-5.412L2.894,2.521L0,2.521L0,-5.412Z" style="fill:white;fill-rule:nonzero;"/>
            </g>
            <g transform="matrix(4.16667,0,0,4.16667,12311.8,7139.34)">
                <path d="M0,-7.932L2.799,-7.932L2.799,-6.253C3.172,-7.372 4.201,-8.119 5.412,-8.027L5.412,-5.038L5.134,-5.038C3.641,-5.038 2.799,-4.2 2.799,-2.334L2.799,0.187L-0.091,0.187L0,-7.932Z" style="fill:white;fill-rule:nonzero;"/>
            </g>
            <g transform="matrix(4.16667,0,0,4.16667,12357,7119.52)">
                <path d="M0,2.052L0,1.679C-0.374,1.584 -0.747,1.492 -1.12,1.492C-1.961,1.492 -2.426,1.865 -2.426,2.521C-2.426,2.985 -2.053,3.454 -1.493,3.454L-1.402,3.454C-0.655,3.545 -0.095,2.985 0,2.239L0,2.052M-5.225,2.707C-5.225,1.024 -3.919,0.186 -2.053,0.186C-1.402,0.186 -0.747,0.277 -0.095,0.464L-0.095,0.373C-0.095,-0.469 -0.655,-0.934 -1.68,-0.934C-2.426,-0.934 -3.172,-0.747 -3.919,-0.469L-4.479,-2.522C-3.454,-2.986 -2.335,-3.173 -1.215,-3.173C-0.095,-3.268 1.028,-2.895 1.866,-2.149C2.521,-1.402 2.799,-0.469 2.708,0.464L2.708,5.133L-0.095,5.133L-0.095,4.291C-0.747,4.946 -1.588,5.32 -2.521,5.32C-4.014,5.224 -5.225,4.291 -5.225,2.707" style="fill:white;fill-rule:nonzero;"/>
            </g>
            <g transform="matrix(4.16667,0,0,4.16667,12370.2,7140.52)">
                <path d="M0,-8.215L2.985,-8.215L4.574,-3.455L6.162,-8.215L9.147,-8.215L5.88,0L3.268,0L0,-8.215Z" style="fill:white;fill-rule:nonzero;"/>
            </g>
            <g transform="matrix(4.16667,0,0,4.16667,12431.6,7126.12)">
                <path d="M0,-1.306C-0.091,-2.239 -0.655,-2.799 -1.402,-2.799C-2.148,-2.799 -2.708,-2.239 -2.799,-1.306L0,-1.306ZM-5.507,-0.651C-5.598,-2.894 -3.828,-4.851 -1.588,-4.947L-1.402,-4.947C1.401,-4.947 2.708,-2.894 2.708,-0.464L2.708,0.096L-2.708,0.096C-2.521,0.933 -1.775,1.493 -0.933,1.402C-0.278,1.402 0.373,1.12 0.842,0.56L2.426,1.866C1.588,2.986 0.282,3.546 -1.12,3.546C-3.359,3.641 -5.32,1.962 -5.507,-0.278L-5.507,-0.651Z" style="fill:white;fill-rule:nonzero;"/>
            </g>
            <g transform="matrix(4.16667,0,0,4.16667,0,6389.46)">
                <rect x="2987.51" y="169.238" width="2.894" height="11.014" style="fill:white;"/>
            </g>
            <g transform="matrix(4.16667,0,0,4.16667,12505.5,7129.23)">
                <path d="M0,-5.225C0,-5.693 -0.282,-6.067 -0.747,-6.067L-0.842,-6.067C-1.306,-6.067 -1.679,-5.693 -1.679,-5.225L-1.679,-5.134C-1.679,-4.665 -1.493,-4.292 -1.12,-3.919C-0.373,-4.197 0,-4.665 0,-5.225M-0.187,0.187L-1.961,-1.584C-2.426,-1.398 -2.708,-0.933 -2.708,-0.465C-2.708,0.095 -2.148,0.56 -1.588,0.56L-1.493,0.56C-1.028,0.655 -0.56,0.469 -0.187,0.187M1.306,1.775C0.373,2.43 -0.651,2.894 -1.775,2.894C-3.919,2.894 -5.507,1.775 -5.507,-0.187C-5.507,-1.493 -4.665,-2.704 -3.359,-3.172C-3.828,-3.732 -4.014,-4.479 -4.014,-5.225C-4.014,-6.813 -2.799,-8.119 -0.747,-8.119C1.12,-8.119 2.334,-6.904 2.334,-5.412C2.334,-4.105 1.493,-3.264 0.282,-2.704L1.493,-1.584C1.866,-2.144 2.148,-2.704 2.521,-3.264L4.479,-2.331C4.105,-1.584 3.641,-0.838 3.081,-0.091L4.479,1.306L2.521,2.708L1.306,1.775Z" style="fill:white;fill-rule:nonzero;"/>
            </g>
            <g transform="matrix(4.16667,0,0,4.16667,12556.5,7129.62)">
                <path d="M0,-5.412L-3.172,-5.412L-3.172,-7.933L6.066,-7.933L6.066,-5.412L2.985,-5.412L2.985,2.521L0.091,2.521L0,-5.412Z" style="fill:white;fill-rule:nonzero;"/>
            </g>
            <g transform="matrix(4.16667,0,0,4.16667,12605.5,7123.01)">
                <path d="M0,0.095C0,-0.838 -0.747,-1.68 -1.68,-1.771C-2.613,-1.771 -3.359,-1.025 -3.359,-0.092L-3.359,0.004C-3.359,0.937 -2.613,1.774 -1.68,1.87C-0.838,1.87 0,1.123 0,0.095C-0.092,0.19 -0.092,0.095 0,0.095M-6.253,0.095C-6.253,-2.331 -4.292,-4.197 -1.866,-4.197L-1.775,-4.197C0.56,-4.292 2.612,-2.426 2.708,-0.092L2.708,0.004C2.612,2.521 0.464,4.387 -1.961,4.296C-4.292,4.296 -6.158,2.43 -6.253,0.095" style="fill:white;fill-rule:nonzero;"/>
            </g>
            <g transform="matrix(4.16667,0,0,4.16667,12621.4,7119.13)">
                <path d="M0,2.239L0,-3.081L2.894,-3.081L2.894,1.306C2.894,2.239 3.359,2.708 4.014,2.708C4.665,2.708 5.225,2.239 5.225,1.306L5.225,-3.081L8.119,-3.081L8.119,5.038L5.225,5.038L5.225,3.918C4.665,4.76 3.732,5.225 2.799,5.225C1.12,5.32 0,4.105 0,2.239" style="fill:white;fill-rule:nonzero;"/>
            </g>
            <g transform="matrix(4.16667,0,0,4.16667,12661.4,7139.34)">
                <path d="M0,-7.932L2.894,-7.932L2.894,-6.253C3.268,-7.372 4.292,-8.119 5.507,-8.027L5.507,-5.038L5.225,-5.038C3.732,-5.038 2.894,-4.2 2.894,-2.334L2.894,0.187L0,0.187L0,-7.932Z" style="fill:white;fill-rule:nonzero;"/>
            </g>
            <g transform="matrix(4.16667,0,0,4.16667,12685.9,7110.96)">
                <path d="M0,6.066L1.028,4.291C1.866,4.851 2.799,5.224 3.827,5.224C4.292,5.224 4.574,5.038 4.574,4.76C4.574,4.478 4.105,4.291 3.268,4.105C1.679,3.64 0.373,3.172 0.373,1.492C0.373,-0.279 1.775,-1.215 3.641,-1.215C4.852,-1.215 5.975,-0.842 7,-0.279L5.975,1.492C5.225,1.028 4.387,0.746 3.545,0.746C3.081,0.746 2.894,0.932 2.894,1.119C2.894,1.401 3.359,1.588 4.2,1.865C5.785,2.334 7.095,2.894 7.095,4.478C7.095,6.253 5.785,7.186 3.732,7.186C2.426,7.281 1.12,6.813 0,6.066" style="fill:white;fill-rule:nonzero;"/>
            </g>
            <g transform="matrix(4.16667,0,0,4.16667,12563.4,6690.37)">
                <path d="M0,37.583C-5.888,38.512 -9.501,35.634 -9.501,35.634C-16.171,30.742 -13.154,21.051 -13.154,21.051C-11.566,14.611 -14.925,12.558 -14.925,12.558C-19.157,10.2 -26.498,16.568 -26.498,16.568C-32.708,20.503 -37.925,16.239 -37.925,16.239C-42.892,12.435 -40.124,6.023 -40.124,6.023C-37.119,-0.929 -34.407,1.207 -34.407,1.207C-33.311,2.072 -36.741,7.357 -36.741,7.357C-39.457,12.697 -35.737,14.611 -35.737,14.611C-31.322,17.148 -25.565,11.53 -25.565,11.53C-19.419,6.694 -14.027,8.858 -14.027,8.858C-6.214,11.347 -9.045,23.29 -9.045,23.29C-10.521,31.131 -7.079,33.255 -7.079,33.255C-1.191,36.305 5.26,29.464 5.26,29.464L9.433,33.275C6.726,35.61 3.7,36.999 0,37.583" style="fill:white;fill-rule:nonzero;"/>
            </g>
            <g transform="matrix(4.16667,0,0,4.16667,12608.6,6579.75)">
                <path d="M0,-21.933L-31.917,-47.692C-32.759,-40.784 -37.798,-1.68 -44.146,25.759L0,-21.933Z" style="fill:white;fill-rule:nonzero;"/>
            </g>
            <g transform="matrix(4.16667,0,0,4.16667,12611.7,6687.08)">
                <path d="M0,-47.04L-43.491,0C-37.333,-4.014 -14.559,-17.266 27.625,-24.735L0,-47.04Z" style="fill:white;fill-rule:nonzero;"/>
            </g>
            <g transform="matrix(4.16667,0,0,4.16667,12611.3,6376.76)">
                <path d="M0,26.037L19.133,5.316C13.908,5.411 -14.746,5.411 -32.104,0L0,26.037Z" style="fill:white;fill-rule:nonzero;"/>
            </g>
            <g transform="matrix(4.16667,0,0,4.16667,12614.8,6495.35)">
                <path d="M0,-1.771L27.907,20.721C26.788,18.577 20.908,5.884 19.224,-22.492L0,-1.771Z" style="fill:white;fill-rule:nonzero;"/>
            </g>
        </g>
    </g>
</svg>