<?xml version="1.0" encoding="UTF-8" standalone="no"?>
<!DOCTYPE svg PUBLIC "-//W3C//DTD SVG 1.1//EN" "http://www.w3.org/Graphics/SVG/1.1/DTD/svg11.dtd">
<svg width="100%" height="100%" viewBox="0 0 3575 638" version="1.1" xmlns="http://www.w3.org/2000/svg" xmlns:xlink="http://www.w3.org/1999/xlink" xml:space="preserve" xmlns:serif="http://www.serif.com/" style="fill-rule:evenodd;clip-rule:evenodd;stroke-linejoin:round;stroke-miterlimit:2;">
    <g transform="matrix(1,0,0,1,-76.6396,-90.6642)">
        <g>
            <g transform="matrix(2.94628,2.94628,2.94628,-2.94628,881.959,281.013)">
                <rect x="-21.589" y="-52.121" width="43.178" height="43.178" style="fill:rgb(31,147,209);"/>
            </g>
            <g transform="matrix(2.94604,2.94652,2.94652,-2.94604,898.081,477.514)">
                <rect x="8.942" y="-21.59" width="43.171" height="43.178" style="fill:rgb(31,147,209);"/>
            </g>
            <g transform="matrix(2.94628,2.94628,2.94628,-2.94628,507.118,477.508)">
                <rect x="8.941" y="-21.591" width="43.181" height="43.181" style="fill:rgb(31,147,209);"/>
            </g>
            <g transform="matrix(2.94628,2.94628,2.94628,-2.94628,113.907,477.514)">
                <rect x="8.941" y="-21.59" width="43.178" height="43.178" style="fill:rgb(31,147,209);"/>
            </g>
            <g transform="matrix(-2.94628,2.94628,2.94628,2.94628,489.816,460.914)">
                <rect x="-21.585" y="-52.122" width="43.178" height="43.178" style="fill:rgb(31,147,209);"/>
            </g>
            <g transform="matrix(4.16667,0,0,4.16667,2367.08,283.861)">
                <path d="M0,70.786L0,13.559L-0.039,13.559L-0.039,0L16.854,0L16.854,70.786L0,70.786Z" style="fill:rgb(31,147,209);"/>
            </g>
            <g transform="matrix(4.16667,0,0,4.16667,1602.96,278.415)">
                <path d="M0,72.093L0,27.743C0,18.451 -4.186,13.806 -12.58,13.806C-15.079,13.806 -17.469,14.525 -19.79,15.991C-22.088,17.438 -23.724,19.105 -24.656,21.001L-24.656,72.093L-41.309,72.093L-41.309,25.175C-41.309,21.701 -42.4,18.923 -44.586,16.873C-46.744,14.819 -49.816,13.806 -53.773,13.806C-55.866,13.806 -58.14,14.568 -60.597,16.13C-63.076,17.662 -64.848,19.353 -65.966,21.202L-65.966,72.093L-82.615,72.093L-82.615,1.307L-66.097,1.307L-66.136,6.03C-61.866,2.286 -57.162,0 -49.839,0C-40.373,0 -33.256,2.549 -28.455,7.667C-26.362,5.326 -23.45,3.473 -19.721,2.077C-15.992,0.677 -12.259,0 -8.53,0C-0.569,0 5.621,2.259 10.03,6.765C14.467,11.284 16.676,17.477 16.676,25.376L16.676,72.093L0,72.093Z" style="fill:rgb(31,147,209);"/>
            </g>
            <g transform="matrix(4.16667,0,0,4.16667,3419.66,419.94)">
                <path d="M0,-19.373L-5.172,-19.373L-5.172,-32.661L0,-32.661L0,-58.818L16.653,-58.833L16.653,-32.661L36.261,-32.661L36.261,-19.373L16.653,-19.373L16.653,11.624C16.653,16.695 17.45,20.261 19.063,22.358C20.653,24.459 23.453,25.495 27.457,25.495C31.461,25.495 35.19,24.432 38.648,22.269L38.648,37.472C34.78,38.783 29.279,39.46 22.134,39.46C15.013,39.46 9.555,37.452 5.733,33.46C1.911,29.487 0,23.801 0,16.451L0,-19.373Z" style="fill:rgb(166,168,172);"/>
            </g>
            <g transform="matrix(4.16667,0,0,4.16667,2975.12,278.415)">
                <path d="M0,72.093L0,31.201C0,25.151 -1.16,20.753 -3.505,17.976C-5.826,15.202 -9.644,13.806 -14.924,13.806C-17.38,13.806 -19.972,14.483 -22.749,15.856C-25.523,17.21 -27.709,18.923 -29.256,20.935L-29.256,72.093L-45.905,72.093L-45.905,1.307L-29.225,1.307L-29.271,6.564C-25.96,3.392 -19.632,0 -10.808,0C-2.298,0 4.391,2.526 9.303,7.558C14.216,12.61 16.649,19.651 16.649,28.671L16.649,72.093L0,72.093Z" style="fill:rgb(166,168,172);"/>
            </g>
            <g transform="matrix(4.16667,0,0,4.16667,3366.34,410.381)">
                <path d="M0,10.08L-50.976,10.08C-50.659,15.724 -48.702,20.118 -45.108,23.236C-41.515,26.366 -36.668,27.924 -30.571,27.924C-22.974,27.924 -17.218,25.963 -13.261,22.056L-6.8,34.667C-12.649,39.382 -21.403,41.754 -33.051,41.754C-43.924,41.754 -52.543,38.57 -58.868,32.257C-65.192,25.94 -68.376,17.12 -68.376,5.794C-68.376,-5.347 -64.898,-14.395 -57.939,-21.3C-50.976,-28.216 -42.652,-31.674 -32.915,-31.674C-22.568,-31.674 -14.262,-28.626 -7.984,-22.495C-1.729,-16.379 1.412,-8.573 1.412,0.901C1.412,2.931 0.932,5.999 0,10.08M-50.385,-2.345L-15.33,-2.345C-16.471,-12.681 -22.25,-17.868 -32.641,-17.868C-42.149,-17.868 -48.063,-12.681 -50.385,-2.345" style="fill:rgb(166,168,172);"/>
            </g>
            <g transform="matrix(4.16667,0,0,4.16667,2665.04,327.865)">
                <path d="M0,53.162C-1.524,55.622 -4.162,57.634 -7.918,59.212C-11.671,60.767 -15.585,61.556 -19.678,61.556C-27.368,61.556 -33.395,59.638 -37.809,55.827C-42.195,52.013 -44.4,46.598 -44.4,39.608C-44.4,31.422 -41.286,24.993 -35.101,20.367C-28.888,15.74 -20.084,13.442 -8.669,13.442C-6.711,13.442 -4.414,13.76 -1.752,14.433C-1.752,6.108 -7.052,1.934 -17.674,1.934C-23.929,1.934 -29.186,2.975 -33.395,5.052L-36.989,-7.787C-31.256,-10.514 -24.451,-11.872 -16.537,-11.872C-5.64,-11.872 2.321,-9.411 7.392,-4.514C12.444,0.402 14.99,9.721 14.99,23.415L14.99,38.548C14.99,47.979 16.901,53.909 20.722,56.322C15.667,65.034 2.936,62.303 0,53.162M-1.617,26.912C-4.46,26.343 -6.572,26.049 -8.007,26.049C-21.156,26.049 -27.728,30.339 -27.728,38.888C-27.728,45.224 -24.022,48.404 -16.607,48.404C-6.599,48.404 -1.617,43.441 -1.617,33.519L-1.617,26.912Z" style="fill:rgb(31,147,209);"/>
            </g>
            <g transform="matrix(4.16667,0,0,4.16667,2228.26,179.549)">
                <path d="M0,95.821L0,91.535C-1.366,93.024 -3.71,94.332 -7.005,95.461C-10.282,96.587 -13.671,97.152 -17.198,97.152C-27.14,97.152 -34.985,94.018 -40.694,87.767C-46.381,81.497 -49.247,72.793 -49.247,61.579C-49.247,50.392 -45.971,41.301 -39.422,34.261C-32.869,27.225 -24.66,23.728 -14.785,23.728C-9.373,23.728 -4.437,24.834 0,27.02L0,-1.331L16.649,-1.312L16.649,95.821L0,95.821ZM0,41.951C-3.551,39.131 -7.257,37.739 -11.125,37.739C-17.786,37.739 -22.927,39.742 -26.525,43.781C-30.119,47.819 -31.913,53.591 -31.913,61.126C-31.913,75.834 -24.773,83.187 -10.464,83.187C-8.87,83.187 -6.893,82.715 -4.572,81.768C-2.232,80.824 -0.704,79.876 0,78.905L0,41.951Z" style="fill:rgb(31,147,209);"/>
            </g>
            <g transform="matrix(4.16667,0,0,4.16667,1994.19,410.381)">
                <path d="M0,10.08L-50.976,10.08M-50.976,10.08C-50.659,15.724 -48.702,20.118 -45.108,23.236C-41.514,26.366 -36.668,27.924 -30.571,27.924C-22.974,27.924 -17.218,25.963 -13.264,22.056L-6.8,34.667C-12.649,39.382 -21.407,41.754 -33.051,41.754C-43.924,41.754 -52.547,38.57 -58.871,32.257C-65.192,25.94 -68.38,17.12 -68.38,5.794C-68.38,-5.347 -64.898,-14.395 -57.935,-21.3C-50.976,-28.216 -42.652,-31.674 -32.915,-31.674C-22.568,-31.674 -14.262,-28.626 -7.984,-22.495C-1.729,-16.379 1.408,-8.573 1.408,0.901C1.408,2.931 0.932,5.999 0,10.08M-50.384,-2.345L-15.33,-2.345C-16.471,-12.681 -22.25,-17.868 -32.641,-17.868C-42.153,-17.868 -48.067,-12.681 -50.384,-2.345" style="fill:rgb(31,147,209);"/>
            </g>
            <g transform="matrix(4.16667,0,0,4.16667,1281.78,670.725)">
                <path d="M0,0.681L7.88,0.681L3.973,-8.216L0,0.681ZM-5.667,7.752L3.849,-12.947L4.147,-12.947L13.632,7.752L11.009,7.752L8.738,2.615L-0.894,2.615L-3.157,7.752L-5.667,7.752ZM38.946,4.901L38.946,-2.588C38.358,-2.874 37.785,-3.091 37.24,-3.238C36.695,-3.381 36.168,-3.45 35.662,-3.45C34.25,-3.45 33.113,-2.978 32.254,-2.038C31.391,-1.091 30.962,0.155 30.962,1.714C30.962,3.168 31.333,4.352 32.08,5.253C32.834,6.162 33.797,6.615 34.977,6.615C35.673,6.615 36.358,6.468 37.023,6.178C37.689,5.892 38.327,5.47 38.946,4.901M41.22,7.752L39.255,8.352L39.112,6.832C38.377,7.354 37.65,7.737 36.923,7.98C36.207,8.228 35.472,8.352 34.722,8.352C32.942,8.352 31.488,7.748 30.343,6.534C29.202,5.323 28.633,3.768 28.633,1.88C28.633,-0.174 29.302,-1.876 30.645,-3.238C31.991,-4.599 33.67,-5.276 35.689,-5.276C36.269,-5.276 36.826,-5.207 37.368,-5.067C37.905,-4.928 38.431,-4.727 38.946,-4.452L38.946,-12.111L41.22,-12.711L41.22,7.752ZM62.84,8.352L57.088,-4.789L59.56,-4.789L63.351,4.217L67.459,-4.789L69.428,-4.789L63.32,8.352L62.84,8.352ZM94.665,0.081C94.622,-1.064 94.266,-1.977 93.582,-2.665C92.901,-3.357 92.015,-3.706 90.924,-3.706C89.814,-3.706 88.843,-3.323 88.015,-2.561C87.187,-1.802 86.681,-0.812 86.507,0.402L94.665,0.081ZM95.995,4.267L95.872,6.526C95.094,7.11 94.266,7.555 93.388,7.861C92.518,8.17 91.62,8.321 90.7,8.321C88.785,8.321 87.214,7.721 85.984,6.511C84.762,5.304 84.147,3.764 84.147,1.876C84.147,-0.228 84.801,-1.961 86.108,-3.323C87.408,-4.684 89.056,-5.365 91.04,-5.365C92.808,-5.365 94.201,-4.835 95.23,-3.779C96.255,-2.727 96.765,-1.288 96.765,0.538C96.765,0.596 96.761,0.681 96.754,0.797C96.742,0.913 96.738,1.01 96.738,1.087L96.475,1.66L86.367,1.988C86.483,3.439 86.928,4.549 87.698,5.315C88.468,6.081 89.504,6.468 90.816,6.468C91.64,6.468 92.479,6.29 93.326,5.926C94.177,5.567 95.071,5.01 95.995,4.267M115.817,7.752L113.488,7.752L113.488,-4.789L115.762,-4.789L115.762,-2.878C116.54,-3.659 117.345,-4.243 118.192,-4.622C119.031,-5.005 119.936,-5.195 120.888,-5.195L120.888,-2.94C119.012,-2.8 117.7,-2.387 116.95,-1.706C116.196,-1.025 115.817,0.109 115.817,1.687L115.817,7.752ZM139.251,2.673C139.251,4.36 139.44,5.543 139.823,6.224C140.206,6.901 140.91,7.493 141.927,8.004L138.701,8.004C138.048,7.547 137.587,7.006 137.32,6.371C137.057,5.745 136.922,4.607 136.922,2.959L136.922,-2.998L134.284,-2.998L134.284,-4.789L136.922,-4.789L136.922,-8.673L139.251,-9.272L139.251,-4.789L142.786,-4.789L142.786,-2.998L139.251,-2.998L139.251,2.673ZM158.178,-9.442C158.178,-9.914 158.337,-10.313 158.658,-10.638C158.975,-10.963 159.366,-11.125 159.834,-11.125C160.31,-11.125 160.712,-10.963 161.041,-10.638C161.37,-10.313 161.532,-9.914 161.532,-9.442C161.532,-8.978 161.37,-8.584 161.041,-8.262C160.712,-7.945 160.31,-7.783 159.834,-7.783C159.373,-7.783 158.983,-7.945 158.662,-8.262C158.341,-8.584 158.178,-8.978 158.178,-9.442M161.014,7.752L158.7,7.752L158.7,-4.789L161.014,-5.392L161.014,7.752ZM178.274,4.615C179.129,5.238 179.937,5.706 180.707,6.023C181.485,6.336 182.2,6.499 182.85,6.499C183.535,6.499 184.092,6.336 184.517,6.008C184.943,5.687 185.152,5.265 185.152,4.762C185.152,3.934 184.394,3.195 182.862,2.553C182.819,2.534 182.769,2.522 182.726,2.503L181.527,2.012C180.285,1.513 179.434,0.983 178.97,0.437C178.502,-0.108 178.274,-0.804 178.274,-1.663C178.274,-2.812 178.634,-3.721 179.357,-4.386C180.077,-5.056 181.059,-5.392 182.305,-5.392C183.013,-5.392 183.732,-5.284 184.452,-5.071C185.171,-4.855 185.922,-4.53 186.699,-4.081L186.246,-2.124C185.519,-2.642 184.827,-3.029 184.181,-3.292C183.539,-3.551 182.931,-3.682 182.359,-3.682C181.755,-3.682 181.276,-3.532 180.916,-3.234C180.56,-2.94 180.378,-2.549 180.378,-2.065C180.378,-1.594 180.518,-1.214 180.8,-0.928C181.082,-0.646 181.782,-0.29 182.908,0.139L183.918,0.538C185.136,1.01 186.01,1.559 186.548,2.166C187.09,2.785 187.357,3.536 187.357,4.437C187.357,5.632 186.951,6.588 186.138,7.292C185.322,7.996 184.219,8.352 182.819,8.352C181.964,8.352 181.117,8.213 180.293,7.934C179.462,7.652 178.696,7.249 177.992,6.723L178.274,4.615ZM203.809,-9.442C203.809,-9.914 203.967,-10.313 204.288,-10.638C204.605,-10.963 204.996,-11.125 205.468,-11.125C205.94,-11.125 206.346,-10.963 206.667,-10.638C207,-10.313 207.162,-9.914 207.162,-9.442C207.162,-8.978 207,-8.584 206.667,-8.262C206.346,-7.945 205.94,-7.783 205.468,-7.783C205.008,-7.783 204.613,-7.945 204.292,-8.262C203.971,-8.584 203.809,-8.978 203.809,-9.442M206.644,7.752L204.331,7.752L204.331,-4.789L206.644,-5.392L206.644,7.752ZM226.898,7.752L224.624,7.752L224.624,-4.789L226.898,-4.789L226.898,-2.259C227.649,-3.195 228.473,-3.907 229.37,-4.402C230.268,-4.893 231.2,-5.137 232.159,-5.137C233.614,-5.137 234.72,-4.7 235.478,-3.818C236.233,-2.947 236.612,-1.667 236.612,-0.004L236.612,7.752L234.353,7.752L234.353,0.275C234.353,-0.909 234.136,-1.779 233.699,-2.332C233.262,-2.886 232.577,-3.164 231.645,-3.164C230.287,-3.164 229.157,-2.704 228.256,-1.771C227.351,-0.851 226.898,0.375 226.898,1.9L226.898,7.752ZM263.496,5.443L263.496,-2.592C262.908,-2.878 262.336,-3.094 261.79,-3.241C261.245,-3.385 260.719,-3.454 260.212,-3.454C258.804,-3.454 257.663,-2.982 256.804,-2.046C255.941,-1.098 255.512,0.147 255.512,1.706C255.512,3.215 255.899,4.406 256.673,5.292C257.442,6.17 258.483,6.615 259.794,6.615C260.297,6.615 260.835,6.522 261.403,6.344C261.98,6.17 262.676,5.868 263.496,5.443M263.496,7.149C262.804,7.551 262.123,7.849 261.446,8.038C260.777,8.228 260.096,8.321 259.415,8.321C257.551,8.321 256.046,7.71 254.901,6.487C253.756,5.261 253.183,3.652 253.183,1.66C253.183,-0.379 253.795,-2.027 255.025,-3.292C256.247,-4.561 257.848,-5.195 259.821,-5.195C260.355,-5.195 260.97,-5.137 261.682,-5.021C262.386,-4.905 263.206,-4.727 264.131,-4.487L265.771,-4.789L265.771,6.178C265.771,7.69 265.701,8.801 265.558,9.501C265.407,10.197 265.163,10.812 264.823,11.346C264.293,12.139 263.554,12.75 262.591,13.176C261.632,13.605 260.518,13.818 259.249,13.818C258.425,13.818 257.605,13.717 256.792,13.504C255.984,13.296 255.183,12.982 254.39,12.572L254.015,9.837L255.709,10.94C256.131,11.218 256.68,11.45 257.365,11.636C258.046,11.818 258.703,11.915 259.33,11.915C260.657,11.915 261.686,11.586 262.409,10.932C263.133,10.278 263.496,9.342 263.496,8.124L263.496,7.149ZM297.742,-5.442C298.752,-6.135 299.475,-6.762 299.912,-7.319C300.349,-7.876 300.566,-8.452 300.566,-9.032C300.566,-9.698 300.318,-10.251 299.835,-10.688C299.348,-11.125 298.729,-11.345 297.978,-11.345C297.286,-11.345 296.717,-11.129 296.264,-10.696C295.816,-10.262 295.591,-9.705 295.591,-9.032C295.591,-8.58 295.777,-8.034 296.152,-7.411C296.527,-6.785 297.057,-6.127 297.742,-5.442M303.204,4.027L297.351,-2.53C295.97,-1.663 294.969,-0.82 294.342,-0.019C293.715,0.782 293.402,1.629 293.402,2.507C293.402,3.594 293.808,4.499 294.605,5.219C295.406,5.946 296.411,6.309 297.626,6.309C298.593,6.309 299.541,6.112 300.473,5.725C301.405,5.338 302.314,4.778 303.204,4.027M304.647,5.613C303.46,6.549 302.268,7.249 301.077,7.717C299.881,8.174 298.686,8.406 297.491,8.406C295.588,8.406 294.033,7.884 292.826,6.832C291.619,5.776 291.019,4.422 291.019,2.77C291.019,1.443 291.418,0.209 292.222,-0.94C293.027,-2.096 294.245,-3.172 295.874,-4.185C295.042,-5.11 294.431,-5.969 294.044,-6.742C293.657,-7.516 293.46,-8.262 293.46,-8.978C293.46,-10.185 293.882,-11.175 294.729,-11.961C295.576,-12.746 296.659,-13.137 297.982,-13.137C299.32,-13.137 300.446,-12.723 301.355,-11.879C302.268,-11.036 302.725,-9.999 302.725,-8.75C302.725,-7.868 302.434,-7.032 301.854,-6.235C301.274,-5.446 300.38,-4.661 299.162,-3.884L304.736,2.453C305.185,1.923 305.575,1.37 305.912,0.801C306.245,0.232 306.535,-0.367 306.771,-1.002L308.662,-0.22C308.399,0.53 308.063,1.269 307.649,1.981C307.227,2.693 306.736,3.397 306.167,4.081L309.417,7.752L306.573,7.752L304.647,5.613ZM332.77,7.752L336.909,-13.086L337.133,-13.086L344.15,3.311L351.179,-13.086L351.419,-13.086L355.449,7.752L353.063,7.752L350.467,-6.154L344.289,8.433L343.968,8.433L337.709,-6.1L335.001,7.752L332.77,7.752ZM381.607,5.443L381.607,-2.592C381.019,-2.878 380.446,-3.094 379.901,-3.241C379.355,-3.385 378.829,-3.454 378.322,-3.454C376.914,-3.454 375.769,-2.982 374.915,-2.046C374.052,-1.098 373.619,0.147 373.619,1.706C373.619,3.215 374.005,4.406 374.779,5.292C375.553,6.17 376.589,6.615 377.905,6.615C378.408,6.615 378.945,6.522 379.514,6.344C380.09,6.17 380.783,5.868 381.607,5.443M384.137,7.752L382.125,8.352C382.063,8.201 382.005,8.038 381.955,7.849C381.916,7.659 381.85,7.385 381.773,7.017C380.988,7.466 380.237,7.787 379.525,8.004C378.806,8.216 378.114,8.321 377.441,8.321C375.622,8.321 374.149,7.702 373.004,6.468C371.862,5.238 371.29,3.633 371.29,1.66C371.29,-0.406 371.909,-2.065 373.147,-3.315C374.377,-4.568 376.021,-5.195 378.071,-5.195C378.593,-5.195 379.146,-5.145 379.719,-5.044C380.295,-4.94 380.934,-4.785 381.634,-4.568L383.885,-4.789L383.885,4.979C383.885,5.393 383.901,5.81 383.939,6.251C383.982,6.681 384.04,7.187 384.137,7.752M404.089,7.752L401.815,7.752L401.815,-4.789L404.089,-4.789L404.089,-2.259C404.836,-3.195 405.664,-3.907 406.561,-4.402C407.458,-4.893 408.387,-5.137 409.35,-5.137C410.801,-5.137 411.911,-4.7 412.669,-3.818C413.423,-2.947 413.802,-1.667 413.802,-0.004L413.802,7.752L411.539,7.752L411.539,0.275C411.539,-0.909 411.327,-1.779 410.89,-2.332C410.452,-2.886 409.768,-3.164 408.832,-3.164C407.478,-3.164 406.348,-2.704 405.447,-1.771C404.538,-0.851 404.089,0.375 404.089,1.9L404.089,7.752ZM440.687,5.443L440.687,-2.592C440.099,-2.878 439.527,-3.094 438.981,-3.241C438.436,-3.385 437.91,-3.454 437.399,-3.454C435.991,-3.454 434.854,-2.982 433.991,-2.046C433.132,-1.098 432.699,0.147 432.699,1.706C432.699,3.215 433.09,4.406 433.859,5.292C434.629,6.17 435.67,6.615 436.985,6.615C437.488,6.615 438.026,6.522 438.594,6.344C439.171,6.17 439.863,5.868 440.687,5.443M443.217,7.752L441.205,8.352C441.143,8.201 441.085,8.038 441.035,7.849C440.993,7.659 440.931,7.385 440.853,7.017C440.068,7.466 439.318,7.787 438.602,8.004C437.89,8.216 437.194,8.321 436.517,8.321C434.703,8.321 433.229,7.702 432.084,6.468C430.943,5.238 430.37,3.633 430.37,1.66C430.37,-0.406 430.993,-2.065 432.227,-3.315C433.457,-4.568 435.101,-5.195 437.151,-5.195C437.674,-5.195 438.223,-5.145 438.799,-5.044C439.376,-4.94 440.01,-4.785 440.714,-4.568L442.962,-4.789L442.962,4.979C442.962,5.393 442.985,5.81 443.02,6.251C443.058,6.681 443.12,7.187 443.217,7.752M470.156,5.443L470.156,-2.592C469.568,-2.878 468.995,-3.094 468.454,-3.241C467.9,-3.385 467.378,-3.454 466.871,-3.454C465.46,-3.454 464.318,-2.982 463.463,-2.046C462.601,-1.098 462.168,0.147 462.168,1.706C462.168,3.215 462.558,4.406 463.328,5.292C464.098,6.17 465.139,6.615 466.454,6.615C466.957,6.615 467.494,6.522 468.063,6.344C468.635,6.17 469.332,5.868 470.156,5.443M470.156,7.149C469.459,7.551 468.779,7.849 468.105,8.038C467.432,8.228 466.755,8.321 466.071,8.321C464.21,8.321 462.705,7.71 461.56,6.487C460.415,5.261 459.839,3.652 459.839,1.66C459.839,-0.379 460.454,-2.027 461.68,-3.292C462.906,-4.561 464.508,-5.195 466.481,-5.195C467.011,-5.195 467.634,-5.137 468.341,-5.021C469.042,-4.905 469.866,-4.727 470.786,-4.487L472.43,-4.789L472.43,6.178C472.43,7.69 472.361,8.801 472.214,9.501C472.067,10.197 471.823,10.812 471.479,11.346C470.952,12.139 470.214,12.75 469.25,13.176C468.295,13.605 467.177,13.818 465.908,13.818C465.08,13.818 464.264,13.717 463.452,13.504C462.643,13.296 461.843,12.982 461.05,12.572L460.671,9.837L462.365,10.94C462.787,11.218 463.336,11.45 464.024,11.636C464.701,11.818 465.359,11.915 465.986,11.915C467.316,11.915 468.345,11.586 469.069,10.932C469.792,10.278 470.156,9.342 470.156,8.124L470.156,7.149ZM489.907,-9.442C489.907,-9.914 490.066,-10.313 490.387,-10.638C490.704,-10.963 491.095,-11.125 491.567,-11.125C492.039,-11.125 492.441,-10.963 492.77,-10.638C493.098,-10.313 493.261,-9.914 493.261,-9.442C493.261,-8.978 493.098,-8.584 492.77,-8.262C492.441,-7.945 492.039,-7.783 491.567,-7.783C491.106,-7.783 490.716,-7.945 490.391,-8.262C490.07,-8.584 489.907,-8.978 489.907,-9.442M492.743,7.752L490.429,7.752L490.429,-4.789L492.743,-5.392L492.743,7.752ZM512.997,7.752L510.722,7.752L510.722,-4.789L512.997,-4.789L512.997,-2.259C513.747,-3.195 514.571,-3.907 515.473,-4.402C516.366,-4.893 517.295,-5.137 518.262,-5.137C519.708,-5.137 520.819,-4.7 521.573,-3.818C522.331,-2.947 522.71,-1.667 522.71,-0.004L522.71,7.752L520.447,7.752L520.447,0.275C520.447,-0.909 520.234,-1.779 519.797,-2.332C519.36,-2.886 518.676,-3.164 517.74,-3.164C516.386,-3.164 515.256,-2.704 514.355,-1.771C513.45,-0.851 512.997,0.375 512.997,1.9L512.997,7.752ZM549.595,5.443L549.595,-2.592C549.007,-2.878 548.438,-3.094 547.889,-3.241C547.344,-3.385 546.817,-3.454 546.311,-3.454C544.899,-3.454 543.761,-2.982 542.903,-2.046C542.04,-1.098 541.607,0.147 541.607,1.706C541.607,3.215 542.001,4.406 542.767,5.292C543.541,6.17 544.578,6.615 545.893,6.615C546.396,6.615 546.933,6.522 547.502,6.344C548.075,6.17 548.771,5.868 549.595,5.443M549.595,7.149C548.902,7.551 548.218,7.849 547.545,8.038C546.875,8.228 546.195,8.321 545.514,8.321C543.649,8.321 542.145,7.71 541,6.487C539.858,5.261 539.282,3.652 539.282,1.66C539.282,-0.379 539.893,-2.027 541.119,-3.292C542.346,-4.561 543.947,-5.195 545.92,-5.195C546.454,-5.195 547.073,-5.137 547.781,-5.021C548.485,-4.905 549.305,-4.727 550.229,-4.487L551.873,-4.789L551.873,6.178C551.873,7.69 551.8,8.801 551.657,9.501C551.506,10.197 551.262,10.812 550.918,11.346C550.392,12.139 549.653,12.75 548.69,13.176C547.73,13.605 546.616,13.818 545.347,13.818C544.524,13.818 543.703,13.717 542.895,13.504C542.083,13.296 541.286,12.982 540.489,12.572L540.11,9.837L541.804,10.94C542.23,11.218 542.779,11.45 543.464,11.636C544.144,11.818 544.802,11.915 545.425,11.915C546.755,11.915 547.784,11.586 548.508,10.932C549.231,10.278 549.595,9.342 549.595,8.124L549.595,7.149Z" style="fill:rgb(35,31,32);"/>
            </g>
            <g transform="matrix(4.16667,0,0,4.16667,2406.54,260.195)">
                <path d="M0,-20.866C5.682,-20.866 10.375,-16.174 10.375,-10.491C10.375,-4.697 5.682,0 0,0C-5.795,0 -10.491,-4.697 -10.491,-10.491C-10.491,-16.174 -5.795,-20.866 0,-20.866M3.489,-18.406C6.015,-18.406 8.062,-16.356 8.062,-13.826C8.062,-11.3 6.015,-9.199 3.489,-9.199C0.955,-9.199 -1.141,-11.3 -1.141,-13.826C-1.141,-16.356 0.955,-18.406 3.489,-18.406" style="fill:rgb(31,147,209);"/>
            </g>
            <g transform="matrix(4.16667,0,0,4.16667,3604.17,98.4767)">
                <path d="M0,18.747C-5.177,18.747 -9.374,14.55 -9.374,9.373C-9.374,4.196 -5.177,-0.001 0,-0.001C5.177,-0.001 9.374,4.196 9.374,9.373C9.374,14.55 5.177,18.747 0,18.747M0,-1.875C-6.212,-1.875 -11.248,3.161 -11.248,9.373C-11.248,15.586 -6.212,20.622 0,20.622C6.212,20.622 11.249,15.586 11.249,9.373C11.249,3.161 6.212,-1.875 0,-1.875" style="fill:rgb(3,4,5);fill-rule:nonzero;"/>
            </g>
            <g transform="matrix(4.16667,0,0,4.16667,3605.69,141.52)">
                <path d="M0,-1.591C-0.211,-1.563 -0.601,-1.552 -1.799,-1.544L-3.328,-1.533L-3.328,-5.197L-1.728,-5.186C-0.443,-5.178 -0.074,-5.168 0.152,-5.138C0.559,-5.084 0.776,-5.023 1.055,-4.883C1.505,-4.658 1.801,-4.285 1.925,-3.788C1.966,-3.621 1.972,-3.543 1.962,-3.307C1.942,-2.821 1.801,-2.496 1.464,-2.156C1.32,-2.01 1.234,-1.946 1.101,-1.882C0.786,-1.732 0.516,-1.66 0,-1.591M4.838,5.188C4.814,5.152 4.638,4.87 4.445,4.561C4.253,4.252 3.878,3.651 3.613,3.225C2.892,2.067 2.458,1.443 2.014,0.929C1.547,0.389 1.345,0.222 0.871,-0.014L0.6,-0.149L0.739,-0.166C1.802,-0.297 2.504,-0.627 3.126,-1.289C3.727,-1.926 4.033,-2.688 4.034,-3.547C4.034,-4.053 3.954,-4.404 3.727,-4.885C3.56,-5.239 3.372,-5.508 3.094,-5.788C2.544,-6.341 1.933,-6.607 0.914,-6.733C0.244,-6.817 0.047,-6.822 -2.607,-6.833L-5.272,-6.843L-5.272,5.252L-3.327,5.252L-3.327,0.12L-2.607,0.121C-1.635,0.121 -1.276,0.172 -0.902,0.36C-0.467,0.58 -0.001,1.075 0.557,1.913C0.91,2.444 1.039,2.663 1.882,4.163C1.947,4.279 2.039,4.442 2.086,4.526C2.133,4.61 2.244,4.807 2.333,4.965L2.494,5.252L4.88,5.252L4.838,5.188Z" style="fill:rgb(3,4,5);fill-rule:nonzero;"/>
            </g>
        </g>
    </g>
</svg>
