<?xml version="1.0" encoding="UTF-8" standalone="no"?>
<!DOCTYPE svg PUBLIC "-//W3C//DTD SVG 1.1//EN" "http://www.w3.org/Graphics/SVG/1.1/DTD/svg11.dtd">
<svg width="100%" height="100%" viewBox="0 0 2084 1321" version="1.1" xmlns="http://www.w3.org/2000/svg" xmlns:xlink="http://www.w3.org/1999/xlink" xml:space="preserve" xmlns:serif="http://www.serif.com/" style="fill-rule:evenodd;clip-rule:evenodd;stroke-linejoin:round;stroke-miterlimit:2;">
    <g transform="matrix(1,0,0,1,-11305.6,-1833.66)">
        <g>
            <g transform="matrix(-4.16667,0,0,4.16667,24694.6,-2857.51)">
                <rect x="2713.35" y="1125.88" width="500" height="317"/>
            </g>
            <g transform="matrix(4.16667,0,0,4.16667,12125.5,2796.16)">
                <path d="M0,-163.948L24.239,-164.247C23.764,-163.011 22.46,-159.987 19.716,-155.624C19.409,-155.133 18.938,-154.399 18.459,-153.653C14.598,-147.631 9.904,-140.315 13.462,-137.655C16.274,-135.549 21.02,-137.16 26.504,-139.019C28.495,-139.697 30.597,-140.407 32.731,-140.974C35.048,-141.584 37.585,-142.102 40.181,-142.633C46.348,-143.897 52.833,-145.225 57.807,-148.037L58.732,-148.56C64.795,-151.994 69.45,-154.635 77.028,-154.635C81.268,-154.635 83.721,-154.694 85.109,-154.754L85.281,-145.417C83.689,-144.647 81.069,-143.02 77.176,-139.582C74.033,-136.809 70.547,-134.707 66.275,-133.024C61.892,-131.297 56.678,-130.005 50.197,-128.892C45.881,-128.154 41.721,-126.79 37.764,-125.494L37.764,-125.49C29.767,-122.873 22.635,-120.54 17.183,-124.712C8.831,-131.106 -0.211,-149.019 -0.239,-149.07L-0.586,-149.748L-0.738,-149.645L0,-163.948ZM26.245,-164.271L39.994,-164.439C39.045,-163.374 37.872,-161.806 37.23,-160.015C36.612,-158.276 36.025,-156.055 36.001,-154.212C35.981,-152.736 36.316,-151.492 37.254,-150.861C38.291,-150.167 39.539,-149.776 41.207,-149.972C42.866,-150.163 44.9,-150.929 47.5,-152.545C51.804,-155.217 53.396,-156.469 54.991,-157.726L55.083,-157.802L55.55,-158.169C56.379,-158.815 57.321,-159.724 57.943,-160.693C58.37,-161.367 58.645,-162.057 58.637,-162.711C58.629,-163.322 58.365,-163.88 57.739,-164.323C57.572,-164.439 57.38,-164.546 57.153,-164.65L84.922,-164.993L85.073,-156.761C83.669,-156.725 81.504,-156.693 78.193,-156.693C69.925,-156.693 64.923,-153.857 58.409,-150.163L57.484,-149.641C53.045,-147.132 46.811,-145.856 40.896,-144.643C38.243,-144.101 35.65,-143.57 33.285,-142.944C31.087,-142.366 28.91,-141.628 26.844,-140.926C21.914,-139.255 17.646,-137.807 15.392,-139.49C12.664,-141.532 16.868,-148.093 20.326,-153.486C20.721,-154.104 21.108,-154.702 21.603,-155.488C24.227,-159.664 25.623,-162.735 26.245,-164.271M42.124,-164.463L49.618,-164.558C49.894,-164.463 50.165,-164.363 50.44,-164.259C51.469,-163.884 52.602,-163.465 54.568,-162.987C55.135,-162.851 55.55,-162.672 55.837,-162.468C56.196,-162.217 56.343,-161.934 56.347,-161.643C56.351,-161.391 56.24,-161.12 56.068,-160.849C55.729,-160.318 55.167,-159.788 54.664,-159.393L54.66,-159.389L54.193,-159.022L54.094,-158.95C52.574,-157.754 51.063,-156.561 47.022,-154.052C44.948,-152.764 43.372,-152.162 42.132,-152.018C40.907,-151.875 39.954,-152.182 39.144,-152.724C38.502,-153.159 38.271,-154.1 38.287,-155.237C38.311,-156.868 38.837,-158.87 39.4,-160.446C40.074,-162.329 41.478,-163.84 42.124,-164.463M85.313,-143.738L85.736,-120.588C73.403,-118.845 27.538,-111.573 29.927,-100.054C31.422,-92.827 35.375,-82.724 42.056,-75.369C46.982,-69.948 53.388,-66.003 61.397,-65.72C73.419,-65.293 82.146,-65.704 86.737,-66.043L87.634,-17.079C84.34,-17.37 76.793,-17.418 59.901,-16.477C26.125,-14.594 17.933,-34.892 15.189,-41.685L15.069,-41.98C13.083,-46.886 1.572,-71.021 -4.176,-83.027L-0.985,-144.847C1.911,-139.546 8.767,-127.839 15.249,-122.877C21.24,-118.29 28.854,-120.783 37.389,-123.579L37.393,-123.579L37.393,-123.575C41.239,-124.836 45.279,-126.16 49.399,-126.866C56.072,-128.01 61.477,-129.355 66.092,-131.169C70.822,-133.036 74.723,-135.393 78.273,-138.532C82.122,-141.931 84.252,-143.239 85.313,-143.738M85.771,-118.597L86.091,-101.327C83.199,-102.607 79.103,-102.942 74.097,-103.353C71.01,-103.604 67.559,-103.887 63.91,-104.438C57.245,-105.439 54.788,-104.446 54.381,-102.1C54.09,-100.417 55.111,-98.216 56.331,-95.587C57.197,-93.72 58.17,-91.618 58.792,-89.453C61.002,-81.794 79.497,-78.32 86.529,-77.267L86.701,-68.014C82.226,-67.683 73.542,-67.264 61.473,-67.691C54.154,-67.946 48.246,-71.607 43.671,-76.645C37.258,-83.709 33.457,-93.449 32.009,-100.425C30.01,-110.062 73.379,-116.858 85.771,-118.597M86.134,-98.917L86.493,-79.274C79.529,-80.319 62.705,-83.501 60.843,-89.963C60.177,-92.276 59.171,-94.442 58.278,-96.365C57.193,-98.71 56.28,-100.68 56.471,-101.789C56.662,-102.89 58.477,-103.257 63.575,-102.491C67.38,-101.917 70.83,-101.634 73.913,-101.383C79.37,-100.936 83.622,-100.589 86.134,-98.917M87.65,-16.102L87.822,-6.908L19.273,-4.355C13.525,-5.592 8.209,-7.897 4.675,-11.966C0.762,-16.473 -3.199,-20.326 -7.251,-23.505L-4.463,-77.523C1.612,-64.815 11.084,-44.892 12.855,-40.512L12.975,-40.217C15.783,-33.265 24.167,-12.492 58.848,-14.423C70.579,-15.077 80.056,-15.631 87.65,-16.102M11.874,-4.08L-8.292,-3.334L-7.423,-20.238C-4.024,-17.386 -0.686,-14.056 2.617,-10.254C5.038,-7.47 8.257,-5.484 11.874,-4.08M93.828,0.252L121.613,0.252C120.153,-0.279 118.618,-0.674 117.114,-0.977C114.741,-1.452 112.423,-1.691 110.645,-1.85C107.761,-2.11 103.928,-5.624 99.472,-9.708C98.004,-11.052 96.469,-12.46 94.854,-13.856C94.383,-14.263 93.976,-14.646 93.629,-15.001L93.828,0.252ZM93.585,-18.367L95.679,-16.612C96.046,-16.317 96.425,-15.998 96.832,-15.647C98.411,-14.283 99.975,-12.851 101.463,-11.487C105.782,-7.526 109.496,-4.124 111.965,-3.901C113.763,-3.737 116.125,-3.494 118.594,-2.999C121.079,-2.505 123.647,-1.763 125.825,-0.614C126.399,-0.307 126.974,-0.02 127.54,0.252L173.178,0.252L173.33,-5.141C172.608,-5.281 171.81,-5.352 170.92,-5.34C169.612,-5.324 167.961,-5.241 166.038,-5.149C155.465,-4.623 136.926,-3.701 128.446,-10.673C119.212,-18.268 114.916,-27.422 109.978,-37.939L108.822,-40.385C106.847,-44.561 105.727,-48.749 104.661,-52.721C102.803,-59.665 101.124,-65.928 95.348,-70.1C94.431,-70.758 93.613,-71.44 92.883,-72.134L93.585,-18.367ZM173.394,-7.359L174.933,-61.831C174.327,-61.592 173.637,-61.257 172.855,-60.89C169.532,-59.302 164.826,-57.053 157.874,-56.558C155.823,-56.415 153.745,-56.163 151.699,-55.916C141.209,-54.664 131.493,-53.503 124.988,-65.616C119.352,-76.119 117.361,-102.34 116.197,-117.692C115.778,-123.228 115.463,-127.344 115.14,-128.721C114.027,-133.431 113.963,-150.231 113.963,-154.726L91.81,-153.857L92.827,-76.123C93.956,-74.707 95.404,-73.283 97.259,-71.942C103.297,-67.583 105.012,-61.177 106.915,-54.073C107.968,-50.149 109.081,-46 111.019,-41.896C111.406,-41.078 111.402,-41.075 112.164,-39.447C117.058,-29.029 121.314,-19.963 130.404,-12.488C138.557,-5.779 156.737,-6.685 167.107,-7.199C169.086,-7.295 170.789,-7.379 172.057,-7.399C172.524,-7.403 172.971,-7.391 173.394,-7.359M174.985,-63.642L175.938,-97.438C173.968,-96.193 170.861,-94.482 166.573,-92.867C162.903,-91.487 157.89,-90.829 153.347,-90.705C147.926,-90.557 143.084,-91.196 141.923,-92.272C140.384,-93.712 140.615,-99.967 140.83,-105.77C140.918,-108.107 141.002,-110.373 140.97,-112.188C140.894,-116.26 141.688,-120.711 142.446,-124.987C142.865,-127.336 143.275,-129.638 143.515,-131.74C143.914,-135.202 144.42,-139.31 144.923,-142.677C145.318,-145.301 145.716,-147.555 146.083,-148.863C146.702,-151.101 147.116,-154.659 147.264,-156.035L116.252,-154.818C116.26,-149.298 116.376,-134.344 117.393,-130.045C117.744,-128.561 118.059,-124.417 118.482,-118.837C119.639,-103.568 121.617,-77.491 127.161,-67.176C133.344,-55.653 142.609,-56.766 152.613,-57.962C154.667,-58.206 156.757,-58.457 158.899,-58.609C165.324,-59.067 169.704,-61.157 172.791,-62.633C173.593,-63.016 174.319,-63.363 174.985,-63.642M175.99,-99.288L176.497,-117.217C175.252,-117.058 172.803,-116.954 170.478,-118.099C168.611,-119.016 166.625,-121.09 166.102,-124.784C165.715,-127.488 166.11,-131.062 167.897,-135.697C171.615,-145.325 174.235,-146.777 176.608,-148.093C176.867,-148.237 177.123,-148.38 177.378,-148.548L177.625,-157.227L149.45,-156.118C149.254,-154.403 148.859,-151.464 148.301,-149.457C147.966,-148.257 147.583,-146.075 147.196,-143.494C146.678,-140.032 146.179,-135.984 145.788,-132.617C145.537,-130.42 145.126,-128.114 144.707,-125.757C143.961,-121.565 143.184,-117.197 143.259,-113.257C143.291,-111.426 143.204,-109.132 143.116,-106.767C142.908,-101.199 142.685,-95.196 143.917,-94.047C144.891,-93.142 149.358,-92.623 154.456,-92.763C158.759,-92.875 163.462,-93.481 166.812,-94.741C171.351,-96.449 174.351,-98.196 175.99,-99.288M176.552,-119.188L177.33,-146.705L176.892,-146.462C175.18,-145.517 173.29,-144.464 170.051,-136.076C168.392,-131.784 168.029,-128.489 168.38,-126.012C168.85,-122.69 170.605,-120.839 172.257,-120.029C173.836,-119.251 175.44,-119.136 176.552,-119.188M-88.037,-155.249L-64.943,-155.249C-68.401,-153.211 -78.336,-146.31 -83.055,-132.075C-85.747,-123.966 -85.568,-110.704 -85.404,-98.682C-85.261,-87.761 -85.129,-77.909 -86.673,-74.703L-88.037,-155.249ZM-62.51,-155.249L-42.132,-155.249C-44.31,-154.048 -48.41,-151.228 -53.316,-145.126C-56.052,-141.719 -58.374,-135.932 -60.232,-129.742C-63.292,-119.571 -65.162,-108.195 -65.529,-104.876C-65.808,-102.304 -67.38,-96.584 -69.374,-90.394C-71.376,-84.188 -73.797,-77.547 -75.764,-73.167C-78.923,-66.123 -84.403,-58.792 -86.358,-56.279L-86.633,-72.497C-82.796,-75.724 -82.947,-87.071 -83.119,-99.751C-83.278,-111.645 -83.454,-124.768 -80.869,-132.566C-75.58,-148.508 -63.658,-154.18 -63.623,-154.196L-62.482,-154.754L-62.51,-155.249ZM-38.462,-155.249L-6.226,-155.249L-6.37,-151.679C-8.396,-151.264 -15.141,-149.721 -16.904,-147.307C-17.027,-147.136 -18.156,-146.689 -19.632,-146.103C-23.748,-144.476 -29.927,-142.035 -33.636,-135.409C-34.773,-133.387 -36.097,-131.532 -37.465,-129.622C-41.96,-123.336 -46.85,-116.495 -48.103,-100.122C-48.805,-90.928 -50.927,-79.445 -53.459,-68.532C-56.73,-54.424 -60.687,-41.29 -63.14,-35.291C-65.302,-30.018 -66.666,-25.694 -67.846,-21.965C-69.059,-18.124 -70.068,-14.929 -71.52,-12.069C-73.331,-8.495 -78.452,-2.68 -81.87,1.01L-85.388,1.045L-86.318,-53.898L-86.242,-53.878L-85.44,-54.879C-85.416,-54.903 -77.746,-64.34 -73.67,-73.41C-71.656,-77.897 -69.198,-84.634 -67.18,-90.908C-65.15,-97.202 -63.547,-103.066 -63.248,-105.766C-62.893,-109.041 -61.046,-120.265 -58.031,-130.292C-56.263,-136.175 -54.118,-141.6 -51.688,-144.623C-45.187,-152.708 -40.796,-154.128 -40.784,-154.132L-39.655,-154.519L-38.462,-155.249ZM-6.442,-149.796L-8.847,-89.792L-8.962,-86.912L-11.379,-26.492C-12.341,-27.13 -13.31,-27.733 -14.283,-28.299C-20.868,-32.104 -27.745,-34.23 -35.076,-34.601C-42.535,-34.98 -47.03,-34.609 -49.626,-33.157C-52.797,-31.382 -53.32,-28.698 -52.534,-24.657C-51.325,-18.427 -45.562,-2.995 -44.202,0.599L-79.756,0.985C-76.215,-2.883 -71.344,-8.523 -69.486,-12.193C-67.926,-15.272 -66.889,-18.547 -65.645,-22.488C-64.484,-26.169 -63.132,-30.441 -61.01,-35.618C-58.521,-41.709 -54.516,-54.983 -51.218,-69.206C-48.665,-80.207 -46.527,-91.786 -45.817,-101.059C-44.613,-116.834 -39.966,-123.332 -35.698,-129.307C-34.282,-131.281 -32.906,-133.208 -31.666,-135.421C-28.674,-140.754 -23.357,-142.856 -19.812,-144.26C-17.674,-145.11 -15.057,-145.752 -14.184,-146.957C-13.135,-148.392 -6.569,-149.772 -6.545,-149.776L-6.442,-149.796ZM-11.503,-23.409L-12.229,-5.213C-15.655,-9.253 -18.742,-9.417 -22.197,-9.596C-22.807,-9.628 -23.429,-9.66 -24.175,-9.732C-27.844,-10.079 -28.933,-8.487 -29.153,-6.465C-29.225,-5.779 -29.129,-5.077 -29.041,-4.427C-28.981,-3.992 -28.926,-3.589 -28.941,-3.314C-29.001,-2.177 -28.674,-0.566 -28.435,0.427L-41.442,0.567L-41.697,-0.091C-41.717,-0.147 -48.908,-18.95 -50.269,-25.938C-50.847,-28.925 -50.739,-30.752 -49.327,-31.542C-47.341,-32.651 -43.308,-32.906 -36.336,-32.547C-29.237,-32.188 -22.552,-30.118 -16.126,-26.4C-14.57,-25.499 -13.031,-24.498 -11.503,-23.409M-12.405,-0.897L-12.452,0.252L-25.822,0.399L-25.958,-0.055C-25.962,-0.063 -26.74,-2.768 -26.656,-4.287C-26.636,-4.694 -26.7,-5.149 -26.768,-5.644C-26.847,-6.214 -26.931,-6.84 -26.875,-7.355C-26.847,-7.598 -26.564,-7.777 -25.507,-7.678C-24.877,-7.618 -24.155,-7.582 -23.453,-7.546C-19.923,-7.363 -16.812,-7.199 -13.174,-2.05C-12.879,-1.635 -12.628,-1.252 -12.405,-0.897" style="fill:rgb(230,86,37);"/>
            </g>
            <g transform="matrix(4.16667,0,0,4.16667,12232.4,2234.2)">
                <path d="M0,-7.854C0.499,-8.341 1.161,-8.719 1.906,-8.995C3.003,-9.401 4.156,-9.609 5.345,-9.609L10.813,-9.609C12.002,-9.609 13.146,-9.406 14.231,-8.995C15.851,-8.396 17.083,-7.316 17.111,-5.672L17.151,-2.94L17.151,-0.93C17.151,0.223 16.29,1.021 15.133,1.4C14.491,1.623 13.821,1.735 13.135,1.735C12.445,1.735 11.766,1.627 11.128,1.396C9.976,1.017 9.118,0.219 9.118,-0.93L9.118,-5.07L7.064,-5.07L7.064,-0.93C7.064,0.223 6.202,1.021 5.042,1.4C4.403,1.623 3.733,1.735 3.047,1.735C2.357,1.735 1.687,1.623 1.049,1.4C0.419,1.192 -0.124,0.861 -0.487,0.422C-0.889,0.706 -1.356,0.945 -1.855,1.132L-1.871,1.14C-2.968,1.547 -4.12,1.759 -5.309,1.759L-11.786,1.759C-12.975,1.759 -14.128,1.547 -15.225,1.14C-15.99,0.861 -16.668,0.47 -17.171,-0.04C-19.05,1.483 -22.719,1.583 -24.905,1.583L-29.967,1.583C-30.485,1.583 -31,1.499 -31.49,1.356L-31.522,1.348L-31.554,1.336C-31.833,1.244 -32.096,1.124 -32.332,0.981C-32.599,1.16 -32.906,1.304 -33.237,1.416C-33.907,1.659 -34.613,1.779 -35.335,1.779C-36.568,1.779 -37.804,1.491 -38.566,0.566L-40.289,-1.504C-40.568,-1.245 -40.927,-1.046 -41.33,-0.906C-41.841,-0.722 -42.375,-0.627 -42.922,-0.627C-43.931,-0.627 -44.896,-0.914 -45.518,-1.656L-46.328,-2.605L-48.813,0.542C-49.571,1.499 -50.843,1.779 -52.083,1.779C-52.69,1.779 -53.288,1.703 -53.862,1.527C-54.628,1.296 -55.318,0.917 -55.749,0.375C-56.168,0.682 -56.658,0.933 -57.185,1.132L-57.201,1.14C-58.298,1.547 -59.454,1.759 -60.639,1.759L-67.116,1.759C-68.305,1.759 -69.462,1.547 -70.555,1.144C-71.169,0.917 -71.727,0.618 -72.186,0.247C-72.541,0.781 -73.139,1.172 -73.841,1.416C-74.488,1.643 -75.162,1.759 -75.856,1.759C-76.546,1.759 -77.216,1.643 -77.854,1.424C-79.011,1.041 -79.876,0.247 -79.876,-0.906L-79.876,-1.735C-80.127,-1.696 -80.379,-1.68 -80.638,-1.68L-81.926,-1.68L-81.926,-0.906C-81.926,0.247 -82.788,1.041 -83.948,1.424C-84.587,1.643 -85.261,1.759 -85.947,1.759C-86.633,1.759 -87.303,1.643 -87.941,1.424C-89.102,1.041 -89.963,0.247 -89.963,-0.906L-89.963,-5.146C-90.346,-5.114 -90.741,-5.114 -91.092,-5.114L-92.76,-5.114L-92.748,-0.906C-92.748,0.239 -93.613,1.025 -94.754,1.416L-94.77,1.424L-94.794,1.432C-95.428,1.635 -96.09,1.735 -96.764,1.735C-97.434,1.735 -98.096,1.635 -98.73,1.432L-98.75,1.424L-98.774,1.416C-99.911,1.025 -100.781,0.239 -100.781,-0.902L-100.792,-5.114L-102.472,-5.114C-103.058,-5.114 -103.764,-5.118 -104.326,-5.241C-105.467,-5.485 -106.329,-6.223 -106.329,-7.32C-106.329,-7.587 -106.269,-7.854 -106.157,-8.101C-105.555,-9.401 -103.848,-9.609 -102.472,-9.609L-91.092,-9.609C-90.183,-9.609 -89.321,-9.398 -88.52,-9.039C-88.34,-9.126 -88.145,-9.21 -87.941,-9.274C-87.303,-9.497 -86.633,-9.609 -85.947,-9.609C-85.261,-9.609 -84.587,-9.497 -83.948,-9.274C-82.788,-8.891 -81.926,-8.097 -81.926,-6.945L-81.926,-6.219L-80.638,-6.219C-80.383,-6.219 -80.127,-6.199 -79.876,-6.163L-79.876,-6.945C-79.876,-8.097 -79.011,-8.891 -77.854,-9.274C-77.216,-9.497 -76.546,-9.609 -75.856,-9.609C-75.17,-9.609 -74.5,-9.497 -73.861,-9.274C-73.135,-9.039 -72.525,-8.636 -72.174,-8.089C-71.719,-8.452 -71.165,-8.748 -70.559,-8.971C-69.462,-9.382 -68.305,-9.589 -67.116,-9.589L-60.639,-9.589C-59.454,-9.589 -58.306,-9.378 -57.209,-8.975L-57.185,-8.967C-55.585,-8.357 -54.345,-7.268 -54.345,-5.632L-54.345,-3.989L-50.715,-8.372C-49.954,-9.302 -48.713,-9.589 -47.485,-9.589C-46.479,-9.589 -45.498,-9.39 -44.661,-8.879C-44.445,-8.767 -44.242,-8.628 -44.066,-8.468L-44.014,-8.424L-43.691,-8.073C-43.328,-8.596 -42.738,-8.983 -42.036,-9.222C-41.37,-9.465 -40.66,-9.589 -39.938,-9.589C-38.71,-9.589 -37.469,-9.302 -36.711,-8.372L-31.917,-2.581L-31.538,-2.721L-31.331,-2.781C-32.116,-3.175 -32.747,-3.722 -33.094,-4.476C-33.277,-4.866 -33.361,-5.277 -33.361,-5.7C-33.361,-7.974 -31.127,-8.991 -28.929,-9.362C-27.518,-9.609 -25.886,-9.633 -24.45,-9.633L-19.397,-9.633C-18.866,-9.633 -18.336,-9.553 -17.829,-9.398C-17.211,-9.21 -16.68,-8.883 -16.353,-8.432C-16.01,-8.644 -15.631,-8.823 -15.229,-8.971C-14.128,-9.382 -12.975,-9.589 -11.786,-9.589L-5.309,-9.589C-4.124,-9.589 -2.971,-9.378 -1.875,-8.975L-1.855,-8.967C-1.141,-8.696 -0.495,-8.321 0,-7.854M-62.378,-5.114L-65.377,-5.114L-65.377,-2.781L-62.378,-2.781L-62.378,-5.114ZM-7.048,-5.114L-10.051,-5.114L-10.051,-2.781L-7.048,-2.781L-7.048,-5.114Z" style="fill:white;"/>
            </g>
            <g transform="matrix(4.16667,0,0,4.16667,11819.4,2205.25)">
                <path d="M0,6.042C0,6.449 0.315,6.764 0.949,6.983C1.404,7.127 1.875,7.203 2.357,7.203C2.844,7.203 3.314,7.127 3.773,6.983C4.403,6.764 4.722,6.449 4.722,6.042L4.698,0.354L8.029,0.354C8.743,0.354 9.234,0.322 9.501,0.266C9.988,0.159 10.231,-0.048 10.231,-0.372L10.167,-0.611C9.457,-0.994 8.743,-1.181 8.029,-1.181L-3.351,-1.181C-4.818,-1.181 -5.548,-0.91 -5.548,-0.372C-5.548,-0.048 -5.309,0.159 -4.822,0.266C-4.555,0.322 -4.061,0.354 -3.351,0.354L-0.02,0.354L0,6.042ZM23.266,7.223C22.779,7.223 22.308,7.143 21.854,6.983C21.223,6.776 20.904,6.465 20.904,6.042L20.904,0.003C20.904,-0.423 21.223,-0.734 21.854,-0.938C22.308,-1.098 22.779,-1.181 23.266,-1.181C23.748,-1.181 24.219,-1.098 24.677,-0.938C25.308,-0.734 25.627,-0.423 25.627,0.003L25.627,6.042C25.627,6.449 25.308,6.764 24.677,6.983C24.219,7.143 23.748,7.223 23.266,7.223M19.676,3.557C19.309,3.709 18.914,3.789 18.483,3.789L15.54,3.789L15.54,6.042C15.54,6.465 15.22,6.776 14.59,6.983C14.132,7.143 13.661,7.223 13.178,7.223C12.692,7.223 12.221,7.143 11.766,6.983C11.132,6.776 10.817,6.465 10.817,6.042L10.817,0.003C10.817,-0.423 11.132,-0.734 11.766,-0.938C12.221,-1.098 12.692,-1.181 13.178,-1.181C13.661,-1.181 14.132,-1.098 14.59,-0.938C15.22,-0.734 15.54,-0.423 15.54,0.003L15.54,2.209L18.483,2.209C18.818,2.209 19.161,2.265 19.512,2.365C19.983,2.508 20.218,2.724 20.218,2.999C20.218,3.218 20.039,3.406 19.676,3.557M38.482,7.223L32.005,7.223C31.035,7.223 30.102,7.055 29.201,6.72C27.976,6.269 27.362,5.607 27.362,4.75L27.362,1.316C27.362,0.454 27.976,-0.204 29.201,-0.655C30.102,-0.994 31.035,-1.157 32.005,-1.157L38.482,-1.157C39.436,-1.157 40.369,-0.994 41.286,-0.655C42.511,-0.188 43.121,0.47 43.121,1.316L43.121,4.75C43.121,5.595 42.511,6.253 41.286,6.72C40.385,7.055 39.451,7.223 38.482,7.223M38.398,1.096C38.398,0.833 38.211,0.634 37.836,0.502C37.569,0.402 37.286,0.354 36.99,0.354L33.496,0.354C33.201,0.354 32.918,0.402 32.651,0.502C32.272,0.634 32.084,0.833 32.084,1.096L32.084,4.905C32.084,5.153 32.272,5.348 32.651,5.496C32.918,5.595 33.201,5.647 33.496,5.647L36.99,5.647C37.286,5.647 37.569,5.595 37.836,5.496C38.211,5.348 38.398,5.153 38.398,4.905L38.398,1.096ZM45.785,7.071C46.176,7.187 46.595,7.247 47.038,7.247C47.991,7.247 48.633,7.039 48.956,6.628L52.75,1.838L54.927,4.399C55.171,4.694 55.594,4.838 56.196,4.838C56.535,4.838 56.866,4.778 57.185,4.662C57.62,4.514 57.831,4.299 57.831,4.008L57.691,3.633L53.878,-0.483L53.575,-0.675C53.077,-1.002 52.43,-1.157 51.637,-1.157C50.711,-1.157 50.077,-0.954 49.742,-0.547L44.78,5.452C44.629,5.623 44.557,5.799 44.557,5.978C44.557,6.457 44.968,6.824 45.785,7.071M56.906,0.634L61.887,6.628C62.222,7.039 62.857,7.247 63.786,7.247C64.309,7.247 64.807,7.159 65.278,6.983C65.936,6.764 66.267,6.429 66.267,5.978C66.267,5.799 66.191,5.623 66.044,5.452L61.082,-0.547C60.747,-0.954 60.113,-1.157 59.183,-1.157C58.661,-1.157 58.162,-1.074 57.691,-0.898C57.033,-0.675 56.702,-0.34 56.702,0.111C56.702,0.298 56.77,0.474 56.906,0.634M67.42,1.248C67.42,0.123 68.449,-0.611 70.511,-0.962C71.428,-1.121 72.812,-1.205 74.675,-1.205L79.725,-1.205C80.072,-1.205 80.418,-1.153 80.758,-1.05C81.228,-0.906 81.464,-0.691 81.464,-0.416C81.464,-0.136 81.228,0.075 80.758,0.223C80.403,0.322 80.06,0.374 79.725,0.374L76.207,0.374C74.615,0.374 73.55,0.418 73.012,0.502C72.31,0.622 71.959,0.877 71.959,1.272C71.959,1.71 72.437,1.986 73.391,2.101C73.686,2.129 74.292,2.145 75.209,2.145C76.833,2.145 78.057,2.233 78.879,2.408C80.602,2.771 81.464,3.493 81.464,4.574C81.464,6.222 79.047,7.047 74.22,7.047L69.155,7.047C68.832,7.047 68.497,6.995 68.146,6.892C67.659,6.736 67.42,6.525 67.42,6.261C67.42,5.986 67.655,5.771 68.126,5.623C68.477,5.524 68.82,5.472 69.155,5.472L72.685,5.472C74.3,5.472 75.353,5.436 75.852,5.364C76.566,5.248 76.921,4.989 76.921,4.594C76.921,4 75.975,3.701 74.077,3.701C69.641,3.701 67.42,2.883 67.42,1.248M93.812,7.223L87.335,7.223C86.366,7.223 85.432,7.055 84.531,6.72C83.306,6.269 82.696,5.607 82.696,4.75L82.696,1.316C82.696,0.454 83.306,-0.204 84.531,-0.655C85.432,-0.994 86.366,-1.157 87.335,-1.157L93.812,-1.157C94.766,-1.157 95.703,-0.994 96.616,-0.655C97.841,-0.188 98.451,0.47 98.451,1.316L98.451,4.75C98.451,5.595 97.841,6.253 96.616,6.72C95.715,7.055 94.782,7.223 93.812,7.223M93.733,1.096C93.733,0.833 93.541,0.634 93.166,0.502C92.899,0.402 92.616,0.354 92.321,0.354L88.831,0.354C88.531,0.354 88.252,0.402 87.981,0.502C87.606,0.634 87.415,0.833 87.415,1.096L87.415,4.905C87.415,5.153 87.606,5.348 87.981,5.496C88.252,5.595 88.531,5.647 88.831,5.647L92.321,5.647C92.616,5.647 92.899,5.595 93.166,5.496C93.541,5.348 93.733,5.153 93.733,4.905L93.733,1.096ZM114.617,4.008L114.577,1.292C114.565,0.43 113.943,-0.224 112.722,-0.675C111.833,-1.014 110.904,-1.181 109.934,-1.181L104.47,-1.181C103.501,-1.181 102.563,-1.014 101.662,-0.675C100.438,-0.224 99.827,0.43 99.827,1.292L99.807,6.018C99.807,6.441 100.122,6.756 100.757,6.959C101.215,7.119 101.682,7.203 102.168,7.203C102.651,7.203 103.122,7.119 103.581,6.959C104.215,6.756 104.53,6.441 104.53,6.018L104.53,1.14C104.53,0.893 104.721,0.693 105.1,0.55C105.371,0.446 105.659,0.394 105.958,0.394L108.467,0.394C108.766,0.394 109.053,0.446 109.324,0.55C109.703,0.693 109.895,0.893 109.895,1.14L109.895,6.018C109.895,6.441 110.214,6.756 110.844,6.959C111.287,7.119 111.757,7.203 112.256,7.203C112.738,7.203 113.209,7.119 113.668,6.959C114.302,6.756 114.617,6.441 114.617,6.018L114.617,4.008Z" style="fill:rgb(40,66,47);fill-rule:nonzero;"/>
            </g>
            <g transform="matrix(4.16667,0,0,4.16667,12601.4,2262.83)">
                <path d="M0,68.17C-5.528,74.001 -14.981,77.228 -23.437,77.156C-32.284,77.081 -40.445,73.77 -44.661,67.723C-50.177,73.591 -59.67,76.841 -68.158,76.769C-81.049,76.658 -92.492,69.678 -92.373,57.349C-92.193,58.127 -91.707,56.38 -93.912,57.157L-99.847,66.89L-99.867,66.918C-102.268,70.695 -105.926,76.255 -111.486,76.207C-116.651,76.163 -120.233,70.906 -122.694,67.452L-125.179,63.966L-129.921,70.866L-129.953,70.91C-131.952,73.654 -134.181,76.012 -138.258,75.976C-142.88,75.936 -145.294,72.948 -147.467,69.829L-161.148,50.437C-161.336,50.165 -161.444,50.106 -161.775,49.994C-163.239,49.503 -164.248,49.384 -165.536,48.374C-167.067,47.17 -167.702,45.519 -167.682,43.74C-167.666,42.232 -167.143,40.999 -166.27,39.998C-169.397,41.047 -173.338,41.203 -176.517,41.175C-178.483,41.155 -180.425,41.107 -182.38,40.888C-186.803,40.381 -192.096,38.658 -192.048,33.9C-192.036,32.623 -191.625,31.435 -190.78,30.406C-190.237,29.748 -189.635,29.293 -188.937,28.786C-188.75,28.651 -188.526,28.495 -188.383,28.324C-187.784,27.626 -187.693,25.767 -187.685,24.957L-187.629,19.297C-187.625,18.751 -187.645,17.299 -187.872,16.605C-188.267,16.386 -188.626,16.202 -189.037,15.883C-190.513,14.73 -191.131,13.171 -191.115,11.456C-191.059,6.203 -184.043,4.077 -179.344,3.016C-177.095,2.509 -174.793,2.126 -172.496,1.823C-171.439,1.684 -169.852,1.432 -168.783,1.44C-166.96,1.456 -165.265,2.079 -164.076,3.331C-163.789,3.634 -163.553,3.945 -163.358,4.272C-160.167,2.438 -156.649,1.548 -152.752,1.58C-149.159,1.612 -145.7,2.438 -143.008,4.643C-142.657,4.93 -142.33,5.233 -142.027,5.545C-141.859,5.429 -141.692,5.313 -141.52,5.202L-141.453,5.158L-141.389,5.114C-138.01,3.016 -134.345,1.739 -130.169,1.775C-124.979,1.823 -120.724,3.435 -118.039,6.35C-115.443,3.758 -110.114,2.984 -106.616,2.597C-103.385,2.246 -99.811,2.039 -96.545,2.066C-93.625,2.091 -91.707,3.175 -90.737,4.966C-88.185,3.718 -84.898,3.167 -82.413,2.852C-79.465,2.481 -76.167,2.242 -73.179,2.266C-71.213,2.286 -69.55,2.769 -68.261,3.614C-68.604,2.804 -68.76,1.927 -68.752,1.01C-68.692,-4.706 -61.194,-6.952 -56.056,-7.997C-53.671,-8.479 -51.226,-8.822 -48.793,-9.07C-47.521,-9.197 -45.985,-9.369 -44.708,-9.357C-39.818,-9.317 -37.326,-6.254 -37.369,-2.165C-37.385,-0.267 -37.732,1.911 -37.9,3.826L-37.904,3.853L-23.533,-3.872L-23.497,-3.893C-20.992,-5.177 -20.258,-5.085 -17.534,-5.061C-15.492,-5.045 -13.733,-5.133 -12.054,-3.801C-10.231,-2.349 -10.171,-0.47 -10.187,1.516C-10.191,1.831 -10.211,2.218 -10.231,2.629L-6.853,2.657C-6.47,2.661 -6.091,2.669 -5.72,2.685C-5.895,2.047 -5.987,1.361 -5.979,0.631C-5.907,-6.334 5.285,-8.926 11.571,-8.87C16.94,-8.826 22.879,-6.537 22.823,-0.965C22.803,1.145 21.933,2.84 20.545,4.185C21.044,4.52 21.495,4.93 21.874,5.425C22.903,6.757 23.09,8.177 23.074,9.737L22.903,26.896C22.899,27.338 22.923,28.563 23.142,29.101C25.711,27.729 28.981,26.992 31.51,26.529C33.851,26.098 36.237,25.791 38.614,25.564C39.739,25.452 41.167,25.284 42.299,25.296C47.269,25.34 49.383,28.639 49.343,32.655L49.048,62.438L49.052,62.714C49.527,63.049 50.085,63.328 50.584,63.739C52.155,65.051 52.873,66.734 52.849,68.641C52.845,69.299 52.721,69.957 52.482,70.583C50.931,74.632 45.383,76.036 41.151,76.698C38.171,77.164 34.613,77.471 31.566,77.444C29.54,77.428 27.669,76.801 26.425,75.465C23.601,76.829 20.765,77.539 17.486,77.511C10.239,77.448 3.829,73.531 0,68.17M0.57,45.523C1.456,44.41 2.465,43.377 3.574,42.439C0.211,42.037 -3.143,41.155 -5.098,39.197C-5.489,39.416 -5.895,39.631 -6.306,39.831C-4.619,40.744 -3.047,41.857 -1.627,43.165C-0.83,43.903 -0.096,44.689 0.57,45.523M-31.618,38.463C-32.775,37.458 -33.696,36.317 -34.406,35.076C-34.494,36.197 -34.881,37.262 -35.571,38.212C-37.92,41.45 -42.626,42.128 -46.942,42.248C-46.739,42.423 -46.539,42.599 -46.344,42.782C-45.239,43.8 -44.254,44.92 -43.408,46.121C-40.517,42.635 -36.356,40.054 -31.618,38.463M-5.177,16.721C-5.792,16.797 -7.303,16.824 -8.041,16.816L-11.172,16.793L-11.252,24.698C-11.256,24.905 -11.248,25.304 -11.2,25.667L-11.084,25.615C-9.704,24.985 -8.612,24.479 -6.98,24.495C-5.489,24.507 -3.315,25.017 -2.234,25.815C-2.078,23.41 -2.078,20.478 -2.286,19.006C-3.446,18.48 -4.423,17.471 -5.177,16.721M-38.482,16.797L-38.582,26.736C-38.586,27.338 -38.646,28.3 -38.602,29.061C-37.912,29.337 -37.338,29.532 -36.552,30.146C-36.348,30.302 -36.161,30.469 -35.985,30.641C-36.169,29.62 -36.249,28.571 -36.241,27.494L-36.137,16.98C-36.939,16.972 -37.729,16.944 -38.482,16.797M-65.848,6.43C-65.414,7.403 -65.186,8.508 -65.202,9.713C-65.222,11.663 -65.382,13.606 -65.402,15.556L-65.517,27.362C-65.003,27.59 -64.528,27.797 -63.938,28.236L-63.73,28.399C-63.443,26.92 -63.359,24.714 -63.303,23.581C-63.196,21.487 -63.16,19.393 -63.14,17.295C-63.112,14.555 -62.873,10.957 -63.455,8.317C-63.511,8.073 -63.571,7.766 -63.806,7.611C-64.516,7.128 -65.166,6.873 -65.848,6.43M22.731,55.857L22.899,61.226C23.692,60.715 23.828,57.413 23.84,56.065L23.648,52.886C23.102,53.436 22.739,54.82 22.731,55.857" style="fill:rgb(90,44,39);"/>
            </g>
            <g transform="matrix(4.16667,0,0,4.16667,11837.8,2441.99)">
                <path d="M0,-18.26C-0.08,-10.534 -4.34,-12.054 -4.364,-9.274C-4.396,-5.987 4.009,-5.975 6.789,-5.951C16.549,-5.867 18.208,-8.025 18.224,-9.632C18.248,-11.858 16.318,-11.503 16.377,-17.191L16.425,-22.201C16.449,-24.486 16.134,-28.69 20.123,-28.658C24.183,-28.622 23.772,-23.062 23.752,-20.837L23.716,-17.315C23.856,-9.956 20.322,-12.584 20.214,-9.309C20.127,-7.578 20.681,-5.831 31.438,-5.74C34.003,-5.716 42.551,-5.704 42.591,-9.545C42.611,-11.834 40.034,-10.558 40.11,-18.16L40.149,-21.993C40.174,-24.283 39.858,-28.487 43.847,-28.455C47.907,-28.419 47.5,-23.23 47.477,-20.629L47.417,-15.065C47.385,-11.483 44.892,-11.567 44.868,-9.281C44.836,-6.055 53.093,-5.552 55.446,-5.532C58.222,-5.508 66.347,-5.624 66.387,-9.525C66.403,-11.32 63.77,-11.651 63.806,-15.236L63.938,-28.279C63.998,-34.338 59.825,-37.589 53.057,-37.645C49.423,-37.677 46.563,-36.34 44.409,-35C42.331,-33.596 41.035,-32.248 40.465,-32.252C38.969,-32.264 38.953,-37.768 30.473,-37.84C26.269,-37.876 23.409,-36.54 21.399,-35.2C19.389,-33.796 18.236,-32.447 17.526,-32.451C16.03,-32.463 16.333,-34.565 16.342,-35.307C16.354,-36.604 16.226,-37.964 14.443,-37.98C14.303,-37.984 -3.382,-36.4 -3.426,-31.829C-3.442,-30.222 -2.445,-30.274 -1.528,-29.588C-0.818,-29.025 0.096,-27.904 0.056,-23.948L0,-18.26ZM88.866,-34.984C88.883,-36.536 88.675,-37.342 86.681,-37.353C86.115,-37.357 68.162,-37.329 68.118,-33.373C68.078,-29.292 73.036,-33.393 72.94,-23.936C72.848,-14.662 71.616,-5.393 85.153,-5.277C88.288,-5.245 90.578,-6.166 92.293,-7.076C94.012,-7.989 95.165,-8.907 95.946,-8.899C98.794,-8.875 95.125,-5.189 100.609,-5.141C104.53,-5.105 117.15,-6.182 117.194,-10.386C117.222,-13.354 113.285,-11.655 113.325,-15.364L113.448,-27.789C113.469,-29.767 113.628,-31.682 113.648,-33.664C113.672,-35.822 112.615,-37.134 110.05,-37.15C107.342,-37.178 93.015,-36.679 92.983,-33.038C92.955,-30.441 96.457,-31.458 96.995,-28.367C97.33,-26.385 97.235,-23.728 97.215,-21.686C97.187,-18.719 97.837,-12.903 92.712,-12.947C88.863,-12.979 88.687,-16.812 88.711,-19.289L88.866,-34.984ZM140.388,-28.546C140.475,-37.385 141.469,-44.174 141.484,-45.598C141.5,-47.453 140.946,-48.817 138.521,-48.841C137.524,-48.849 118.989,-47.708 118.937,-42.331C118.901,-38.809 123.121,-40.381 124.142,-35.794C124.756,-33.006 124.569,-28.371 124.545,-25.962C124.513,-22.935 124.437,-15.209 123.484,-12.68C122.606,-10.398 119.551,-11.232 119.531,-9.066C119.487,-4.671 129.463,-4.89 132.67,-4.866C135.733,-4.834 144.42,-4.455 144.46,-8.603C144.488,-11.2 141.273,-10.179 140.511,-12.409C140.164,-13.402 140.256,-15.44 140.268,-16.553L140.388,-28.546ZM167.773,-27.813C167.793,-30.038 167.937,-30.098 170.43,-30.078L174.399,-30.046C177.179,-30.022 178.431,-30.258 178.463,-33.78C178.495,-36.564 177.745,-36.755 174.682,-36.779L170.641,-36.815C168.787,-36.831 168.3,-36.839 168.081,-37.329C167.746,-38.083 167.893,-39.99 167.913,-41.908C167.941,-44.752 167.797,-44.505 164.946,-44.529C162.812,-44.549 163.613,-44.756 161.986,-43.879L145.653,-35.052C144.779,-34.565 144.987,-33.883 144.979,-33.018C144.967,-31.598 144.815,-30.98 145.31,-30.541C145.677,-30.23 146.602,-30.286 148.453,-30.27C150.092,-30.254 150.878,-30.373 151.233,-30.182C151.588,-29.994 151.584,-29.56 151.572,-28.447L151.444,-15.715C151.348,-5.887 160.454,-4.439 164.084,-4.407C171.28,-4.344 179.436,-7.869 179.48,-11.95C179.488,-13.063 178.539,-14.85 177.115,-14.862C175.831,-14.874 173.756,-13.422 171.547,-13.442C169.624,-13.458 167.638,-14.463 167.682,-18.603L167.773,-27.813ZM201.924,-33.64C201.936,-34.936 201.88,-36.36 199.742,-36.376C199.028,-36.384 180.916,-34.685 180.872,-30.297C180.844,-27.513 184.486,-28.164 185.104,-25.994C185.866,-23.7 185.635,-14.742 184.685,-12.584C183.812,-10.674 180.888,-10.578 180.868,-8.352C180.852,-6.868 181.327,-4.443 193.58,-4.336C196.783,-4.312 205.833,-4.232 205.873,-8.444C205.909,-11.723 201.677,-9.102 201.753,-16.393L201.924,-33.64ZM201.673,-44.397C201.705,-47.489 197.652,-48.326 194.804,-48.35C191.167,-48.382 181.75,-46.795 181.71,-42.718C181.678,-39.687 184.873,-38.486 187.864,-38.458C191.925,-38.426 201.625,-39.579 201.673,-44.397M64.301,22.292C65.593,24.119 68.971,29.233 71.819,29.257C75.026,29.284 78.293,23.916 79.549,21.921L89.046,6.286C92.381,1.053 96.804,3.598 96.84,0.092C96.872,-3.039 90.45,-3.095 87.973,-3.115C85.564,-3.139 79.071,-3.131 79.039,-0C79.019,2.066 81.057,2.461 81.041,4.025C81.041,4.463 78.209,10.139 76.023,10.119C74.416,10.103 71.692,5.197 71.708,3.945C71.719,2.505 74.057,2.337 74.081,0.08C74.113,-3.362 66.307,-3.303 63.535,-3.327C49.236,-3.45 48.845,-0.949 48.833,0.299C48.813,2.62 53.336,2.661 53.304,5.664C53.296,6.541 51.222,9.78 49.906,9.768C48.083,9.756 44.78,4.148 44.792,3.083C44.8,2.27 46.192,1.719 46.208,0.283C46.244,-3.418 37.417,-3.554 34.573,-3.578C31.215,-3.606 20.043,-3.39 20.003,0.618C19.971,3.813 23.577,1.899 25.878,5.241L39.543,24.709C40.768,26.473 42.347,29.001 45.044,29.025C47.309,29.045 48.565,27.167 49.603,25.735L55.007,17.829C55.673,16.832 56.714,15.025 58.242,15.037C59.339,15.049 60.129,16.433 60.631,17.127L64.301,22.292ZM115.148,29.819C125.869,29.911 138.772,23.752 138.876,13.482C138.952,5.716 131.744,-2.928 118.977,-3.035C106.939,-3.139 95.424,3.083 95.312,14.291C95.212,24.187 104.35,29.727 115.148,29.819M122.048,18.096C122.028,20.099 121.426,22.097 118.654,21.949C113.624,21.654 112.407,12.002 112.152,8.053C112.029,6.234 113.357,4.304 115.766,4.324C120.724,4.368 122.076,15.276 122.048,18.096M159.864,30.206C170.585,30.302 183.489,24.139 183.592,13.869C183.668,6.103 176.461,-2.541 163.693,-2.648C151.659,-2.756 140.14,3.47 140.029,14.682C139.933,24.574 149.067,30.11 159.864,30.206M166.764,18.479C166.744,20.486 166.142,22.484 163.374,22.336C158.34,22.041 157.124,12.385 156.873,8.436C156.745,6.621 158.077,4.691 160.482,4.711C165.444,4.755 166.792,15.663 166.764,18.479M211.84,12.357C211.812,15.113 212.027,22.819 207.141,22.775C202.618,22.735 201.792,17.594 201.82,14.65C201.852,11.707 202.798,4.511 207.687,4.555C211.916,4.591 211.864,9.916 211.84,12.357M228.193,-10.61C228.213,-12.676 227.714,-13.996 225.529,-14.012C225.305,-14.016 206.695,-12.987 206.646,-8.352C206.615,-4.97 211.959,-6.992 211.924,-3.111C211.916,-2.421 211.82,-0.355 210.727,-0.367C209.925,-0.375 207.097,-2.277 202.064,-2.317C192,-2.405 184.039,5.668 183.955,13.996C183.88,21.698 191.23,30.477 200.787,30.561C203.998,30.589 206.268,29.655 207.955,28.794C209.642,27.868 210.747,27.003 211.401,27.007C213.81,27.031 211.15,30.461 214.871,30.493C215.673,30.501 231.651,30.325 231.699,25.555C231.731,22.3 227.85,23.708 227.894,19.325L228.193,-10.61Z" style="fill:white;fill-rule:nonzero;"/>
            </g>
            <g transform="matrix(4.16667,0,0,4.16667,12255.8,2683.65)">
                <path d="M0,-9.126C0.14,-9.489 0.363,-9.828 0.65,-10.131L1.244,-10.761L2.15,-10.921C3.047,-11.076 3.957,-11.184 4.874,-11.232C5.089,-11.24 5.305,-11.256 5.52,-11.272L5.748,-11.631L5.756,-11.643C5.963,-11.966 6.162,-12.289 6.374,-12.612L6.398,-12.644C6.645,-12.999 6.876,-13.358 7.1,-13.725L7.112,-13.745C7.315,-14.076 7.519,-14.403 7.714,-14.738L8.109,-15.4L8.859,-15.731C9.321,-15.938 9.816,-16.074 10.323,-16.142L10.618,-16.186L10.901,-16.25L11.228,-16.25C11.759,-16.25 12.285,-16.174 12.788,-16.026C13.553,-15.803 14.215,-15.396 14.666,-14.798L15.552,-13.621L14.802,-12.373C14.642,-12.11 14.487,-11.846 14.335,-11.579L16.425,-11.675L16.226,-9.876C16.996,-10.027 17.785,-10.103 18.587,-10.103L18.675,-10.103L18.762,-10.095C20.218,-10.007 21.519,-9.473 22.472,-8.48C23.365,-7.554 23.824,-6.422 23.824,-5.201C23.824,-4.248 23.541,-3.346 23.01,-2.521L22.99,-2.485L22.967,-2.449C22.492,-1.771 21.89,-1.197 21.203,-0.71C21.451,-0.339 21.598,0.076 21.598,0.558L21.598,0.881L21.507,1.189C21.148,2.333 20.394,3.299 19.401,4.08C18.455,4.822 17.37,5.377 16.198,5.772C15.045,6.162 13.836,6.398 12.6,6.398C10.307,6.398 8.22,5.612 7.172,3.729C6.9,3.315 6.713,2.872 6.593,2.413C6.13,3.279 5.668,4.144 5.213,5.01L4.746,5.895L3.713,6.222C3.442,6.306 3.275,6.402 2.628,6.402C1.663,6.402 0.79,6.019 0.167,5.361L0.156,5.349L0.144,5.333L-0.14,4.994C-0.85,4.794 -1.456,4.4 -1.835,3.825L-3.542,7.283L-5.253,7.283C-5.939,7.283 -6.593,7.144 -7.16,6.781C-7.311,6.689 -7.451,6.581 -7.582,6.466C-7.758,6.41 -7.929,6.342 -8.093,6.258L-8.516,6.482L-8.532,6.489C-9.389,6.908 -10.323,7.172 -11.304,7.172C-13.326,7.172 -14.818,6.055 -15.711,4.495L-15.719,4.479L-15.727,4.459C-15.979,4.009 -16.13,3.526 -16.202,3.027C-16.597,3.765 -16.988,4.507 -17.378,5.245L-17.845,6.13L-18.878,6.454C-19.149,6.541 -19.317,6.633 -19.963,6.633C-20.928,6.633 -21.802,6.25 -22.42,5.596L-22.436,5.58L-22.448,5.564L-22.731,5.225C-23.685,4.958 -24.454,4.336 -24.741,3.398L-24.985,2.608L-24.622,1.851C-24.251,1.073 -23.864,0.303 -23.449,-0.451C-23.05,-1.181 -22.631,-1.895 -22.201,-2.609C-21.866,-3.163 -21.523,-3.713 -21.176,-4.268C-21.471,-4.38 -21.738,-4.531 -21.969,-4.719L-22.097,-4.467C-22.476,-3.733 -22.847,-2.996 -23.214,-2.25C-23.517,-1.635 -23.82,-1.017 -24.111,-0.399C-24.303,0.024 -24.498,0.443 -24.678,0.869L-24.686,0.894C-24.861,1.288 -25.029,1.683 -25.192,2.078L-25.196,2.094C-25.427,2.629 -25.663,3.163 -25.91,3.693C-26.125,4.148 -26.341,4.603 -26.564,5.058L-27.055,6.039L-28.204,6.35C-28.471,6.422 -28.591,6.498 -29.201,6.498C-30.034,6.498 -30.808,6.226 -31.478,5.791C-31.733,5.624 -31.985,5.448 -32.216,5.253C-33.129,4.75 -33.844,4.041 -34.099,3.127C-34.729,4.3 -35.351,5.468 -35.969,6.641L-36.436,7.527L-37.469,7.854C-37.74,7.937 -37.912,8.033 -38.558,8.033C-39.519,8.033 -40.397,7.65 -41.015,6.992L-41.043,6.964L-41.326,6.625C-42.28,6.358 -43.045,5.732 -43.336,4.794L-43.408,4.551C-43.995,4.942 -44.621,5.285 -45.271,5.58C-46.128,5.979 -47.074,6.23 -48.023,6.39C-48.925,6.541 -49.846,6.633 -50.767,6.633C-51.298,6.633 -51.836,6.613 -52.359,6.537L-52.423,6.529C-53.635,6.33 -54.752,5.887 -55.641,5.113C-55.853,4.926 -56.044,4.727 -56.208,4.519C-56.575,4.786 -56.946,5.042 -57.324,5.289C-58.78,6.23 -60.448,6.892 -62.271,6.892C-63.335,6.892 -64.353,6.641 -65.25,6.123C-66.299,5.528 -66.957,4.679 -67.304,3.701L-68.959,7.052L-70.667,7.052C-71.356,7.052 -72.007,6.908 -72.577,6.549C-72.725,6.454 -72.868,6.35 -72.996,6.23C-73.175,6.174 -73.347,6.107 -73.506,6.027L-73.933,6.25L-73.945,6.254C-74.803,6.677 -75.736,6.94 -76.717,6.94C-78.74,6.94 -80.235,5.819 -81.125,4.264L-81.136,4.248L-81.145,4.228L-81.264,3.993C-81.655,4.264 -82.058,4.511 -82.465,4.743C-83.825,5.52 -85.293,6.13 -86.816,6.597C-88.284,7.044 -89.848,7.359 -91.403,7.359C-92.54,7.359 -93.681,7.191 -94.694,6.717C-96.477,5.895 -97.642,4.487 -97.642,2.66C-97.642,1.659 -97.294,0.71 -96.712,-0.14C-96.146,-0.965 -95.392,-1.659 -94.514,-2.222C-93.804,-2.684 -93.027,-3.047 -92.197,-3.291C-93.027,-4.152 -93.458,-5.229 -93.469,-6.406L-93.469,-6.43C-93.469,-7.77 -92.795,-8.947 -91.83,-9.936L-91.822,-9.948C-90.749,-11.037 -89.257,-11.826 -87.802,-12.428C-85.899,-13.214 -83.773,-13.661 -81.707,-13.936L-81.675,-13.944C-81.22,-13.996 -80.706,-14.064 -80.243,-14.064C-79.015,-14.064 -77.846,-13.753 -76.913,-13.027C-75.999,-12.325 -75.465,-11.352 -75.138,-10.33L-74.863,-9.469L-75.078,-9.066L-74.703,-9.234C-74.236,-9.449 -73.726,-9.561 -73.199,-9.561C-72.836,-9.561 -72.481,-9.509 -72.134,-9.413C-71.915,-9.449 -71.692,-9.473 -71.464,-9.473C-70.615,-9.473 -69.841,-9.162 -69.29,-8.643C-68.74,-9.042 -68.05,-9.266 -67.316,-9.266C-67.021,-9.266 -66.73,-9.23 -66.447,-9.166C-66.087,-9.286 -65.717,-9.361 -65.318,-9.361C-64.516,-9.361 -63.774,-9.074 -63.208,-8.588C-62.689,-9.461 -62.167,-10.334 -61.652,-11.208C-61.205,-11.958 -60.759,-12.704 -60.312,-13.454C-60.041,-13.912 -59.758,-14.375 -59.45,-14.81C-59.195,-15.181 -58.908,-15.536 -58.609,-15.875L-58.274,-16.25L-57.807,-16.477C-57.365,-16.692 -57.097,-16.808 -56.379,-16.808C-55.45,-16.808 -54.66,-16.437 -53.974,-15.907L-53.926,-15.871C-53.759,-15.811 -53.591,-15.743 -53.436,-15.659C-52.893,-15.384 -52.482,-14.981 -52.179,-14.499L-51.457,-13.346L-53.607,-9.94C-52.546,-9.657 -51.673,-9.05 -51.038,-8.213C-49.615,-9.046 -47.879,-9.517 -46.236,-9.816C-45.678,-9.92 -45.099,-9.964 -44.525,-9.964C-43.879,-9.964 -43.233,-9.908 -42.594,-9.796L-42.574,-9.792C-41.932,-9.676 -41.306,-9.505 -40.72,-9.246C-40.509,-9.158 -40.309,-9.054 -40.118,-8.943L-39.938,-9.13L-39.037,-9.29C-38.135,-9.445 -37.226,-9.553 -36.313,-9.601C-36.097,-9.613 -35.878,-9.625 -35.662,-9.641L-35.435,-10L-35.431,-10.011C-35.224,-10.334 -35.02,-10.662 -34.809,-10.981L-34.785,-11.013C-34.542,-11.368 -34.31,-11.73 -34.087,-12.098L-34.071,-12.117C-33.867,-12.444 -33.668,-12.772 -33.469,-13.107L-33.074,-13.769L-32.324,-14.104C-31.861,-14.307 -31.366,-14.443 -30.86,-14.511L-30.569,-14.558L-30.286,-14.618L-29.958,-14.618C-29.428,-14.618 -28.898,-14.543 -28.395,-14.395C-27.633,-14.176 -26.971,-13.765 -26.516,-13.166L-26.173,-12.708C-25.691,-13.194 -25.093,-13.573 -24.39,-13.813L-24.099,-13.912L-22.986,-14.036L-22.6,-13.976C-20.761,-13.689 -19.496,-12.492 -19.389,-10.845C-18.834,-10.917 -18.276,-10.969 -17.718,-10.997C-17.502,-11.009 -17.287,-11.021 -17.071,-11.037L-16.844,-11.395L-16.836,-11.412C-16.629,-11.735 -16.429,-12.058 -16.218,-12.377L-16.206,-12.393L-16.194,-12.413C-15.947,-12.768 -15.715,-13.127 -15.492,-13.493L-15.48,-13.513C-15.276,-13.84 -15.073,-14.172 -14.878,-14.503L-14.483,-15.165L-13.729,-15.5C-13.27,-15.707 -12.776,-15.839 -12.265,-15.907L-11.974,-15.954L-11.691,-16.018L-11.364,-16.018C-10.833,-16.018 -10.307,-15.943 -9.804,-15.791C-9.038,-15.568 -8.376,-15.165 -7.926,-14.562L-7.04,-13.386L-7.79,-12.145C-7.945,-11.878 -8.105,-11.611 -8.257,-11.348L-6.167,-11.439L-6.41,-9.222L-6.051,-9.238C-5.197,-9.238 -4.427,-8.931 -3.877,-8.412C-3.327,-8.807 -2.636,-9.034 -1.903,-9.034C-1.604,-9.034 -1.316,-8.994 -1.033,-8.935C-0.702,-9.042 -0.363,-9.114 0,-9.126M-77.359,-6.513C-77.527,-6.406 -77.698,-6.306 -77.874,-6.206C-78.301,-5.971 -78.743,-5.776 -79.206,-5.62C-78.971,-5.417 -78.759,-5.193 -78.564,-4.966C-78.4,-5.193 -78.233,-5.412 -78.061,-5.632C-77.83,-5.927 -77.595,-6.226 -77.359,-6.513M107.39,-8.089C108.267,-8.803 109.24,-9.421 110.293,-9.948C111.685,-10.638 113.177,-11.06 114.725,-11.236L117.273,-16.078L117.971,-16.445C118.498,-16.716 118.318,-16.676 118.933,-16.844C119.232,-16.928 119.116,-16.916 119.555,-16.976L119.902,-17.043C120.385,-17.159 120.301,-17.155 120.863,-17.155C121.354,-17.155 121.844,-17.091 122.311,-16.952C123.101,-16.716 123.767,-16.254 124.15,-15.584L124.716,-14.594L114.493,6.33L112.778,6.33C112.188,6.33 111.625,6.19 111.111,5.935C110.912,5.839 110.72,5.728 110.537,5.604C110.385,5.572 110.233,5.536 110.082,5.488C109.057,6.063 107.94,6.454 106.767,6.454C105.12,6.454 103.868,5.712 103.03,4.599C102.883,4.714 102.731,4.826 102.575,4.934C101.303,5.827 99.823,6.398 98.188,6.398C97.051,6.398 95.974,6.123 95.001,5.604C94.203,5.221 93.553,4.731 93.051,4.156C92.66,4.519 92.241,4.858 91.798,5.169C90.526,6.063 89.05,6.633 87.411,6.633C86.274,6.633 85.197,6.354 84.22,5.835C82.868,5.189 81.946,4.232 81.432,3.071L79.764,5.125L78.428,5.125C77.73,5.125 77.068,4.946 76.45,4.679C76.095,4.527 75.732,4.364 75.405,4.172C74.89,4.005 75.074,4.08 74.659,3.857C74.288,3.662 73.973,3.41 73.734,3.107L71.105,6.457L69.414,6.142C67.731,5.827 66.331,4.982 65.21,3.829L64.249,2.844L64.679,1.595C65.039,0.562 65.354,-0.495 65.665,-1.544C66.068,-2.896 66.486,-4.236 66.941,-5.568C67.356,-6.801 67.826,-8.017 68.377,-9.206C68.879,-10.311 69.474,-11.384 70.196,-12.381L70.447,-12.736L70.822,-12.983C71.428,-13.394 72.158,-13.593 72.912,-13.593C73.167,-13.593 73.211,-13.617 73.578,-13.557L73.61,-13.553C73.766,-13.545 73.829,-13.541 73.861,-13.537L74.145,-13.561L74.448,-13.581C74.603,-13.589 74.759,-13.593 74.914,-13.593C75.792,-13.593 76.617,-13.342 77.22,-12.788L77.319,-12.883C77.874,-13.434 78.528,-14.14 79.302,-14.423L79.385,-14.455L79.477,-14.479C79.98,-14.63 80.502,-14.766 81.021,-14.858L81.272,-14.902L81.456,-14.902L81.843,-14.945C82.273,-15.001 82.708,-15.041 83.143,-15.041L86.677,-15.041L86.705,-15.069L86.776,-15.133C87.546,-15.835 88.551,-15.97 89.593,-15.97C90.159,-15.97 90.753,-15.938 91.308,-15.815L91.575,-15.763L91.623,-15.755L91.67,-15.743C92.093,-15.655 91.986,-15.699 92.428,-15.524L92.484,-15.5C93.453,-15.089 94.08,-14.235 94.08,-13.27L94.08,-12.508L92.38,-10.414C93.218,-10.323 94.012,-10.059 94.726,-9.629C95.424,-9.21 96.006,-8.679 96.469,-8.057L96.525,-8.101C97.49,-8.891 98.567,-9.557 99.743,-10.075C100.597,-10.474 101.522,-10.682 102.488,-10.682C103.573,-10.682 104.602,-10.406 105.503,-9.86C106.273,-9.397 106.907,-8.799 107.39,-8.089M53.001,-8.28C53.34,-8.847 53.759,-9.325 54.512,-9.525C54.907,-9.676 55.33,-9.756 55.769,-9.756L56.036,-9.756C56.594,-10.039 57.209,-10.223 57.871,-10.223C58.465,-10.223 59.043,-10.083 59.562,-9.82L59.606,-9.8C59.997,-9.98 60.392,-10.143 60.783,-10.267L61.74,-10.57L62.673,-10.223C63.287,-9.991 63.814,-9.636 64.189,-9.142C64.436,-8.815 64.616,-8.452 64.719,-8.073C64.915,-7.874 64.827,-7.965 65.042,-7.666L65.058,-7.646L65.074,-7.622C65.374,-7.183 65.537,-6.685 65.537,-6.17C65.537,-5.64 65.385,-5.129 65.058,-4.679L64.652,-4.124L63.973,-3.841C62.908,-3.394 61.836,-2.94 60.791,-2.453C60.204,-2.182 59.638,-1.875 59.115,-1.52C58.788,-1.3 58.469,-1.053 58.214,-0.766C57.847,-0.187 57.524,0.483 57.229,1.081C56.594,2.365 56,3.67 55.414,4.978L54.676,6.625L52.706,6.434C51.808,6.35 50.987,6.031 50.348,5.46L50.137,5.265C49.949,5.201 49.762,5.125 49.586,5.03C49.411,4.934 49.26,4.826 49.12,4.707C48.92,4.866 48.717,5.022 48.506,5.169C47.233,6.063 45.758,6.633 44.118,6.633C42.981,6.633 41.905,6.354 40.931,5.835C38.726,4.782 37.661,2.896 37.661,0.678C37.661,-0.1 37.792,-0.861 38.02,-1.607L35.188,-1.177L30.932,7.04L28.762,6.469C27.833,6.222 27.007,5.78 26.281,5.201C25.404,4.491 24.729,3.602 24.729,2.497L24.729,2.142L24.845,1.803C24.949,1.504 25.068,1.205 25.192,0.905L25.208,0.865C25.336,0.574 25.463,0.287 25.591,-0C25.762,-0.379 25.938,-0.758 26.114,-1.133C26.305,-1.544 26.484,-1.958 26.664,-2.373L26.68,-2.417L26.7,-2.457C26.883,-2.84 27.075,-3.227 27.298,-3.594C27.45,-3.845 27.609,-4.092 27.773,-4.336L26.441,-6.88L29.52,-7.579C29.707,-7.622 29.687,-7.622 29.811,-7.642L30.054,-8.053C30.337,-8.54 30.617,-9.022 30.9,-9.505C30.744,-9.776 30.641,-10.075 30.593,-10.386C30.529,-10.793 30.501,-11.232 30.473,-11.643L30.325,-13.741L32.643,-14.1C33.712,-14.267 34.781,-14.455 35.842,-14.666C36.751,-14.838 37.661,-15.021 38.562,-15.217C39.336,-15.38 40.114,-15.524 40.899,-15.631C41.677,-15.743 42.459,-15.807 43.249,-15.807C43.963,-15.807 44.673,-15.747 45.371,-15.635L46.946,-15.384L47.377,-14.14L47.389,-14.12L47.397,-14.108L47.612,-13.797L47.728,-13.645L47.812,-13.474C47.891,-13.322 47.967,-13.17 48.047,-13.019L48.055,-12.999L48.067,-12.975C48.318,-12.472 48.262,-12.528 48.338,-12.153L48.434,-11.742L48.781,-10.442C49.734,-10.386 50.632,-10.111 51.433,-9.633C52.043,-9.262 52.57,-8.807 53.001,-8.28M43.596,-8.707C42.981,-8.663 42.363,-8.611 41.753,-8.544L41.422,-8.508L41.781,-8.197C41.96,-8.045 42.116,-7.878 42.251,-7.702L42.451,-7.866C42.818,-8.169 43.201,-8.448 43.596,-8.707" style="fill:white;"/>
            </g>
            <g transform="matrix(4.16667,0,0,4.16667,11879.7,2672.45)">
                <path d="M0,-3.741C0,-4.375 0.335,-5.025 0.993,-5.703C1.659,-6.382 2.708,-7.016 4.148,-7.61C5.58,-8.2 7.375,-8.639 9.529,-8.926C10.099,-8.998 10.458,-9.03 10.602,-9.03C11.276,-9.03 11.818,-8.874 12.225,-8.559C12.636,-8.244 12.955,-7.726 13.19,-6.996C12.879,-6.425 12.349,-5.931 11.591,-5.512C10.829,-5.089 9.92,-4.846 8.863,-4.79C8.815,-4.87 8.703,-4.993 8.536,-5.157C8.364,-5.32 8.276,-5.46 8.276,-5.572C8.276,-5.771 8.472,-6.002 8.863,-6.278C8.328,-6.17 7.758,-6.046 7.14,-5.907C6.525,-5.767 5.931,-5.604 5.365,-5.412C4.794,-5.225 4.304,-4.977 3.881,-4.666C3.462,-4.363 3.227,-4.004 3.179,-3.593C3.279,-3.37 3.686,-3.191 4.404,-3.047C5.122,-2.899 5.963,-2.728 6.944,-2.524C7.926,-2.321 8.624,-2.086 9.038,-1.83C10.179,-1.116 10.753,-0.307 10.753,0.591C10.753,1.321 10.299,2.298 9.401,3.526C8.927,4.165 8.121,4.803 6.976,5.453C5.839,6.103 4.571,6.641 3.183,7.064C1.799,7.487 0.546,7.702 -0.558,7.702C-1.412,7.702 -2.106,7.579 -2.636,7.323C-3.661,6.853 -4.172,6.195 -4.172,5.349C-4.172,4.831 -3.992,4.308 -3.63,3.778C-3.267,3.247 -2.768,2.776 -2.134,2.366C-1.5,1.959 -0.83,1.672 -0.124,1.524C0.096,1.648 0.243,1.759 0.319,1.867C0.403,1.971 0.475,2.146 0.539,2.389C0.028,2.601 -0.407,2.892 -0.774,3.259C-1.137,3.626 -1.376,4.053 -1.484,4.547C-1.36,4.739 -1.061,4.831 -0.586,4.831C0.371,4.831 1.683,4.559 3.354,4.013C4.068,3.813 4.703,3.582 5.257,3.307C5.812,3.032 6.282,2.673 6.669,2.222C7.056,1.771 7.283,1.249 7.351,0.659C7.311,0.431 6.928,0.228 6.206,0.044C5.489,-0.135 4.599,-0.375 3.538,-0.674C2.481,-0.969 1.631,-1.352 0.981,-1.83C0.335,-2.309 0.008,-2.943 0,-3.741M12.058,5.884C11.89,5.58 11.806,5.217 11.806,4.791C11.806,3.941 12.122,2.924 12.76,1.747C13.39,0.571 14.12,-0.55 14.938,-1.599C15.763,-2.656 16.561,-3.609 17.331,-4.455L17.65,-4.523C17.789,-4.523 17.949,-4.491 18.14,-4.415C18.328,-4.347 18.451,-4.307 18.511,-4.299C18.591,-4.299 18.731,-4.319 18.93,-4.371C19.134,-4.411 19.281,-4.435 19.385,-4.435C19.56,-4.435 19.68,-4.359 19.748,-4.208C18.663,-2.652 17.825,-1.452 17.239,-0.602C16.649,0.248 16.166,0.97 15.787,1.564C15.408,2.162 15.121,2.657 14.929,3.06C14.738,3.462 14.642,3.79 14.642,4.041C14.642,4.2 14.686,4.34 14.77,4.46C15.336,4.388 15.935,4.101 16.577,3.614C17.211,3.123 18.049,2.278 19.078,1.077C20.107,-0.127 21.447,-1.822 23.098,-4.012C23.202,-4.156 23.354,-4.228 23.529,-4.228C23.661,-4.228 23.836,-4.192 24.063,-4.112C24.295,-4.032 24.466,-3.992 24.586,-3.992C24.702,-3.992 24.861,-4.048 25.065,-4.16C25.268,-4.267 25.427,-4.319 25.531,-4.319L25.882,-4.152L20.183,7.395C19.991,7.395 19.864,7.371 19.792,7.323L19.572,7.104L19.361,6.881C19.297,6.837 19.141,6.789 18.878,6.745C18.615,6.701 18.483,6.625 18.483,6.518C18.483,6.151 18.567,5.736 18.727,5.285C18.89,4.831 18.99,4.535 19.022,4.396C18.938,4.428 18.687,4.635 18.268,5.006C17.845,5.377 17.434,5.72 17.035,6.031C16.633,6.342 16.166,6.625 15.639,6.889C15.109,7.148 14.606,7.28 14.132,7.28C13.282,7.28 12.592,6.817 12.058,5.884M28.02,-1.547C29.803,-4.535 30.968,-6.493 31.522,-7.418C32.073,-8.352 32.515,-9.094 32.85,-9.656C33.189,-10.223 33.449,-10.629 33.628,-10.885C33.808,-11.144 34.027,-11.423 34.298,-11.726L34.474,-11.774C34.649,-11.774 34.873,-11.666 35.16,-11.443C35.439,-11.224 35.594,-11.108 35.618,-11.104C35.862,-11.036 36.029,-10.976 36.117,-10.928L36.384,-10.657L31.706,-3.25C33.317,-4.471 34.685,-5.081 35.822,-5.081C36.783,-5.081 37.497,-4.631 37.948,-3.717C38.187,-3.215 38.311,-2.648 38.311,-2.014C38.311,-1.495 38.219,-0.957 38.036,-0.398C37.852,0.164 37.517,0.786 37.046,1.468C36.572,2.15 35.934,2.844 35.136,3.55C34.214,4.468 33.166,5.309 31.985,6.083C30.796,6.849 29.664,7.236 28.583,7.236C27.992,7.236 27.47,7.104 27.019,6.837C26.253,6.41 25.87,5.652 25.87,4.551C25.87,3.909 25.986,3.203 26.221,2.441C26.457,1.68 26.744,0.938 27.091,0.216C27.438,-0.502 27.745,-1.093 28.02,-1.547M30.342,0.615C30.042,1.005 29.667,1.604 29.225,2.429C28.778,3.251 28.555,4.033 28.555,4.767L28.854,4.811C29.464,4.811 30.31,4.4 31.391,3.578C32.479,2.757 33.433,1.775 34.25,0.639C35.072,-0.498 35.487,-1.539 35.495,-2.481C35.399,-2.568 35.26,-2.616 35.084,-2.616C34.557,-2.616 33.82,-2.285 32.87,-1.623C31.921,-0.965 31.075,-0.219 30.342,0.615M39.547,-1.156C39.547,-1.994 40.018,-2.736 40.955,-3.37C41.893,-4.008 43.292,-4.491 45.155,-4.83C45.486,-4.894 45.873,-4.93 46.328,-4.93C46.811,-4.93 47.285,-4.886 47.756,-4.802C48.227,-4.718 48.633,-4.602 48.98,-4.451C49.323,-4.299 49.547,-4.14 49.65,-3.972C49.782,-3.845 49.942,-3.669 50.137,-3.458C50.329,-3.246 50.424,-3.091 50.424,-2.991C50.424,-2.876 50.404,-2.696 50.368,-2.449C50.329,-2.201 50.297,-2.006 50.273,-1.858C49.83,-1.46 49.451,-1.14 49.132,-0.913C48.809,-0.682 48.434,-0.49 48.007,-0.343C47.576,-0.195 47.11,-0.123 46.611,-0.123C46.288,-0.319 46.125,-0.674 46.125,-1.188C46.125,-1.475 46.168,-1.671 46.248,-1.771C46.527,-1.966 46.843,-2.118 47.201,-2.225C47.556,-2.341 47.875,-2.449 48.147,-2.564C47.485,-2.716 46.838,-2.792 46.224,-2.792C45.454,-2.792 44.768,-2.676 44.166,-2.449C43.564,-2.225 43.089,-1.95 42.746,-1.631C42.746,-1.208 42.93,-0.849 43.292,-0.566C43.656,-0.279 44.262,0.1 45.107,0.563C45.957,1.021 46.595,1.436 47.01,1.807C47.429,2.182 47.636,2.637 47.636,3.183C47.529,3.762 47.177,4.316 46.571,4.831C45.973,5.345 45.243,5.796 44.385,6.183C43.835,6.438 43.157,6.637 42.343,6.773C41.538,6.909 40.784,6.98 40.082,6.98C39.623,6.98 39.232,6.957 38.897,6.909C38.111,6.781 37.497,6.522 37.046,6.127C36.6,5.732 36.372,5.249 36.372,4.671C36.372,4.4 36.424,4.113 36.52,3.806C36.632,3.498 36.843,3.199 37.154,2.912C37.465,2.625 37.836,2.382 38.255,2.186C38.686,1.995 39.084,1.903 39.459,1.903C40.201,1.903 40.688,2.242 40.919,2.932C40.389,3.119 40.018,3.271 39.802,3.387C39.587,3.498 39.432,3.65 39.32,3.845C39.212,4.041 39.16,4.32 39.16,4.691C39.228,4.882 39.495,4.974 39.974,4.974C40.74,4.974 41.637,4.795 42.67,4.432C43.699,4.069 44.338,3.682 44.589,3.271C44.589,2.88 44.401,2.561 44.022,2.318C43.644,2.078 43.029,1.755 42.18,1.36C41.334,0.97 40.696,0.583 40.257,0.22C39.826,-0.147 39.587,-0.606 39.547,-1.156M59.622,-4.714C59.606,-4.714 60.065,-4.734 60.994,-4.778C61.931,-4.818 62.661,-4.854 63.184,-4.874L63.156,-4.606L63.016,-4.244L62.701,-3.897L62.57,-3.625L62.59,-3.458L62.597,-3.27L62.458,-2.943C61.576,-2.911 60.771,-2.856 60.037,-2.772C59.303,-2.696 58.788,-2.628 58.497,-2.576C58.374,-2.353 58.142,-1.946 57.803,-1.348C57.468,-0.746 57.021,0.044 56.467,1.033C55.913,2.015 55.322,3.087 54.692,4.248C54.062,5.405 53.336,6.769 52.51,8.329L52.295,8.376C52.123,8.376 51.972,8.309 51.84,8.165C51.713,8.03 51.589,7.85 51.473,7.639C51.358,7.423 51.282,7.304 51.246,7.26C51.182,7.168 50.979,7.116 50.636,7.116C50.297,7.116 50.097,7.028 50.049,6.861C50.44,6.043 50.811,5.313 51.166,4.667C51.521,4.025 51.92,3.335 52.367,2.601C52.813,1.863 53.276,1.113 53.759,0.347C54.241,-0.418 54.832,-1.384 55.522,-2.552C55.43,-2.552 54.393,-2.469 52.399,-2.293C52.163,-2.293 52.048,-2.329 52.048,-2.405C52.048,-2.445 52.111,-2.564 52.243,-2.764C52.367,-2.963 52.438,-3.135 52.438,-3.27C52.411,-3.318 52.351,-3.414 52.263,-3.569C52.167,-3.725 52.123,-3.833 52.123,-3.897L52.319,-4.295C53.14,-4.439 53.93,-4.527 54.692,-4.567C55.454,-4.606 56.172,-4.666 56.838,-4.762C56.91,-4.874 57.001,-5.021 57.109,-5.205C57.221,-5.384 57.416,-5.703 57.699,-6.158C57.991,-6.613 58.19,-6.924 58.298,-7.091C58.529,-7.426 58.788,-7.821 59.072,-8.28C59.359,-8.739 59.562,-9.086 59.698,-9.313C59.901,-9.401 60.133,-9.469 60.4,-9.501C60.663,-9.54 60.831,-9.568 60.898,-9.584C61.146,-9.584 61.397,-9.548 61.64,-9.477C61.887,-9.405 62.055,-9.301 62.163,-9.166C61.983,-8.874 61.744,-8.46 61.437,-7.921C61.13,-7.383 60.811,-6.828 60.491,-6.25C60.168,-5.675 59.881,-5.161 59.622,-4.714M66.279,-5.767C66.052,-6.046 65.94,-6.397 65.94,-6.812C65.94,-7.275 66.08,-7.71 66.351,-8.108C66.622,-8.515 66.977,-8.783 67.396,-8.926L67.807,-8.974C68.505,-8.866 68.852,-8.519 68.852,-7.925C68.852,-7.61 68.748,-7.271 68.537,-6.912C68.321,-6.561 68.054,-6.258 67.723,-6.014C67.388,-5.771 67.069,-5.648 66.762,-5.648C66.602,-5.648 66.447,-5.691 66.279,-5.767M64.321,1.388C64.061,1.959 63.866,2.401 63.726,2.721C63.587,3.04 63.411,3.451 63.204,3.953C62.989,4.46 62.765,4.962 62.526,5.473C62.286,5.979 62.075,6.426 61.896,6.789L61.652,6.841C61.433,6.841 61.182,6.757 60.91,6.578C60.639,6.406 60.416,6.231 60.24,6.055C59.598,5.768 59.275,5.437 59.275,5.066C59.969,3.746 60.858,2.154 61.943,0.299C62.318,-0.347 62.741,-1.053 63.208,-1.807C63.675,-2.564 64.045,-3.139 64.321,-3.53C64.596,-3.92 64.787,-4.148 64.883,-4.208L65.15,-4.275C65.238,-4.275 65.362,-4.248 65.525,-4.192C65.685,-4.144 65.8,-4.112 65.888,-4.104C65.984,-4.104 66.127,-4.136 66.307,-4.204C66.494,-4.267 66.646,-4.299 66.762,-4.299L67.085,-4.128C66.953,-3.881 66.714,-3.426 66.375,-2.756C66.032,-2.094 65.653,-1.344 65.242,-0.506C64.827,0.331 64.52,0.966 64.321,1.388M78.221,-6.11C78.201,-6.11 78.664,-6.13 79.593,-6.174C80.526,-6.218 81.256,-6.25 81.783,-6.27L81.751,-6.002L81.611,-5.64L81.292,-5.293L81.165,-5.021L81.188,-4.854L81.192,-4.666L81.057,-4.339C80.171,-4.307 79.366,-4.251 78.632,-4.172C77.898,-4.096 77.387,-4.028 77.092,-3.972C76.969,-3.753 76.737,-3.346 76.402,-2.748C76.063,-2.142 75.616,-1.352 75.062,-0.367C74.508,0.615 73.917,1.692 73.287,2.852C72.657,4.009 71.927,5.373 71.105,6.933L70.894,6.98C70.718,6.98 70.567,6.909 70.435,6.769C70.308,6.629 70.184,6.45 70.068,6.238C69.953,6.027 69.877,5.904 69.841,5.868C69.777,5.768 69.574,5.716 69.235,5.716C68.892,5.716 68.692,5.632 68.644,5.465C69.035,4.647 69.406,3.917 69.761,3.271C70.116,2.625 70.519,1.935 70.962,1.201C71.408,0.463 71.875,-0.287 72.358,-1.053C72.84,-1.814 73.427,-2.78 74.117,-3.952C74.029,-3.952 72.988,-3.865 70.994,-3.689C70.762,-3.689 70.643,-3.729 70.643,-3.805C70.643,-3.841 70.706,-3.96 70.834,-4.16C70.966,-4.363 71.033,-4.531 71.033,-4.666C71.01,-4.714 70.946,-4.81 70.858,-4.97C70.762,-5.121 70.718,-5.233 70.718,-5.293L70.918,-5.691C71.735,-5.839 72.525,-5.927 73.287,-5.963C74.049,-6.002 74.767,-6.066 75.433,-6.158C75.505,-6.27 75.6,-6.421 75.704,-6.601C75.816,-6.784 76.011,-7.103 76.298,-7.558C76.586,-8.009 76.785,-8.324 76.893,-8.487C77.128,-8.823 77.387,-9.221 77.667,-9.68C77.954,-10.139 78.157,-10.482 78.293,-10.709C78.496,-10.801 78.728,-10.865 78.995,-10.901C79.258,-10.936 79.426,-10.964 79.493,-10.98C79.741,-10.98 79.992,-10.944 80.235,-10.873C80.482,-10.801 80.654,-10.697 80.758,-10.562C80.582,-10.27 80.339,-9.86 80.032,-9.317C79.725,-8.779 79.41,-8.224 79.086,-7.646C78.763,-7.072 78.48,-6.561 78.221,-6.11M77.479,6.115C77.315,5.816 77.228,5.449 77.228,5.022C77.228,4.176 77.543,3.159 78.181,1.983C78.811,0.802 79.541,-0.315 80.363,-1.368C81.185,-2.425 81.982,-3.374 82.756,-4.224L83.071,-4.291C83.211,-4.291 83.374,-4.256 83.562,-4.184C83.749,-4.112 83.873,-4.076 83.933,-4.068C84.012,-4.068 84.152,-4.092 84.355,-4.136C84.555,-4.18 84.702,-4.204 84.806,-4.204C84.982,-4.204 85.101,-4.124 85.169,-3.972C84.084,-2.421 83.25,-1.216 82.66,-0.371C82.07,0.483 81.591,1.201 81.212,1.799C80.83,2.394 80.542,2.892 80.351,3.295C80.159,3.694 80.064,4.021 80.064,4.272C80.064,4.432 80.108,4.571 80.191,4.691C80.758,4.619 81.36,4.332 81.998,3.845C82.636,3.355 83.474,2.509 84.499,1.313C85.528,0.108 86.868,-1.591 88.52,-3.777C88.627,-3.92 88.775,-3.996 88.954,-3.996C89.082,-3.996 89.258,-3.956 89.485,-3.881C89.72,-3.801 89.888,-3.761 90.007,-3.761C90.123,-3.761 90.287,-3.813 90.486,-3.924C90.689,-4.036 90.849,-4.092 90.957,-4.092L91.304,-3.92L85.604,7.627C85.412,7.627 85.285,7.603 85.213,7.559L84.994,7.335L84.782,7.116C84.719,7.068 84.563,7.024 84.3,6.98C84.04,6.933 83.905,6.857 83.905,6.749C83.905,6.382 83.989,5.967 84.148,5.517C84.312,5.066 84.411,4.771 84.443,4.627C84.359,4.663 84.108,4.867 83.689,5.237C83.267,5.612 82.856,5.955 82.457,6.266C82.054,6.574 81.591,6.857 81.061,7.124C80.53,7.383 80.028,7.515 79.553,7.515C78.704,7.515 78.013,7.048 77.479,6.115M100.813,-6.345C100.792,-6.345 101.255,-6.366 102.185,-6.409C103.122,-6.449 103.852,-6.481 104.374,-6.505L104.343,-6.238L104.203,-5.871L103.888,-5.528L103.76,-5.253L103.784,-5.089L103.784,-4.902L103.648,-4.571C102.767,-4.539 101.957,-4.487 101.227,-4.403C100.493,-4.327 99.979,-4.259 99.688,-4.208C99.564,-3.984 99.329,-3.577 98.994,-2.979C98.659,-2.377 98.208,-1.587 97.657,-0.602C97.099,0.383 96.513,1.46 95.879,2.621C95.252,3.778 94.522,5.138 93.701,6.701L93.485,6.745C93.31,6.745 93.162,6.677 93.027,6.538C92.899,6.398 92.779,6.219 92.664,6.007C92.548,5.796 92.468,5.668 92.436,5.632C92.373,5.533 92.169,5.485 91.826,5.485C91.483,5.485 91.288,5.401 91.24,5.229C91.631,4.412 92.002,3.682 92.357,3.04C92.708,2.394 93.11,1.703 93.553,0.97C94.004,0.232 94.467,-0.518 94.949,-1.284C95.432,-2.05 96.022,-3.015 96.712,-4.184C96.62,-4.184 95.579,-4.1 93.589,-3.92C93.354,-3.92 93.238,-3.96 93.238,-4.036C93.238,-4.076 93.302,-4.192 93.429,-4.391C93.561,-4.595 93.625,-4.766 93.625,-4.902C93.601,-4.945 93.541,-5.045 93.454,-5.201C93.358,-5.356 93.31,-5.464 93.31,-5.528L93.513,-5.927C94.331,-6.07 95.121,-6.158 95.879,-6.198C96.64,-6.238 97.358,-6.298 98.024,-6.393C98.1,-6.505 98.192,-6.653 98.3,-6.836C98.407,-7.016 98.607,-7.335 98.894,-7.789C99.181,-8.244 99.381,-8.555 99.488,-8.723C99.72,-9.058 99.979,-9.453 100.262,-9.915C100.549,-10.374 100.753,-10.713 100.888,-10.944C101.092,-11.032 101.319,-11.096 101.59,-11.132C101.854,-11.172 102.021,-11.2 102.089,-11.216C102.336,-11.216 102.587,-11.18 102.831,-11.108C103.078,-11.036 103.25,-10.928 103.349,-10.793C103.178,-10.506 102.935,-10.095 102.627,-9.552C102.32,-9.014 102.001,-8.46 101.682,-7.877C101.359,-7.303 101.072,-6.792 100.813,-6.345M100.338,5.297C100.043,4.882 99.899,4.34 99.899,3.674C99.899,2.804 100.13,1.871 100.585,0.854C101.048,-0.159 101.694,-1.109 102.531,-2.006C103.369,-2.899 104.386,-3.633 105.575,-4.208C106.768,-4.778 108.06,-5.065 109.448,-5.065C110.238,-5.017 110.872,-4.75 111.346,-4.256C111.821,-3.769 112.06,-3.183 112.06,-2.508C112.06,-1.978 111.905,-1.475 111.598,-1.001C111.083,-0.259 110.25,0.371 109.113,0.886C108.359,1.281 107.382,1.648 106.169,1.995C104.965,2.342 103.848,2.537 102.807,2.593C102.659,3.084 102.587,3.399 102.587,3.542C102.587,3.921 102.815,4.212 103.273,4.408C103.477,4.48 103.768,4.524 104.151,4.524C105.017,4.524 105.938,4.296 106.911,3.841C107.888,3.391 108.626,2.749 109.137,1.919C109.208,1.971 109.249,2.214 109.249,2.645C109.264,2.693 109.368,2.792 109.556,2.94C109.743,3.084 109.839,3.191 109.839,3.247C109.635,3.893 109.201,4.48 108.531,5.006C107.856,5.533 107.059,5.955 106.129,6.266C105.2,6.582 104.311,6.741 103.461,6.741C101.877,6.741 100.836,6.263 100.338,5.297M109.548,-2.504C109.38,-2.704 109.065,-2.8 108.598,-2.8C108.287,-2.8 107.932,-2.744 107.525,-2.62C106.66,-2.325 105.91,-1.95 105.284,-1.491C104.662,-1.037 104.083,-0.439 103.561,0.311C103.84,0.272 104.39,0.148 105.228,-0.044C106.07,-0.235 106.68,-0.387 107.059,-0.498C107.88,-0.777 108.519,-1.069 108.981,-1.376C109.44,-1.683 109.675,-1.962 109.675,-2.225L109.548,-2.504ZM122.411,-2.876C122.61,-3.207 122.89,-3.673 123.24,-4.275C123.588,-4.874 123.935,-5.472 124.281,-6.066C124.629,-6.665 124.9,-7.127 125.099,-7.458C125,-7.49 124.872,-7.51 124.708,-7.518C124.545,-7.526 124.425,-7.55 124.349,-7.586C124.174,-7.726 124.074,-7.873 124.05,-8.033C124.022,-8.188 123.99,-8.547 123.95,-9.098C125.031,-9.265 126.136,-9.461 127.265,-9.68C128.386,-9.899 129.311,-10.087 130.033,-10.242C130.763,-10.398 131.469,-10.526 132.167,-10.625C132.865,-10.721 133.507,-10.773 134.114,-10.773C134.664,-10.773 135.214,-10.725 135.773,-10.637L135.912,-10.366C135.976,-10.25 136.104,-10.067 136.287,-9.816C136.411,-9.572 136.491,-9.413 136.531,-9.337L136.615,-9.058C136.638,-8.95 136.678,-8.767 136.746,-8.507C135.035,-8.424 133.551,-8.32 132.307,-8.18C131.058,-8.049 130.149,-7.921 129.574,-7.798C129,-7.67 128.677,-7.578 128.597,-7.506C128.254,-7.099 127.771,-6.469 127.141,-5.632C126.511,-4.79 126.005,-4 125.614,-3.274L130.835,-3.809C130.97,-3.693 131.05,-3.554 131.082,-3.374C131.106,-3.203 131.138,-3.027 131.162,-2.856C131.513,-2.253 131.708,-1.886 131.748,-1.735L124.25,-0.59L120.365,6.909C119.846,6.769 119.36,6.518 118.901,6.151C118.442,5.78 118.211,5.461 118.211,5.19C118.311,4.906 118.414,4.651 118.51,4.412C118.614,4.181 118.737,3.897 118.889,3.562C119.037,3.231 119.208,2.86 119.396,2.461C119.583,2.054 119.774,1.62 119.974,1.153C120.165,0.746 120.337,0.435 120.472,0.208C120.604,-0.024 120.756,-0.251 120.919,-0.486C121.079,-0.722 121.202,-0.913 121.29,-1.057L121.338,-1.172L121.362,-1.455C121.362,-1.798 121.25,-2.185 121.023,-2.616L121.21,-2.652L121.266,-2.664L121.158,-2.636L121.051,-2.616L122.411,-2.876ZM133.084,6.482C131.792,5.884 131.146,4.842 131.146,3.371C131.146,2.653 131.31,1.891 131.633,1.081C131.96,0.272 132.414,-0.526 133.001,-1.304C133.591,-2.078 134.281,-2.792 135.087,-3.446C135.885,-4.1 136.762,-4.638 137.723,-5.061C138.23,-5.297 138.748,-5.412 139.283,-5.412C139.853,-5.412 140.368,-5.273 140.83,-4.993C141.301,-4.71 141.68,-4.347 141.975,-3.897C142.274,-3.446 142.45,-3.003 142.51,-2.572C142.51,-1.723 142.302,-0.746 141.875,0.363C141.453,1.472 140.89,2.533 140.184,3.538C139.474,4.547 138.665,5.373 137.751,6.011C136.838,6.653 135.916,6.976 134.983,6.976C134.317,6.976 133.687,6.813 133.084,6.482M139.434,-2.879C139.315,-2.935 139.183,-2.967 139.035,-2.967C138.485,-2.967 137.847,-2.64 137.113,-1.99C136.387,-1.34 135.797,-0.718 135.346,-0.131C134.887,0.499 134.508,1.173 134.205,1.891C133.906,2.613 133.759,3.223 133.759,3.734C133.759,4.228 133.91,4.535 134.217,4.667C134.923,4.667 135.577,4.44 136.192,3.989C136.814,3.538 137.464,2.84 138.158,1.891C138.409,1.536 138.653,1.097 138.892,0.579C139.127,0.052 139.315,-0.45 139.458,-0.945C139.598,-1.436 139.67,-1.854 139.67,-2.197C139.67,-2.56 139.59,-2.784 139.434,-2.879M148.05,-2.832C148.528,-3.238 149.266,-3.725 150.26,-4.279C151.245,-4.842 152.002,-5.201 152.529,-5.368C152.697,-5.305 152.812,-5.229 152.88,-5.137L153.043,-4.798C153.083,-4.666 153.131,-4.511 153.187,-4.319L153.43,-4.024L153.698,-3.713L153.777,-3.482L153.726,-3.274C152.286,-2.668 151.189,-2.194 150.447,-1.846C149.701,-1.499 149.019,-1.121 148.397,-0.706C147.779,-0.287 147.28,0.156 146.897,0.615C146.311,1.496 145.294,3.554 143.846,6.789C143.515,6.761 143.255,6.657 143.06,6.486C142.865,6.31 142.737,6.167 142.665,6.055C142.589,5.975 142.446,5.907 142.222,5.852C142.003,5.788 141.867,5.744 141.82,5.716L141.74,5.505C141.859,5.118 142.075,4.488 142.39,3.598C142.709,2.721 143.132,1.688 143.67,0.503C144.085,-0.41 144.615,-1.483 145.254,-2.728C145.888,-3.972 146.223,-4.595 146.247,-4.595L146.634,-4.718L147.041,-4.714C147.184,-4.71 147.36,-4.702 147.563,-4.698C147.635,-4.71 147.802,-4.798 148.066,-4.954C148.329,-5.105 148.552,-5.185 148.736,-5.185L149.151,-5.081C148.871,-4.583 148.504,-3.833 148.05,-2.832M170.597,-1.312L179.516,-10.801C179.616,-10.889 179.931,-10.932 180.465,-10.932C180.952,-10.932 181.315,-10.905 181.562,-10.845L181.937,-10.773L182.232,-10.693L182.328,-10.581L169.297,5.469C169.062,5.469 168.783,5.397 168.448,5.253C168.109,5.11 167.861,4.99 167.686,4.886C167.582,4.819 167.447,4.755 167.271,4.691C167.095,4.635 166.96,4.579 166.864,4.531L166.708,4.376L168.858,-3.713L160.817,6.538C159.8,6.346 158.879,5.824 158.053,4.978C158.312,4.228 158.652,3.151 159.066,1.747C159.485,0.343 159.9,-0.973 160.319,-2.205C160.734,-3.438 161.184,-4.583 161.667,-5.628C162.149,-6.681 162.684,-7.61 163.266,-8.424C163.398,-8.515 163.573,-8.559 163.781,-8.559L164.036,-8.547L164.295,-8.523L164.658,-8.487L164.902,-8.507L165.217,-8.535L165.48,-8.551L165.783,-8.559C166.015,-8.559 166.162,-8.519 166.218,-8.444L161.771,1.225C161.998,0.958 162.297,0.591 162.656,0.124C163.015,-0.347 163.33,-0.766 163.613,-1.136C163.893,-1.507 164.208,-1.898 164.559,-2.313C165.652,-3.653 166.705,-4.894 167.714,-6.027C168.731,-7.159 169.536,-8.025 170.135,-8.619C170.737,-9.217 171.076,-9.528 171.16,-9.56C171.678,-9.712 172.093,-9.816 172.4,-9.867C172.488,-9.867 172.715,-9.892 173.074,-9.931C173.433,-9.979 173.74,-10.003 174.012,-10.003L170.597,-1.312ZM176.381,6.482C175.089,5.884 174.442,4.842 174.442,3.371C174.442,2.653 174.606,1.891 174.929,1.081C175.252,0.272 175.711,-0.526 176.301,-1.304C176.887,-2.078 177.577,-2.792 178.379,-3.446C179.181,-4.1 180.058,-4.638 181.016,-5.061C181.526,-5.297 182.045,-5.412 182.579,-5.412C183.15,-5.412 183.664,-5.273 184.127,-4.993C184.597,-4.71 184.976,-4.347 185.271,-3.897C185.571,-3.446 185.746,-3.003 185.806,-2.572C185.806,-1.723 185.599,-0.746 185.176,0.363C184.753,1.472 184.187,2.533 183.481,3.538C182.771,4.547 181.961,5.373 181.048,6.011C180.134,6.653 179.213,6.976 178.28,6.976C177.614,6.976 176.983,6.813 176.381,6.482M182.727,-2.879C182.615,-2.935 182.484,-2.967 182.332,-2.967C181.781,-2.967 181.143,-2.64 180.413,-1.99C179.684,-1.34 179.093,-0.718 178.642,-0.131C178.184,0.499 177.805,1.173 177.502,1.891C177.203,2.613 177.055,3.223 177.055,3.734C177.055,4.228 177.207,4.535 177.518,4.667C178.22,4.667 178.874,4.44 179.488,3.989C180.11,3.538 180.764,2.84 181.454,1.891C181.706,1.536 181.949,1.097 182.188,0.579C182.428,0.052 182.615,-0.45 182.755,-0.945C182.894,-1.436 182.97,-1.854 182.97,-2.197C182.97,-2.56 182.886,-2.784 182.727,-2.879M187.158,6.247C185.866,5.652 185.224,4.611 185.224,3.135C185.224,2.421 185.383,1.66 185.706,0.85C186.033,0.036 186.488,-0.757 187.078,-1.535C187.669,-2.313 188.359,-3.027 189.16,-3.677C189.958,-4.331 190.836,-4.87 191.797,-5.293C192.303,-5.532 192.826,-5.648 193.361,-5.648C193.923,-5.648 194.441,-5.508 194.908,-5.229C195.379,-4.942 195.758,-4.583 196.053,-4.128C196.348,-3.677 196.523,-3.234 196.583,-2.804C196.583,-1.954 196.376,-0.977 195.953,0.132C195.53,1.241 194.968,2.298 194.262,3.307C193.548,4.316 192.738,5.138 191.829,5.78C190.916,6.418 189.994,6.741 189.057,6.741C188.395,6.741 187.76,6.578 187.158,6.247M193.508,-3.111C193.392,-3.171 193.261,-3.203 193.113,-3.203C192.563,-3.203 191.921,-2.876 191.191,-2.225C190.461,-1.575 189.87,-0.953 189.42,-0.363C188.965,0.264 188.582,0.942 188.279,1.66C187.984,2.378 187.832,2.992 187.832,3.498C187.832,3.993 187.988,4.304 188.295,4.432C188.997,4.432 189.655,4.208 190.269,3.758C190.887,3.307 191.538,2.609 192.232,1.66C192.483,1.301 192.726,0.862 192.966,0.343C193.205,-0.179 193.392,-0.686 193.536,-1.18C193.676,-1.671 193.747,-2.086 193.747,-2.429C193.747,-2.792 193.668,-3.019 193.508,-3.111M210.173,-11.73C210.368,-11.83 210.504,-11.89 210.587,-11.914L210.878,-11.974C210.994,-11.993 211.162,-12.029 211.385,-12.073L211.736,-12.117C211.971,-12.117 212.175,-12.093 212.35,-12.037C212.526,-11.986 212.637,-11.914 212.689,-11.822L203.651,6.673L203.24,6.57L202.845,6.306L202.499,6.043C202.024,6.043 201.749,5.979 201.673,5.86L201.769,5.453L201.916,5.038C201.98,4.89 202.044,4.751 202.095,4.607C202.159,4.468 202.207,4.296 202.239,4.097C200.361,5.895 198.829,6.797 197.64,6.797C196.747,6.797 196.081,6.266 195.638,5.206C195.538,4.95 195.49,4.635 195.49,4.248C195.49,3.355 195.758,2.31 196.3,1.117C196.843,-0.079 197.632,-1.248 198.677,-2.393C199.718,-3.542 200.971,-4.471 202.438,-5.205C203.902,-5.931 205.526,-6.294 207.313,-6.294L210.173,-11.73ZM206.14,-4.339C204.768,-4.124 203.488,-3.526 202.295,-2.544C201.098,-1.559 200.137,-0.458 199.403,0.754C198.665,1.971 198.302,2.944 198.302,3.678C198.302,3.973 198.358,4.184 198.474,4.304C198.877,4.304 199.335,4.121 199.862,3.75C200.388,3.375 200.847,2.984 201.246,2.569C201.641,2.15 202.119,1.616 202.682,0.966C203.244,0.311 203.627,-0.107 203.827,-0.295C204.142,-0.817 204.573,-1.539 205.119,-2.465C205.666,-3.386 206,-4.012 206.14,-4.339" style="fill:rgb(40,66,47);fill-rule:nonzero;"/>
            </g>
            <g transform="matrix(4.16667,0,0,4.16667,12900.6,2120.8)">
                <path d="M0,-0.659L0.79,-0.659C1.711,-0.659 2.457,-0.966 2.457,-1.712C2.457,-2.37 1.974,-2.809 0.921,-2.809C0.483,-2.809 0.176,-2.765 0,-2.725L0,-0.659ZM-0.044,3.382L-1.715,3.382L-1.715,-3.822C-1.057,-3.91 -0.132,-4.041 1.053,-4.041C2.413,-4.041 3.027,-3.822 3.514,-3.471C3.953,-3.164 4.26,-2.637 4.26,-1.931C4.26,-1.054 3.602,-0.483 2.768,-0.216L2.768,-0.132C3.47,0.091 3.821,0.661 4.041,1.627C4.26,2.723 4.435,3.118 4.567,3.382L2.812,3.382C2.593,3.118 2.457,2.504 2.242,1.627C2.106,0.877 1.671,0.526 0.746,0.526L-0.044,0.526L-0.044,3.382ZM-4.483,-0.352C-4.483,2.855 -2.066,5.404 1.141,5.404C4.26,5.444 6.633,2.855 6.633,-0.304C6.633,-3.515 4.26,-6.107 1.053,-6.107C-2.066,-6.107 -4.483,-3.515 -4.483,-0.352M8.476,-0.352C8.476,3.689 5.225,6.896 1.097,6.896C-3.031,6.896 -6.326,3.689 -6.326,-0.352C-6.326,-4.392 -3.031,-7.555 1.141,-7.555C5.225,-7.555 8.476,-4.392 8.476,-0.352" style="fill:white;fill-rule:nonzero;"/>
            </g>
            <g transform="matrix(4.16667,0,0,4.16667,11828.4,2854.88)">
                <path d="M0,7.08L0,-2.612L-3.885,-2.612L-3.885,-3.362L4.786,-3.362L4.786,-2.612L0.901,-2.612L0.901,7.08L0,7.08ZM5.871,7.08L5.871,-3.362L6.621,-3.362L6.621,1.288C6.956,0.882 7.319,0.571 7.718,0.367C8.113,0.164 8.552,0.06 9.022,0.06C9.8,0.06 10.402,0.307 10.821,0.794C11.244,1.281 11.451,1.975 11.451,2.876L11.451,7.08L10.689,7.08L10.689,3.243C10.689,2.405 10.546,1.783 10.259,1.376C9.971,0.969 9.537,0.766 8.95,0.766C8.472,0.766 8.033,0.886 7.642,1.133C7.251,1.38 6.908,1.743 6.621,2.222L6.621,7.08L5.871,7.08ZM18.93,6.318C18.479,6.629 18.041,6.857 17.614,7.008C17.187,7.16 16.744,7.232 16.293,7.232C15.26,7.232 14.435,6.893 13.809,6.215C13.186,5.54 12.871,4.643 12.871,3.518C12.871,2.473 13.166,1.636 13.757,1.001C14.347,0.363 15.121,0.048 16.082,0.048C16.976,0.048 17.698,0.347 18.244,0.95C18.79,1.552 19.065,2.353 19.065,3.351L19.065,3.379L13.681,3.379L13.681,3.462C13.681,4.36 13.924,5.09 14.407,5.648C14.889,6.206 15.516,6.482 16.277,6.482C16.736,6.482 17.179,6.402 17.602,6.242C18.024,6.079 18.467,5.824 18.93,5.473L18.93,6.318ZM13.781,2.724L18.164,2.724C18.084,2.114 17.845,1.628 17.454,1.257C17.059,0.886 16.584,0.702 16.026,0.702C15.452,0.702 14.957,0.89 14.542,1.265C14.124,1.64 13.868,2.122 13.781,2.724M24.797,3.638C24.797,4.439 25.068,5.122 25.607,5.68C26.145,6.234 26.792,6.514 27.553,6.514C28.311,6.514 28.953,6.234 29.488,5.68C30.018,5.122 30.285,4.439 30.285,3.638C30.285,2.832 30.022,2.15 29.492,1.592C28.961,1.029 28.315,0.75 27.553,0.75C26.783,0.75 26.129,1.029 25.599,1.592C25.064,2.15 24.797,2.832 24.797,3.638M23.956,3.626C23.956,2.625 24.307,1.775 25,1.077C25.698,0.379 26.548,0.032 27.553,0.032C28.551,0.032 29.396,0.379 30.094,1.081C30.796,1.779 31.143,2.629 31.143,3.626C31.143,4.096 31.047,4.555 30.864,5.002C30.676,5.449 30.413,5.84 30.074,6.183C29.735,6.522 29.348,6.781 28.917,6.956C28.491,7.132 28.036,7.216 27.553,7.216C26.548,7.216 25.698,6.873 25,6.175C24.307,5.481 23.956,4.631 23.956,3.626M32.503,7.08L32.503,0.184L33.265,0.184L33.265,1.288C33.6,0.874 33.963,0.567 34.358,0.363C34.757,0.164 35.188,0.06 35.658,0.06C36.436,0.06 37.042,0.307 37.465,0.794C37.888,1.281 38.099,1.975 38.099,2.876L38.099,7.08L37.333,7.08L37.333,3.243C37.333,2.413 37.19,1.791 36.899,1.38C36.604,0.973 36.165,0.766 35.578,0.766C35.1,0.766 34.669,0.886 34.286,1.133C33.899,1.372 33.56,1.739 33.265,2.222L33.265,7.08L32.503,7.08ZM39.962,-3.362L40.744,-3.362L40.744,7.08L39.962,7.08L39.962,-3.362ZM44.672,5.736L41.785,0.184L42.642,0.184L45.091,4.878L47.381,0.184L48.175,0.184L43.097,10.55L42.319,10.55L44.672,5.736ZM112.663,1.536L112.663,5.752C112.918,6.019 113.197,6.21 113.496,6.338C113.799,6.466 114.134,6.53 114.517,6.53C115.287,6.53 115.913,6.262 116.4,5.728C116.886,5.193 117.13,4.495 117.13,3.638C117.13,2.784 116.886,2.086 116.4,1.552C115.913,1.017 115.287,0.75 114.517,0.75C114.13,0.75 113.791,0.814 113.492,0.942C113.193,1.069 112.918,1.265 112.663,1.536M111.929,10.55L111.929,0.184L112.663,0.184L112.663,0.674C112.946,0.463 113.245,0.299 113.564,0.2C113.883,0.096 114.234,0.048 114.609,0.048C115.618,0.048 116.428,0.375 117.05,1.033C117.672,1.695 117.983,2.561 117.983,3.626C117.983,4.691 117.672,5.552 117.05,6.215C116.428,6.873 115.618,7.204 114.609,7.204C114.222,7.204 113.871,7.152 113.556,7.052C113.241,6.952 112.942,6.801 112.663,6.589L112.663,10.55L111.929,10.55ZM119.746,3.638C119.746,4.439 120.014,5.122 120.552,5.68C121.091,6.234 121.737,6.514 122.499,6.514C123.256,6.514 123.902,6.234 124.433,5.68C124.968,5.122 125.235,4.439 125.235,3.638C125.235,2.832 124.968,2.15 124.437,1.592C123.91,1.029 123.26,0.75 122.499,0.75C121.729,0.75 121.079,1.029 120.544,1.592C120.014,2.15 119.746,2.832 119.746,3.638M118.905,3.626C118.905,2.625 119.252,1.775 119.95,1.077C120.644,0.379 121.497,0.032 122.502,0.032C123.496,0.032 124.341,0.379 125.043,1.081C125.741,1.779 126.088,2.629 126.088,3.626C126.088,4.096 125.997,4.555 125.809,5.002C125.625,5.449 125.362,5.84 125.023,6.183C124.68,6.522 124.293,6.781 123.866,6.956C123.436,7.132 122.985,7.216 122.502,7.216C121.497,7.216 120.644,6.873 119.95,6.175C119.252,5.481 118.905,4.631 118.905,3.626M127.508,-3.362L128.29,-3.362L128.29,7.08L127.508,7.08L127.508,-3.362ZM132.223,5.736L129.331,0.184L130.193,0.184L132.642,4.878L134.931,0.184L135.725,0.184L130.647,10.55L129.869,10.55L132.223,5.736ZM136.622,7.08L136.622,0.184L137.388,0.184L137.388,1.288C137.707,0.874 138.054,0.567 138.433,0.363C138.816,0.164 139.231,0.06 139.677,0.06C140.196,0.06 140.623,0.172 140.962,0.395C141.301,0.615 141.588,0.973 141.819,1.468C142.202,0.985 142.593,0.626 142.996,0.399C143.391,0.172 143.826,0.06 144.3,0.06C145.054,0.06 145.633,0.307 146.043,0.794C146.45,1.281 146.654,1.975 146.654,2.876L146.654,7.08L145.872,7.08L145.872,3.243C145.872,2.413 145.736,1.791 145.457,1.38C145.182,0.973 144.763,0.766 144.208,0.766C143.75,0.766 143.339,0.886 142.968,1.133C142.601,1.38 142.286,1.743 142.019,2.222L142.019,7.08L141.257,7.08L141.257,3.243C141.257,2.413 141.117,1.791 140.838,1.38C140.559,0.973 140.136,0.766 139.578,0.766C139.127,0.766 138.72,0.886 138.357,1.133C137.99,1.372 137.663,1.739 137.388,2.222L137.388,7.08L136.622,7.08ZM154.116,6.318C153.67,6.629 153.231,6.857 152.804,7.008C152.373,7.16 151.935,7.232 151.484,7.232C150.451,7.232 149.621,6.893 148.999,6.215C148.373,5.54 148.062,4.643 148.062,3.518C148.062,2.473 148.357,1.636 148.943,1.001C149.537,0.363 150.311,0.048 151.272,0.048C152.162,0.048 152.884,0.347 153.43,0.95C153.981,1.552 154.252,2.353 154.252,3.351L154.252,3.379L148.871,3.379L148.871,3.462C148.871,4.36 149.111,5.09 149.593,5.648C150.08,6.206 150.702,6.482 151.468,6.482C151.927,6.482 152.365,6.402 152.788,6.242C153.215,6.079 153.657,5.824 154.116,5.473L154.116,6.318ZM148.967,2.724L153.351,2.724C153.271,2.114 153.035,1.628 152.64,1.257C152.246,0.886 151.775,0.702 151.217,0.702C150.642,0.702 150.148,0.89 149.729,1.265C149.31,1.64 149.055,2.122 148.967,2.724M155.859,7.08L155.859,0.184L156.621,0.184L156.621,1.887C157.052,1.229 157.439,0.758 157.794,0.479C158.149,0.204 158.516,0.06 158.903,0.06C159.11,0.06 159.31,0.104 159.509,0.188C159.704,0.275 159.912,0.407 160.123,0.586L159.704,1.316C159.497,1.149 159.305,1.025 159.134,0.945C158.962,0.866 158.795,0.826 158.639,0.826C158.328,0.826 158.017,0.977 157.698,1.277C157.379,1.572 157.02,2.054 156.621,2.724L156.621,7.08L155.859,7.08ZM165.476,1.536L165.476,5.752C165.731,6.019 166.006,6.21 166.31,6.338C166.609,6.466 166.948,6.53 167.327,6.53C168.096,6.53 168.727,6.262 169.213,5.728C169.7,5.193 169.939,4.495 169.939,3.638C169.939,2.784 169.7,2.086 169.213,1.552C168.727,1.017 168.096,0.75 167.327,0.75C166.944,0.75 166.601,0.814 166.302,0.942C166.006,1.069 165.731,1.265 165.476,1.536M164.742,10.55L164.742,0.184L165.476,0.184L165.476,0.674C165.759,0.463 166.058,0.299 166.377,0.2C166.696,0.096 167.043,0.048 167.422,0.048C168.427,0.048 169.241,0.375 169.863,1.033C170.486,1.695 170.797,2.561 170.797,3.626C170.797,4.691 170.486,5.552 169.863,6.215C169.241,6.873 168.427,7.204 167.422,7.204C167.035,7.204 166.684,7.152 166.365,7.052C166.05,6.952 165.755,6.801 165.476,6.589L165.476,10.55L164.742,10.55ZM172.281,7.08L172.281,0.184L173.046,0.184L173.046,1.887C173.473,1.229 173.864,0.758 174.219,0.479C174.574,0.204 174.941,0.06 175.324,0.06C175.535,0.06 175.735,0.104 175.93,0.188C176.129,0.275 176.333,0.407 176.548,0.586L176.129,1.316C175.922,1.149 175.731,1.025 175.559,0.945C175.388,0.866 175.22,0.826 175.061,0.826C174.753,0.826 174.438,0.977 174.123,1.277C173.804,1.572 173.445,2.054 173.046,2.724L173.046,7.08L172.281,7.08ZM177.617,3.638C177.617,4.439 177.888,5.122 178.427,5.68C178.965,6.234 179.612,6.514 180.373,6.514C181.131,6.514 181.773,6.234 182.308,5.68C182.838,5.122 183.105,4.439 183.105,3.638C183.105,2.832 182.842,2.15 182.312,1.592C181.781,1.029 181.135,0.75 180.373,0.75C179.604,0.75 178.949,1.029 178.419,1.592C177.885,2.15 177.617,2.832 177.617,3.638M176.776,3.626C176.776,2.625 177.127,1.775 177.821,1.077C178.519,0.379 179.368,0.032 180.373,0.032C181.371,0.032 182.216,0.379 182.918,1.081C183.616,1.779 183.963,2.629 183.963,3.626C183.963,4.096 183.867,4.555 183.684,5.002C183.496,5.449 183.233,5.84 182.894,6.183C182.555,6.522 182.168,6.781 181.738,6.956C181.311,7.132 180.856,7.216 180.373,7.216C179.368,7.216 178.519,6.873 177.821,6.175C177.127,5.481 176.776,4.631 176.776,3.626M189.176,0.184L189.942,0.184L189.942,7.08L189.176,7.08L189.176,0.184ZM185.383,7.08L185.383,0.826L184.27,0.826L184.27,0.184L185.383,0.184L185.383,-0.897C185.383,-1.743 185.579,-2.381 185.961,-2.816C186.348,-3.251 186.915,-3.47 187.661,-3.47C188.331,-3.47 188.865,-3.29 189.276,-2.927C189.683,-2.568 189.902,-2.07 189.938,-1.436L189.176,-1.436C189.136,-1.874 188.985,-2.213 188.726,-2.453C188.462,-2.692 188.107,-2.812 187.656,-2.812C187.134,-2.812 186.755,-2.664 186.516,-2.369C186.281,-2.07 186.165,-1.595 186.165,-0.945L186.165,0.184L187.433,0.184L187.433,0.826L186.165,0.826L186.165,7.08L185.383,7.08ZM191.893,-3.362L192.675,-3.362L192.675,7.08L191.893,7.08L191.893,-3.362ZM200.233,6.318C199.782,6.629 199.347,6.857 198.917,7.008C198.49,7.16 198.047,7.232 197.596,7.232C196.563,7.232 195.738,6.893 195.111,6.215C194.489,5.54 194.174,4.643 194.174,3.518C194.174,2.473 194.469,1.636 195.06,1.001C195.65,0.363 196.424,0.048 197.385,0.048C198.278,0.048 199,0.347 199.547,0.95C200.093,1.552 200.368,2.353 200.368,3.351L200.368,3.379L194.984,3.379L194.984,3.462C194.984,4.36 195.227,5.09 195.71,5.648C196.192,6.206 196.819,6.482 197.58,6.482C198.039,6.482 198.482,6.402 198.905,6.242C199.327,6.079 199.77,5.824 200.233,5.473L200.233,6.318ZM195.083,2.724L199.467,2.724C199.387,2.114 199.148,1.628 198.757,1.257C198.362,0.886 197.887,0.702 197.329,0.702C196.755,0.702 196.264,0.89 195.845,1.265C195.427,1.64 195.171,2.122 195.083,2.724M205.322,5.828C205.669,6.059 206.012,6.234 206.351,6.346C206.69,6.458 207.033,6.514 207.384,6.514C207.823,6.514 208.174,6.41 208.429,6.203C208.681,5.991 208.808,5.708 208.808,5.341C208.808,4.811 208.346,4.372 207.42,4.037C207.181,3.945 206.997,3.877 206.862,3.825C206.351,3.626 205.972,3.371 205.717,3.056C205.466,2.736 205.338,2.361 205.338,1.931C205.338,1.372 205.542,0.914 205.944,0.563C206.351,0.208 206.878,0.032 207.524,0.032C207.819,0.032 208.122,0.08 208.433,0.172C208.744,0.268 209.068,0.415 209.403,0.615L209.403,1.408C209.052,1.185 208.717,1.013 208.401,0.902C208.082,0.79 207.771,0.734 207.476,0.734C207.065,0.734 206.73,0.846 206.467,1.065C206.204,1.288 206.072,1.572 206.072,1.915C206.072,2.218 206.192,2.473 206.431,2.68C206.674,2.884 207.121,3.103 207.779,3.335C208.477,3.574 208.956,3.845 209.211,4.128C209.474,4.416 209.602,4.791 209.602,5.261C209.602,5.872 209.399,6.358 208.992,6.705C208.585,7.056 208.027,7.232 207.321,7.232C206.961,7.232 206.623,7.184 206.295,7.084C205.968,6.984 205.645,6.829 205.322,6.625L205.322,5.828ZM211.09,7.08L211.09,-3.362L211.836,-3.362L211.836,1.288C212.171,0.882 212.534,0.571 212.932,0.367C213.331,0.164 213.766,0.06 214.237,0.06C215.019,0.06 215.621,0.307 216.04,0.794C216.458,1.281 216.67,1.975 216.67,2.876L216.67,7.08L215.904,7.08L215.904,3.243C215.904,2.405 215.76,1.783 215.477,1.376C215.19,0.969 214.751,0.766 214.165,0.766C213.686,0.766 213.251,0.886 212.861,1.133C212.466,1.38 212.127,1.743 211.836,2.222L211.836,7.08L211.09,7.08ZM224.145,6.318C223.698,6.629 223.259,6.857 222.832,7.008C222.401,7.16 221.963,7.232 221.512,7.232C220.479,7.232 219.649,6.893 219.027,6.215C218.401,5.54 218.09,4.643 218.09,3.518C218.09,2.473 218.385,1.636 218.971,1.001C219.565,0.363 220.339,0.048 221.301,0.048C222.19,0.048 222.912,0.347 223.458,0.95C224.009,1.552 224.28,2.353 224.28,3.351L224.28,3.379L218.899,3.379L218.899,3.462C218.899,4.36 219.139,5.09 219.621,5.648C220.108,6.206 220.73,6.482 221.496,6.482C221.955,6.482 222.394,6.402 222.816,6.242C223.239,6.079 223.686,5.824 224.145,5.473L224.145,6.318ZM218.995,2.724L223.379,2.724C223.299,2.114 223.063,1.628 222.669,1.257C222.274,0.886 221.803,0.702 221.245,0.702C220.67,0.702 220.176,0.89 219.757,1.265C219.338,1.64 219.083,2.122 218.995,2.724M231.456,6.318C231.005,6.629 230.566,6.857 230.139,7.008C229.713,7.16 229.27,7.232 228.819,7.232C227.786,7.232 226.96,6.893 226.334,6.215C225.712,5.54 225.397,4.643 225.397,3.518C225.397,2.473 225.692,1.636 226.282,1.001C226.873,0.363 227.646,0.048 228.608,0.048C229.501,0.048 230.219,0.347 230.77,0.95C231.316,1.552 231.591,2.353 231.591,3.351L231.591,3.379L226.207,3.379L226.207,3.462C226.207,4.36 226.45,5.09 226.933,5.648C227.415,6.206 228.041,6.482 228.803,6.482C229.262,6.482 229.705,6.402 230.127,6.242C230.55,6.079 230.993,5.824 231.456,5.473L231.456,6.318ZM226.302,2.724L230.686,2.724C230.61,2.114 230.371,1.628 229.98,1.257C229.585,0.886 229.11,0.702 228.552,0.702C227.978,0.702 227.483,0.89 227.068,1.265C226.649,1.64 226.394,2.122 226.302,2.724M234.188,5.389C234.188,5.847 234.252,6.159 234.379,6.306C234.507,6.458 234.73,6.53 235.061,6.53C235.229,6.53 235.404,6.502 235.588,6.442C235.775,6.386 235.979,6.298 236.206,6.179L236.206,6.932C235.995,7.028 235.783,7.1 235.576,7.148C235.373,7.196 235.161,7.216 234.954,7.216C234.383,7.216 233.977,7.08 233.745,6.809C233.51,6.533 233.394,6.055 233.394,5.373L233.394,0.826L231.922,0.826L231.922,0.184L233.426,0.184L233.426,-1.392L234.008,-2.062L234.188,-2.062L234.188,0.184L236.035,0.184L236.035,0.826L234.188,0.826L234.188,5.389ZM52.925,-3.362L54.301,-3.362L54.301,7.08L52.925,7.08L52.925,-3.362ZM62.163,6.35C61.704,6.645 61.233,6.865 60.747,7.012C60.264,7.16 59.761,7.232 59.243,7.232C58.158,7.232 57.289,6.897 56.638,6.222C55.988,5.544 55.665,4.647 55.665,3.518C55.665,2.489 55.976,1.651 56.603,1.009C57.225,0.367 58.038,0.048 59.047,0.048C60.041,0.048 60.83,0.371 61.409,1.025C61.995,1.679 62.286,2.557 62.286,3.67L62.286,3.869L57.117,3.869C57.157,4.523 57.372,5.03 57.759,5.397C58.146,5.764 58.665,5.947 59.319,5.947C59.757,5.947 60.212,5.867 60.691,5.708C61.161,5.544 61.656,5.297 62.163,4.97L62.163,6.35ZM57.117,2.892L60.771,2.892C60.727,2.385 60.543,1.983 60.224,1.679C59.909,1.376 59.506,1.225 59.031,1.225C58.501,1.225 58.074,1.364 57.751,1.648C57.428,1.927 57.217,2.341 57.117,2.892M66.961,5.676L66.961,3.654C66.031,3.945 65.393,4.212 65.042,4.451C64.691,4.699 64.516,4.982 64.516,5.305C64.516,5.588 64.608,5.808 64.787,5.959C64.97,6.115 65.226,6.195 65.553,6.195C65.8,6.195 66.04,6.151 66.275,6.059C66.506,5.975 66.738,5.844 66.961,5.676M67.013,6.514C66.666,6.757 66.335,6.936 66.023,7.04C65.712,7.148 65.377,7.204 65.018,7.204C64.404,7.204 63.917,7.056 63.571,6.757C63.219,6.462 63.048,6.055 63.048,5.536C63.048,5.05 63.236,4.619 63.615,4.252C63.993,3.881 64.56,3.57 65.322,3.315L66.961,2.768C66.965,2.728 66.969,2.689 66.973,2.649C66.973,2.609 66.977,2.553 66.977,2.477C66.977,2.066 66.873,1.767 66.674,1.588C66.47,1.408 66.139,1.316 65.673,1.316C65.29,1.316 64.895,1.396 64.488,1.556C64.077,1.719 63.67,1.959 63.26,2.278L63.26,0.922C63.615,0.63 64.009,0.415 64.448,0.268C64.887,0.12 65.349,0.048 65.844,0.048C66.734,0.048 67.372,0.243 67.779,0.634C68.181,1.021 68.381,1.651 68.381,2.525L68.381,5.445C68.381,5.688 68.405,5.863 68.445,5.963C68.489,6.067 68.56,6.115 68.66,6.115C68.744,6.115 68.832,6.095 68.927,6.051C69.019,6.003 69.167,5.899 69.378,5.736L69.378,6.573C69.127,6.789 68.875,6.948 68.624,7.048C68.369,7.152 68.106,7.204 67.83,7.204C67.571,7.204 67.372,7.148 67.24,7.036C67.108,6.928 67.033,6.753 67.013,6.514M74.946,5.544L74.946,1.663C74.719,1.504 74.491,1.388 74.26,1.309C74.025,1.233 73.773,1.193 73.506,1.193C72.804,1.193 72.25,1.408 71.847,1.835C71.444,2.262 71.245,2.852 71.245,3.606C71.245,4.356 71.444,4.946 71.847,5.377C72.25,5.808 72.804,6.023 73.506,6.023C73.773,6.023 74.025,5.987 74.26,5.911C74.491,5.832 74.719,5.712 74.946,5.544M74.946,6.697C74.691,6.873 74.42,7.004 74.128,7.092C73.837,7.176 73.514,7.216 73.155,7.216C72.158,7.216 71.348,6.885 70.718,6.215C70.092,5.548 69.777,4.683 69.777,3.626C69.777,2.565 70.092,1.699 70.718,1.033C71.348,0.363 72.158,0.032 73.155,0.032C73.502,0.032 73.825,0.076 74.116,0.16C74.408,0.247 74.687,0.383 74.946,0.567L74.946,-3.362L76.322,-3.362L76.322,7.08L74.946,7.08L74.946,6.697ZM77.854,3.012L81.767,3.012L81.767,4.252L77.854,4.252L77.854,3.012ZM85.005,7.08L83.585,7.08L83.585,1.376L82.68,1.376L82.68,0.184L83.585,0.184L83.585,-0.443C83.585,-1.041 83.609,-1.476 83.657,-1.747C83.709,-2.014 83.797,-2.245 83.92,-2.445C84.12,-2.768 84.395,-3.023 84.742,-3.199C85.093,-3.382 85.488,-3.47 85.919,-3.47C86.054,-3.47 86.206,-3.458 86.377,-3.43C86.549,-3.41 86.764,-3.366 87.024,-3.306L87.024,-2.094C86.828,-2.134 86.661,-2.166 86.521,-2.186C86.377,-2.205 86.258,-2.217 86.154,-2.217C85.735,-2.217 85.44,-2.098 85.265,-1.866C85.093,-1.635 85.005,-1.228 85.005,-0.65L85.005,0.184L85.923,0.184L85.923,1.376L85.005,1.376L85.005,7.08ZM87.319,7.08L87.319,0.184L88.695,0.184L88.695,1.683C89.078,1.081 89.421,0.658 89.728,0.423C90.035,0.18 90.366,0.06 90.725,0.06C90.972,0.06 91.228,0.12 91.483,0.228C91.742,0.335 92.013,0.507 92.301,0.738L91.555,1.959C91.331,1.763 91.116,1.624 90.913,1.536C90.709,1.452 90.494,1.408 90.271,1.408C89.896,1.408 89.568,1.564 89.293,1.875C89.01,2.19 88.814,2.625 88.695,3.183L88.695,7.08L87.319,7.08ZM99.089,6.35C98.631,6.645 98.164,6.865 97.677,7.012C97.191,7.16 96.688,7.232 96.174,7.232C95.085,7.232 94.215,6.897 93.565,6.222C92.915,5.544 92.592,4.647 92.592,3.518C92.592,2.489 92.907,1.651 93.529,1.009C94.155,0.367 94.969,0.048 95.974,0.048C96.967,0.048 97.757,0.371 98.339,1.025C98.922,1.679 99.213,2.557 99.213,3.67L99.213,3.869L94.044,3.869C94.083,4.523 94.299,5.03 94.686,5.397C95.073,5.764 95.595,5.947 96.245,5.947C96.684,5.947 97.143,5.867 97.617,5.708C98.092,5.544 98.583,5.297 99.089,4.97L99.089,6.35ZM94.044,2.892L97.697,2.892C97.653,2.385 97.474,1.983 97.155,1.679C96.836,1.376 96.437,1.225 95.958,1.225C95.432,1.225 95.005,1.364 94.678,1.648C94.355,1.927 94.143,2.341 94.044,2.892M106.548,6.35C106.089,6.645 105.623,6.865 105.136,7.012C104.649,7.16 104.151,7.232 103.632,7.232C102.543,7.232 101.674,6.897 101.024,6.222C100.374,5.544 100.051,4.647 100.051,3.518C100.051,2.489 100.365,1.651 100.988,1.009C101.614,0.367 102.428,0.048 103.433,0.048C104.426,0.048 105.216,0.371 105.798,1.025C106.38,1.679 106.672,2.557 106.672,3.67L106.672,3.869L101.502,3.869C101.546,4.523 101.758,5.03 102.145,5.397C102.535,5.764 103.054,5.947 103.704,5.947C104.143,5.947 104.602,5.867 105.076,5.708C105.551,5.544 106.042,5.297 106.548,4.97L106.548,6.35ZM101.502,2.892L105.16,2.892C105.112,2.385 104.933,1.983 104.614,1.679C104.294,1.376 103.896,1.225 103.417,1.225C102.89,1.225 102.464,1.364 102.141,1.648C101.813,1.927 101.602,2.341 101.502,2.892" style="fill:white;fill-rule:nonzero;"/>
            </g>
        </g>
    </g>
</svg>
