<?xml version="1.0" encoding="UTF-8" standalone="no"?>
<!DOCTYPE svg PUBLIC "-//W3C//DTD SVG 1.1//EN" "http://www.w3.org/Graphics/SVG/1.1/DTD/svg11.dtd">
<svg width="100%" height="100%" viewBox="0 0 2084 1321" version="1.1" xmlns="http://www.w3.org/2000/svg" xmlns:xlink="http://www.w3.org/1999/xlink" xml:space="preserve" xmlns:serif="http://www.serif.com/" style="fill-rule:evenodd;clip-rule:evenodd;stroke-linejoin:round;stroke-miterlimit:2;">
    <g transform="matrix(1,0,0,1,-472.283,-3258.66)">
        <g>
            <g transform="matrix(-4.16667,0,0,4.16667,3027.9,-7.50833)">
                <rect x="113.348" y="783.881" width="500" height="317" style="fill:rgb(240,88,34);"/>
            </g>
            <g transform="matrix(4.16667,0,0,4.16667,0,-1.14583)">
                <rect x="217.275" y="795.545" width="292.145" height="292.145" style="fill:rgb(240,88,34);"/>
            </g>
            <g transform="matrix(4.16667,0,0,4.16667,1324.01,3826.12)">
                <path d="M0,57.658L-11.974,57.658L-11.974,17.49C-12.302,16.373 -12.981,15.41 -14.01,14.535C-16.44,12.477 -19.351,11.361 -22.415,11.361C-26.224,11.361 -29.814,13.068 -32.507,16.133C-33.755,17.599 -34.28,19 -34.236,20.751L-34.214,22.393L-34.258,22.371L-34.258,57.658L-46.232,57.658L-46.232,17.49C-46.56,16.373 -47.217,15.41 -48.268,14.535C-50.697,12.477 -53.609,11.361 -56.673,11.361C-60.482,11.361 -64.072,13.068 -66.743,16.133C-68.013,17.599 -68.538,19 -68.494,20.773L-68.472,22.546L-68.516,22.525L-68.516,57.658L-80.49,57.658L-80.49,0.262L-68.516,0.262L-68.516,5.779C-65.101,2.692 -59.869,0 -54.375,0C-44.546,0.022 -39.534,4.421 -36.994,8.602C-36.206,7.639 -35.002,6.282 -33.382,5.012C-29.311,1.817 -24.495,0 -20.117,0C-0.722,0.022 0,17.14 0,17.315L0,57.658Z" style="fill:white;"/>
            </g>
            <g transform="matrix(4.16667,0,0,4.16667,1460.77,3827.33)">
                <path d="M0,77.797C-5.254,77.797 -11.252,76.922 -16.899,75.345L-17.622,75.148L-17.622,63.547L-16.308,63.963C-11.033,65.714 -5.057,66.721 0.088,66.721C6.698,66.721 11.383,65.079 13.243,62.124C13.966,60.876 14.163,60.154 14.207,57.899C14.207,57.396 14.316,53.215 14.382,50.391C14.097,50.675 13.9,50.894 13.813,50.982C11.427,53.477 6.063,57.658 -3.065,57.658C-22.656,57.505 -23.357,40.496 -23.357,40.321L-23.357,0L-11.383,0L-11.383,40.299C-11.12,41.197 -10.442,42.204 -9.369,43.123C-7.114,45.028 -3.174,46.275 0.7,46.275C1.773,46.275 2.78,46.166 3.656,45.991C5.407,45.619 7.18,44.721 7.924,44.24C8.69,43.758 9.456,43.167 10.113,42.51L10.836,41.832C10.923,41.722 11.033,41.613 11.12,41.503C12.368,40.059 12.893,38.701 12.871,36.885L12.871,35.024L12.893,35.024L12.893,0L24.845,0L24.845,58.643C24.801,63.744 23.335,66.808 22.875,67.618C18.869,74.207 11.164,77.688 0.503,77.775L0,77.797Z" style="fill:white;"/>
            </g>
            <g transform="matrix(4.16667,0,0,4.16667,2039.25,3934.97)">
                <path d="M0,51.53L0,6.305L-49.975,6.305L-49.975,6.852C-49.275,7.005 -27.8,11.536 -20.27,13.134C-19.657,13.244 -19.373,13.616 -19.351,14.338L-19.351,43.715C-19.373,45.094 -20.139,45.16 -20.993,45.488C-21.233,45.597 -21.474,45.663 -21.715,45.751C-29.42,48.334 -37.388,49.691 -45.706,48.99C-53.083,48.377 -59.891,45.991 -66.261,42.401C-68.779,40.979 -71.011,39.118 -71.887,36.206C-72.325,34.718 -72.5,33.142 -72.522,31.544C-72.566,14.71 -72.587,-2.167 -72.544,-19.022C-72.544,-20.489 -72.259,-22.043 -71.799,-23.444C-70.114,-28.457 -66.436,-31.565 -61.686,-33.448C-51.464,-37.519 -40.891,-38.198 -30.121,-36.512C-20.883,-35.089 -12.237,-31.85 -4.028,-27.362C-3.875,-27.275 -3.459,-27.034 -3.087,-26.859L-3.087,-42.642C-3.459,-42.926 -3.787,-43.189 -4.028,-43.342C-9.172,-47.085 -14.841,-49.778 -20.883,-51.792C-29.333,-54.594 -38.001,-55.863 -46.867,-56.016C-55.141,-56.148 -63.219,-55.031 -70.88,-51.77C-78.038,-48.749 -84.102,-44.349 -88.392,-37.804C-90.362,-34.827 -91.895,-31.631 -91.895,-27.932C-91.895,-5.253 -91.895,17.425 -91.873,40.125C-91.873,45.772 -89.706,50.457 -85.459,54.222C-82.175,57.155 -78.388,59.257 -74.361,60.942C-61.139,66.524 -47.48,67.531 -33.492,65.014C-21.781,62.934 -10.967,58.513 -0.722,52.646C-0.197,52.339 -0.044,52.011 0,51.53Z" style="fill:white;"/>
            </g>
        </g>
    </g>
</svg>
