<svg width="100%" height="100%" viewBox="0 0 2084 1321" version="1.1" xmlns="http://www.w3.org/2000/svg" xmlns:xlink="http://www.w3.org/1999/xlink" xml:space="preserve" xmlns:serif="http://www.serif.com/" style="fill-rule:evenodd;clip-rule:evenodd;stroke-linejoin:round;stroke-miterlimit:2;">
    <g transform="matrix(1,0,0,1,-472.283,-6095.62)">
        <g>
            <g transform="matrix(-4.16667,0,0,4.16667,3027.9,5666.4)">
                <rect x="113.348" y="103.012" width="500" height="317"/>
            </g>
            <g transform="matrix(-4.16667,0,0,4.16667,3027.9,5666.4)">
                <rect x="250.386" y="158.513" width="225.924" height="205.998"/>
            </g>
            <g transform="matrix(4.16667,0,0,4.16667,1348.42,6588.21)">
                <path d="M0,-45.719C-4.272,-48.498 -9.359,-50.116 -14.833,-50.116C-29.886,-50.116 -42.09,-37.913 -42.09,-22.859C-42.09,-7.806 -29.886,4.397 -14.833,4.397C-9.086,4.397 -3.76,2.618 0.637,-0.416L25.043,-14.363L26.126,-14.934C30.124,-17.231 34.753,-18.57 39.692,-18.57C44.541,-18.57 49.051,-17.332 53.002,-15.113L53.026,-15.113L0,-45.719Z" style="fill:rgb(175,23,87);fill-rule:nonzero;"/>
            </g>
            <g transform="matrix(4.16667,0,0,4.16667,1569.35,6741.12)">
                <path d="M0,-51.812L-0.024,-51.812C-3.969,-54.031 -8.52,-55.305 -13.37,-55.305C-14.916,-55.305 -16.428,-55.162 -17.903,-54.912C-18.784,-54.763 -19.653,-54.591 -20.504,-54.359C-21.551,-54.073 -22.562,-53.728 -23.55,-53.323C-23.639,-53.287 -23.734,-53.258 -23.824,-53.222C-24.091,-53.109 -24.353,-52.984 -24.615,-52.859C-24.877,-52.74 -25.144,-52.633 -25.406,-52.502C-25.632,-52.389 -25.846,-52.264 -26.067,-52.151C-26.358,-51.996 -26.65,-51.848 -26.935,-51.687L-27.977,-51.062L-54.698,-35.801C-54.733,-35.783 -54.763,-35.759 -54.793,-35.741L-55.114,-35.563L-54.698,-35.801C-54.656,-35.825 -54.614,-35.854 -54.567,-35.878C-54.519,-35.908 -54.466,-35.938 -54.418,-35.967C-58.416,-33.665 -63.051,-32.332 -67.996,-32.332C-72.797,-32.332 -77.307,-33.617 -81.222,-35.801C-81.27,-35.825 -80.58,-35.426 -80.633,-35.456L-47.718,-16.38C-44.559,-14.577 -15.446,2.267 -13.28,3.493L15.613,-13.221C21.199,-16.362 23.454,-17.731 27.506,-19.986C27.905,-20.218 28.31,-20.444 28.72,-20.658C28.792,-20.694 28.857,-20.73 28.928,-20.771C29.047,-20.837 29.172,-20.89 29.291,-20.95C29.392,-20.997 29.488,-21.045 29.583,-21.093C29.761,-21.176 29.946,-21.259 30.13,-21.342C33.54,-22.872 37.312,-23.728 41.292,-23.728C46.058,-23.728 50.539,-22.491 54.436,-20.337C54.567,-20.283 54.692,-20.212 54.692,-20.212L0,-51.812Z" style="fill:rgb(212,20,104);fill-rule:nonzero;"/>
            </g>
            <g transform="matrix(4.16667,0,0,4.16667,1285.74,6495.32)">
                <path d="M0,89.772C5.391,89.772 10.412,88.201 14.643,85.5C14.655,85.5 14.625,85.506 14.643,85.5L32.802,75.088L32.754,75.082C32.754,75.082 33.718,74.534 35.116,73.755L37.705,72.339L54.787,62.486L54.031,62.051C49.485,59.451 23.347,44.321 20.349,42.613L-13.649,22.907C-13.649,22.913 -13.738,22.853 -13.732,22.853C-21.557,18.189 -26.834,9.716 -27.031,0L-27.072,62.515L-27.072,65.413C-26.126,74.35 -20.872,82.001 -13.411,86.232L-12.941,86.506C-9.092,88.588 -4.683,89.772 0,89.772" style="fill:rgb(237,75,74);fill-rule:nonzero;"/>
            </g>
            <g transform="matrix(4.16667,0,0,4.16667,1250.46,6880.49)">
                <path d="M0,-3.362L5.837,0C3.707,-1.232 1.696,-2.392 0,-3.362" style="fill:rgb(238,80,70);fill-rule:nonzero;"/>
            </g>
            <g transform="matrix(4.16667,0,0,4.16667,1854.96,6871.53)">
                <path d="M0,-27.774C0,-38.055 -5.7,-47.01 -14.107,-51.651C-14.595,-51.919 -15.089,-52.175 -15.595,-52.413L-15.601,-52.413C-16.065,-52.633 -16.541,-52.841 -17.017,-53.031C-17.112,-53.073 -17.213,-53.109 -17.308,-53.15C-17.713,-53.305 -18.118,-53.454 -18.528,-53.597C-18.635,-53.632 -18.736,-53.668 -18.843,-53.698C-19.331,-53.858 -19.825,-54.007 -20.325,-54.138C-20.337,-54.138 -20.349,-54.144 -20.361,-54.15C-20.878,-54.281 -21.408,-54.4 -21.937,-54.507C-22.056,-54.531 -22.169,-54.549 -22.288,-54.572C-22.693,-54.644 -23.098,-54.709 -23.502,-54.769C-23.669,-54.787 -23.835,-54.81 -24.008,-54.828C-24.383,-54.876 -24.77,-54.911 -25.156,-54.941C-25.317,-54.953 -25.472,-54.965 -25.632,-54.977C-26.174,-55.007 -26.709,-55.031 -27.257,-55.031C-27.792,-55.031 -28.322,-55.013 -28.845,-54.983C-29.024,-54.971 -29.202,-54.953 -29.381,-54.935C-29.726,-54.911 -30.071,-54.882 -30.41,-54.84C-30.624,-54.816 -30.833,-54.787 -31.047,-54.757C-31.344,-54.715 -31.648,-54.668 -31.945,-54.62C-32.171,-54.578 -32.397,-54.537 -32.617,-54.489C-32.897,-54.435 -33.177,-54.376 -33.456,-54.311C-33.683,-54.257 -33.909,-54.203 -34.135,-54.144C-34.408,-54.073 -34.67,-53.995 -34.938,-53.918C-35.164,-53.852 -35.384,-53.787 -35.604,-53.716C-35.878,-53.626 -36.146,-53.531 -36.419,-53.436C-36.622,-53.359 -36.83,-53.287 -37.032,-53.21C-37.377,-53.079 -37.711,-52.936 -38.044,-52.793C-38.169,-52.74 -38.294,-52.692 -38.413,-52.639C-38.419,-52.639 -38.419,-52.633 -38.425,-52.633C-38.901,-52.419 -39.371,-52.192 -39.829,-51.954C-40.239,-51.74 -40.644,-51.52 -41.037,-51.282C-45.088,-49.033 -47.349,-47.659 -52.936,-44.517L-81.829,-27.804C-81.829,-27.804 -68.019,-19.89 -66.175,-18.456C-66.169,-18.45 -66.163,-18.444 -66.163,-18.439C-65.336,-17.855 -64.551,-17.219 -63.801,-16.552C-63.747,-16.505 -63.7,-16.463 -63.646,-16.422C-63.337,-16.142 -63.039,-15.85 -62.742,-15.553C-62.653,-15.464 -62.557,-15.38 -62.474,-15.291C-62.212,-15.023 -61.957,-14.75 -61.707,-14.47C-61.594,-14.345 -61.475,-14.22 -61.362,-14.089C-61.141,-13.833 -60.927,-13.571 -60.713,-13.31C-60.582,-13.149 -60.451,-12.988 -60.326,-12.822C-60.136,-12.578 -59.957,-12.328 -59.773,-12.072C-59.636,-11.882 -59.493,-11.691 -59.362,-11.495C-59.315,-11.43 -59.267,-11.364 -59.22,-11.299C-59.208,-11.269 -59.196,-11.245 -59.184,-11.221C-59.023,-10.977 -58.863,-10.733 -58.708,-10.483C-58.69,-10.466 -58.678,-10.442 -58.66,-10.424C-58.642,-10.394 -58.63,-10.364 -58.613,-10.341C-58.327,-9.865 -58.047,-9.383 -57.792,-8.889C-57.702,-8.728 -57.631,-8.562 -57.548,-8.401C-57.369,-8.044 -57.197,-7.687 -57.03,-7.324C-56.941,-7.122 -56.857,-6.908 -56.768,-6.705C-56.631,-6.372 -56.495,-6.045 -56.37,-5.706C-56.286,-5.486 -56.209,-5.259 -56.138,-5.033C-56.019,-4.706 -55.911,-4.373 -55.81,-4.034C-55.739,-3.802 -55.673,-3.57 -55.614,-3.338C-55.519,-2.999 -55.435,-2.653 -55.358,-2.308C-55.305,-2.076 -55.251,-1.838 -55.203,-1.6C-55.132,-1.243 -55.066,-0.88 -55.013,-0.517C-54.971,-0.291 -54.936,-0.065 -54.906,0.167C-54.852,0.565 -54.811,0.97 -54.775,1.381C-54.757,1.577 -54.733,1.767 -54.721,1.97C-54.68,2.577 -54.656,3.183 -54.656,3.802C-54.656,4.528 -54.692,5.248 -54.751,5.962C-54.781,6.373 -54.823,6.777 -54.87,7.176C-54.894,7.342 -54.912,7.503 -54.936,7.664C-54.965,7.89 -55.013,8.11 -55.049,8.336C-55.102,8.645 -55.144,8.961 -55.203,9.27C-55.239,9.431 -55.287,9.592 -55.322,9.758C-55.435,10.264 -55.56,10.77 -55.697,11.263L-55.703,11.269C-55.763,11.478 -55.828,11.68 -55.894,11.888C-55.995,12.215 -56.09,12.543 -56.203,12.858L-56.203,12.864C-56.334,13.227 -56.477,13.59 -56.619,13.947C-56.673,14.078 -56.721,14.215 -56.774,14.351C-56.988,14.857 -57.22,15.351 -57.458,15.845C-57.506,15.94 -57.56,16.029 -57.607,16.125L-57.607,16.131C-57.809,16.529 -58.018,16.916 -58.238,17.303C-58.297,17.404 -58.351,17.499 -58.41,17.6C-58.416,17.612 -58.428,17.624 -58.434,17.636C-58.976,18.552 -59.571,19.439 -60.213,20.284C-60.219,20.295 -60.225,20.307 -60.237,20.313L-60.237,20.319C-60.273,20.367 -60.308,20.408 -60.344,20.456C-60.35,20.462 -60.35,20.462 -60.35,20.468C-60.653,20.855 -60.963,21.23 -61.278,21.598C-61.332,21.658 -61.385,21.723 -61.439,21.783L-61.445,21.789C-61.463,21.813 -61.486,21.836 -61.51,21.86C-62.165,22.598 -62.867,23.306 -63.599,23.972C-63.664,24.032 -63.724,24.091 -63.789,24.151L-63.795,24.151C-63.807,24.169 -63.819,24.181 -63.837,24.193C-63.837,24.193 -63.843,24.193 -63.843,24.199C-64.235,24.55 -64.646,24.883 -65.062,25.216C-65.104,25.252 -65.152,25.287 -65.205,25.323L-65.205,25.329C-65.241,25.353 -65.271,25.377 -65.3,25.4C-65.717,25.716 -66.139,26.025 -66.568,26.323C-67.038,26.644 -67.514,26.947 -68.002,27.239L-68.013,27.257L-12.923,-4.551L-12.941,-4.581C-5.176,-9.383 0,-17.974 0,-27.774" style="fill:rgb(233,22,90);fill-rule:nonzero;"/>
            </g>
            <g transform="matrix(4.16667,0,0,4.16667,1173.15,6878.3)">
                <path d="M0,32.04C-0.036,32.623 0.048,33.206 0.048,33.801C0.048,48.854 12.138,61.052 27.191,61.052C42.244,61.052 54.448,48.854 54.448,33.801C54.448,24.46 49.753,16.225 42.595,11.317C42.601,11.317 42.607,11.322 42.619,11.328C42.589,11.311 42.56,11.287 42.536,11.269C42.28,11.096 42.018,10.93 41.756,10.763C35.884,6.967 20.575,-1.791 14.232,-5.331C14.185,-5.361 14.131,-5.385 14.077,-5.415L13.613,-5.682C6.152,-9.913 0.898,-17.564 -0.048,-26.501L-0.048,-29.012" style="fill:rgb(250,187,20);fill-rule:nonzero;"/>
            </g>
            <g transform="matrix(4.16667,0,0,4.16667,1250.46,6880.49)">
                <path d="M0,-3.362L5.837,0C3.707,-1.232 1.696,-2.392 0,-3.362" style="fill:rgb(250,187,20);fill-rule:nonzero;"/>
            </g>
            <g transform="matrix(4.16667,0,0,4.16667,1579.29,7077.84)">
                <path d="M0,-67.948C-0.006,-67.954 -0.006,-67.96 -0.012,-67.966C-1.862,-69.4 -15.666,-77.319 -15.666,-77.319L-32.731,-67.478L-35.337,-66.05C-36.735,-65.27 -37.699,-64.723 -37.699,-64.723L-55.816,-54.305C-60.231,-51.657 -65.062,-50.033 -70.453,-50.033C-75.07,-50.033 -79.414,-51.187 -83.222,-53.216C-76.873,-49.664 -61.588,-40.923 -55.721,-37.121C-55.459,-36.961 -55.197,-36.794 -54.942,-36.616C-54.912,-36.598 -54.882,-36.58 -54.858,-36.562C-54.864,-36.568 -54.876,-36.568 -54.882,-36.574C-47.724,-31.665 -43.03,-23.425 -43.03,-14.089C-43.03,-4.147 -48.355,4.552 -56.31,9.312L-56.405,9.371L-4.534,-20.616L-1.845,-22.264L-1.624,-22.407L-1.618,-22.413C-0.72,-22.955 0.125,-23.544 0.952,-24.186C1,-24.222 1.053,-24.264 1.101,-24.299C1.517,-24.627 1.922,-24.966 2.314,-25.317C2.332,-25.329 2.35,-25.347 2.368,-25.358C3.201,-26.102 3.98,-26.894 4.718,-27.727C4.772,-27.786 4.825,-27.851 4.879,-27.917C5.2,-28.286 5.51,-28.661 5.807,-29.047C5.843,-29.095 5.884,-29.149 5.926,-29.196C6.587,-30.065 7.193,-30.969 7.747,-31.915C7.806,-32.01 7.86,-32.112 7.919,-32.213C8.139,-32.594 8.348,-32.986 8.55,-33.385C8.604,-33.48 8.651,-33.575 8.699,-33.671C8.943,-34.158 9.169,-34.658 9.383,-35.164C9.389,-35.176 9.395,-35.182 9.395,-35.194C9.597,-35.67 9.782,-36.158 9.954,-36.651C10.002,-36.788 10.049,-36.925 10.091,-37.062C10.222,-37.455 10.347,-37.847 10.46,-38.246C10.496,-38.383 10.537,-38.52 10.573,-38.657C10.716,-39.18 10.847,-39.71 10.954,-40.245C10.96,-40.269 10.96,-40.287 10.966,-40.311C11.067,-40.816 11.15,-41.334 11.227,-41.852C11.251,-42.012 11.269,-42.173 11.287,-42.334C11.335,-42.738 11.376,-43.143 11.412,-43.547C11.424,-43.714 11.436,-43.875 11.448,-44.041C11.477,-44.595 11.501,-45.148 11.501,-45.713C11.501,-54.894 6.955,-63.01 0,-67.948" style="fill:rgb(241,123,60);fill-rule:nonzero;"/>
            </g>
            <g transform="matrix(4.16667,0,0,4.16667,1131.42,6665.33)">
                <path d="M0,36.788L0,54.87L-7.205,54.87L-7.205,-1.512L0,-1.512L0,1.82C2.725,-0.917 6.015,-2.285 9.877,-2.285C15.63,-2.285 20.111,-0.488 23.312,3.088C26.513,6.676 28.113,11.929 28.113,18.831C28.113,24.989 26.501,30.023 23.27,33.92C20.045,37.823 15.375,39.769 9.27,39.769C7.55,39.769 5.718,39.471 3.766,38.865C1.809,38.258 0.553,37.562 0,36.788M0,7.205L0,30.85C0.452,31.534 1.404,32.177 2.88,32.802C4.337,33.42 5.754,33.73 7.14,33.73C16.059,33.73 20.521,28.684 20.521,18.575C20.521,13.452 19.462,9.692 17.35,7.318C15.232,4.944 11.852,3.754 7.176,3.754C6.17,3.754 4.944,4.105 3.475,4.813C2.011,5.527 0.851,6.324 0,7.205M58.785,34.349C55.917,37.966 51.514,39.769 45.606,39.769C42.429,39.769 39.68,38.609 37.354,36.3C35.021,33.986 33.855,31.124 33.855,27.679C33.855,23.555 35.652,20.087 39.24,17.231C42.827,14.393 47.397,12.971 52.96,12.971C54.471,12.971 56.185,13.31 58.101,13.982C58.101,7.425 55.179,4.147 49.331,4.147C44.844,4.147 41.393,5.355 38.966,7.782L35.949,1.743C37.318,0.63 39.204,-0.31 41.602,-1.095C44.017,-1.886 46.314,-2.285 48.51,-2.285C54.382,-2.285 58.654,-0.94 61.314,1.731C63.973,4.403 65.3,8.651 65.3,14.482L65.3,29.017C65.3,32.57 66.359,34.944 68.478,36.128L68.478,39.692C65.544,39.692 63.355,39.281 61.909,38.454C60.445,37.627 59.416,36.259 58.785,34.349M58.101,19.093C55.84,18.575 54.251,18.32 53.347,18.32C49.735,18.32 46.778,19.26 44.493,21.128C42.209,23.002 41.06,25.221 41.06,27.78C41.06,31.998 43.535,34.117 48.48,34.117C52.109,34.117 55.31,32.385 58.101,28.928L58.101,19.093ZM77.176,27.56L77.176,-18.082L84.376,-18.082L84.376,26.346C84.376,28.512 85,30.219 86.238,31.469C87.488,32.724 89.118,33.343 91.117,33.343L91.117,39.769C81.823,39.769 77.176,35.705 77.176,27.56M122.312,34.349C119.45,37.966 115.048,39.769 109.139,39.769C105.962,39.769 103.213,38.609 100.887,36.3C98.554,33.986 97.388,31.124 97.388,27.679C97.388,23.555 99.185,20.087 102.773,17.231C106.361,14.393 110.93,12.971 116.493,12.971C118.005,12.971 119.718,13.31 121.634,13.982C121.634,7.425 118.713,4.147 112.864,4.147C108.372,4.147 104.927,5.355 102.499,7.782L99.483,1.743C100.851,0.63 102.731,-0.31 105.135,-1.095C107.551,-1.886 109.847,-2.285 112.043,-2.285C117.915,-2.285 122.187,-0.94 124.847,1.731C127.507,4.403 128.834,8.651 128.834,14.482L128.834,29.017C128.834,32.57 129.893,34.944 132.011,36.128L132.011,39.692C129.077,39.692 126.888,39.281 125.436,38.454C123.978,37.627 122.949,36.259 122.312,34.349M121.634,19.093C119.373,18.575 117.784,18.32 116.88,18.32C113.268,18.32 110.311,19.26 108.027,21.128C105.742,23.002 104.594,25.221 104.594,27.78C104.594,31.998 107.069,34.117 112.013,34.117C115.642,34.117 118.844,32.385 121.634,28.928L121.634,19.093ZM164.795,38.995L154.353,23.906L143.887,38.995L135.521,38.995L150.271,18.022L136.759,-1.512L144.892,-1.512L154.454,12.084L164.021,-1.512L171.994,-1.512L158.535,17.891L173.392,38.995L164.795,38.995ZM186.351,-16.845C187.577,-16.845 188.636,-16.404 189.517,-15.541C190.379,-14.661 190.82,-13.62 190.82,-12.418C190.82,-11.174 190.379,-10.121 189.517,-9.241C188.636,-8.378 187.577,-7.938 186.351,-7.938C185.138,-7.938 184.09,-8.378 183.216,-9.241C182.353,-10.121 181.913,-11.174 181.913,-12.418C181.913,-13.643 182.335,-14.703 183.204,-15.553C184.055,-16.416 185.114,-16.845 186.351,-16.845M182.377,38.995L182.377,4.534L176.802,4.534L176.802,-1.512L189.576,-1.512L189.576,38.995L182.377,38.995Z" style="fill:white;fill-rule:nonzero;"/>
            </g>
            <g transform="matrix(4.16667,0,0,4.16667,1600.5,6909.39)">
                <path d="M0,-9.877L-2.035,-7.949C-3.415,-9.401 -4.962,-10.133 -6.694,-10.133C-8.145,-10.133 -9.377,-9.633 -10.377,-8.639C-11.376,-7.646 -11.87,-6.426 -11.87,-4.968C-11.87,-3.957 -11.65,-3.052 -11.21,-2.267C-10.763,-1.482 -10.139,-0.863 -9.335,-0.417C-8.526,0.036 -7.628,0.256 -6.64,0.256C-5.801,0.256 -5.028,0.101 -4.332,-0.214C-3.629,-0.53 -2.868,-1.101 -2.035,-1.928L-0.065,0.131C-1.184,1.232 -2.249,1.993 -3.249,2.416C-4.248,2.844 -5.397,3.052 -6.676,3.052C-9.044,3.052 -10.984,2.308 -12.495,0.803C-14,-0.696 -14.756,-2.618 -14.756,-4.962C-14.756,-6.48 -14.411,-7.83 -13.726,-9.008C-13.036,-10.186 -12.055,-11.132 -10.775,-11.852C-9.496,-12.566 -8.116,-12.929 -6.634,-12.929C-5.379,-12.929 -4.171,-12.667 -3.005,-12.132C-1.845,-11.602 -0.839,-10.853 0,-9.877M2.326,-12.548L5.212,-12.548L5.212,2.672L2.326,2.672L2.326,-12.548ZM8.49,-12.548L11.245,-12.548L17.802,-2.529L17.802,-12.548L20.682,-12.548L20.682,2.671L17.915,2.671L11.376,-7.313L11.376,2.671L8.49,2.671L8.49,-12.548ZM24.174,-12.548L32.487,-12.548L32.487,-9.71L27.054,-9.71L27.054,-6.973L32.487,-6.973L32.487,-4.177L27.054,-4.177L27.054,-0.167L32.487,-0.167L32.487,2.671L24.174,2.671L24.174,-12.548ZM36.634,-12.548L39.448,-12.548L42.988,-1.928L46.552,-12.548L49.355,-12.548L51.901,2.671L49.111,2.671L47.486,-6.944L44.261,2.671L41.703,2.671L38.496,-6.944L36.836,2.671L34.01,2.671L36.634,-12.548ZM58.904,-12.548L61.826,-12.548L67.686,2.671L64.67,2.671L63.48,-0.464L57.244,-0.464L56.024,2.671L53.014,2.671L58.904,-12.548ZM60.368,-8.503L58.303,-3.261L62.421,-3.261L60.368,-8.503ZM77.926,-10.478L75.778,-8.586C75.022,-9.627 74.261,-10.151 73.476,-10.151C73.095,-10.151 72.785,-10.05 72.541,-9.847C72.303,-9.645 72.184,-9.413 72.184,-9.157C72.184,-8.907 72.268,-8.663 72.44,-8.437C72.678,-8.134 73.386,-7.479 74.57,-6.48C75.677,-5.557 76.343,-4.974 76.581,-4.73C77.17,-4.141 77.587,-3.576 77.837,-3.035C78.075,-2.487 78.2,-1.898 78.2,-1.261C78.2,-0.006 77.771,1.017 76.903,1.838C76.04,2.648 74.915,3.052 73.523,3.052C72.44,3.052 71.494,2.79 70.691,2.261C69.882,1.725 69.192,0.892 68.62,-0.244L71.06,-1.714C71.798,-0.375 72.643,0.297 73.594,0.297C74.094,0.297 74.511,0.155 74.85,-0.137C75.189,-0.423 75.362,-0.762 75.362,-1.137C75.362,-1.482 75.237,-1.827 74.975,-2.172C74.719,-2.517 74.154,-3.046 73.285,-3.754C71.625,-5.105 70.554,-6.146 70.066,-6.884C69.584,-7.616 69.34,-8.348 69.34,-9.08C69.34,-10.139 69.745,-11.043 70.548,-11.793C71.351,-12.554 72.345,-12.929 73.523,-12.929C74.285,-12.929 75.011,-12.751 75.695,-12.406C76.379,-12.049 77.123,-11.412 77.926,-10.478" style="fill:white;fill-rule:nonzero;"/>
            </g>
        </g>
    </g>
</svg>